Amatic-Regular.ufo
<glyph name="dollar" format="1">
  <advance width="720"/>
  <unicode hex="0024"/>
  <outline>
    <contour>
      <point x="226" y="1288" type="curve" smooth="yes"/>
      <point x="226" y="1190"/>
      <point x="263" y="1079"/>
      <point x="304" y="989" type="curve" smooth="yes"/>
      <point x="304" y="985"/>
      <point x="306" y="983"/>
      <point x="310" y="981" type="curve"/>
      <point x="306" y="1145"/>
      <point x="281" y="1309"/>
      <point x="273" y="1473" type="curve"/>
      <point x="242" y="1467"/>
      <point x="226" y="1317"/>
    </contour>
    <contour>
      <point x="406" y="240" type="curve"/>
      <point x="408" y="236" type="line"/>
      <point x="461" y="261"/>
      <point x="505" y="328"/>
      <point x="505" y="387" type="curve" smooth="yes"/>
      <point x="505" y="457"/>
      <point x="425" y="700"/>
      <point x="372" y="776" type="curve"/>
      <point x="372" y="596"/>
      <point x="406" y="420"/>
    </contour>
    <contour>
      <point x="365" y="23" type="curve"/>
      <point x="374" y="29" type="line"/>
      <point x="374" y="164" type="line"/>
      <point x="367" y="170" type="line"/>
      <point x="332" y="170"/>
      <point x="298" y="170"/>
      <point x="265" y="166" type="curve"/>
      <point x="232" y="189"/>
      <point x="193" y="225"/>
      <point x="193" y="268" type="curve" smooth="yes"/>
      <point x="193" y="280"/>
      <point x="200" y="289"/>
      <point x="212" y="289" type="curve" smooth="yes"/>
      <point x="216" y="289" type="line"/>
      <point x="267" y="258"/>
      <point x="224" y="205"/>
      <point x="312" y="205" type="curve" smooth="yes"/>
      <point x="330" y="205"/>
      <point x="352" y="207"/>
      <point x="370" y="213" type="curve"/>
      <point x="370" y="336"/>
      <point x="326" y="789"/>
      <point x="316" y="881" type="curve" smooth="yes"/>
      <point x="312" y="918"/>
      <point x="179" y="1130"/>
      <point x="179" y="1300" type="curve" smooth="yes"/>
      <point x="179" y="1355"/>
      <point x="201" y="1522"/>
      <point x="277" y="1522" type="curve"/>
      <point x="277" y="1551"/>
      <point x="269" y="1579"/>
      <point x="269" y="1610" type="curve" smooth="yes"/>
      <point x="269" y="1628"/>
      <point x="271" y="1663"/>
      <point x="298" y="1663" type="curve"/>
      <point x="314" y="1645" type="line"/>
      <point x="312" y="1631"/>
      <point x="312" y="1613"/>
      <point x="312" y="1599" type="curve" smooth="yes"/>
      <point x="312" y="1560"/>
      <point x="318" y="1524"/>
      <point x="345" y="1524" type="curve" smooth="yes"/>
      <point x="374" y="1524"/>
      <point x="398" y="1508"/>
      <point x="423" y="1479" type="curve" smooth="yes"/>
      <point x="431" y="1471"/>
      <point x="474" y="1425"/>
      <point x="474" y="1417" type="curve" smooth="yes"/>
      <point x="474" y="1403"/>
      <point x="461" y="1379"/>
      <point x="449" y="1391" type="curve" smooth="yes"/>
      <point x="408" y="1432"/>
      <point x="409" y="1479"/>
      <point x="329" y="1487" type="curve"/>
      <point x="322" y="1470" type="line"/>
      <point x="322" y="1417"/>
      <point x="329" y="1362"/>
      <point x="329" y="1309" type="curve" smooth="yes"/>
      <point x="329" y="1243"/>
      <point x="356" y="917"/>
      <point x="376" y="870" type="curve" smooth="yes"/>
      <point x="411" y="776"/>
      <point x="536" y="571"/>
      <point x="550" y="403" type="curve"/>
      <point x="550" y="284"/>
      <point x="500" y="247"/>
      <point x="410" y="184" type="curve"/>
      <point x="410" y="145"/>
      <point x="419" y="107"/>
      <point x="419" y="68" type="curve" smooth="yes"/>
      <point x="419" y="45"/>
      <point x="417" y="-18"/>
      <point x="384" y="-18" type="curve" smooth="yes"/>
      <point x="370" y="-18"/>
      <point x="365" y="13"/>
    </contour>
  </outline>
</glyph>
<glyph name="percent" format="1">
  <advance width="1244"/>
  <unicode hex="0025"/>
  <outline>
    <contour>
      <point x="806" y="1505" type="curve" smooth="yes"/>
      <point x="806" y="1489"/>
      <point x="769" y="1337"/>
      <point x="765" y="1317" type="curve" smooth="yes"/>
      <point x="691" y="977"/>
      <point x="612" y="641"/>
      <point x="534" y="299" type="curve" smooth="yes"/>
      <point x="493" y="121" type="line" smooth="yes"/>
      <point x="483" y="78"/>
      <point x="476" y="-2"/>
      <point x="433" y="-6" type="curve"/>
      <point x="421" y="2"/>
      <point x="413" y="17"/>
      <point x="413" y="31" type="curve" smooth="yes"/>
      <point x="413" y="129"/>
      <point x="457" y="268"/>
      <point x="484" y="387" type="curve" smooth="yes"/>
      <point x="564" y="741"/>
      <point x="648" y="1096"/>
      <point x="740" y="1448" type="curve" smooth="yes"/>
      <point x="744" y="1460"/>
      <point x="759" y="1532"/>
      <point x="775" y="1532" type="curve" smooth="yes"/>
      <point x="791" y="1532"/>
      <point x="806" y="1523"/>
    </contour>
    <contour>
      <point x="781" y="475" type="curve" smooth="yes"/>
      <point x="781" y="438"/>
      <point x="777" y="402"/>
      <point x="777" y="367" type="curve" smooth="yes"/>
      <point x="777" y="349"/>
      <point x="785" y="329"/>
      <point x="785" y="313" type="curve" smooth="yes"/>
      <point x="793" y="280"/>
      <point x="802" y="94"/>
      <point x="876" y="94" type="curve" smooth="yes"/>
      <point x="1013" y="94"/>
      <point x="1023" y="273"/>
      <point x="1023" y="403" type="curve" smooth="yes"/>
      <point x="1023" y="469" type="line" smooth="yes"/>
      <point x="1023" y="539"/>
      <point x="1015" y="758"/>
      <point x="892" y="758" type="curve" smooth="yes"/>
      <point x="794" y="758"/>
      <point x="781" y="520"/>
    </contour>
    <contour>
      <point x="898" y="815" type="curve" smooth="yes"/>
      <point x="1066" y="815"/>
      <point x="1076" y="571"/>
      <point x="1076" y="479" type="curve" smooth="yes"/>
      <point x="1076" y="446"/>
      <point x="1072" y="418"/>
      <point x="1072" y="385" type="curve"/>
      <point x="1076" y="379" type="line"/>
      <point x="1076" y="254"/>
      <point x="1049" y="27"/>
      <point x="871" y="27" type="curve" smooth="yes"/>
      <point x="760" y="27"/>
      <point x="726" y="295"/>
      <point x="726" y="350" type="curve" smooth="yes"/>
      <point x="726" y="358" type="line" smooth="yes"/>
      <point x="726" y="475"/>
      <point x="728" y="815"/>
    </contour>
    <contour>
      <point x="185" y="1065" type="curve" smooth="yes"/>
      <point x="185" y="1022"/>
      <point x="198" y="776"/>
      <point x="298" y="776" type="curve" smooth="yes"/>
      <point x="425" y="776"/>
      <point x="433" y="999"/>
      <point x="433" y="1071" type="curve" smooth="yes"/>
      <point x="433" y="1161"/>
      <point x="417" y="1237"/>
      <point x="417" y="1327" type="curve"/>
      <point x="413" y="1346" type="line"/>
      <point x="413" y="1426"/>
      <point x="358" y="1497"/>
      <point x="282" y="1497" type="curve" smooth="yes"/>
      <point x="206" y="1497"/>
      <point x="198" y="1272"/>
      <point x="190" y="1231" type="curve" smooth="yes"/>
      <point x="190" y="1215"/>
      <point x="181" y="1196"/>
      <point x="181" y="1178" type="curve" smooth="yes"/>
      <point x="181" y="1141"/>
      <point x="185" y="1104"/>
    </contour>
    <contour>
      <point x="302" y="723" type="curve" smooth="yes"/>
      <point x="132" y="723"/>
      <point x="130" y="1065"/>
      <point x="130" y="1180" type="curve" smooth="yes"/>
      <point x="130" y="1188" type="line" smooth="yes"/>
      <point x="130" y="1251"/>
      <point x="167" y="1552"/>
      <point x="276" y="1552" type="curve" smooth="yes"/>
      <point x="280" y="1552" type="line" smooth="yes"/>
      <point x="302" y="1552"/>
      <point x="381" y="1549"/>
      <point x="417" y="1477" type="curve"/>
      <point x="466" y="1393"/>
      <point x="480" y="1253"/>
      <point x="480" y="1159" type="curve"/>
      <point x="476" y="1153" type="line"/>
      <point x="476" y="1120"/>
      <point x="480" y="1092"/>
      <point x="480" y="1059" type="curve" smooth="yes"/>
      <point x="480" y="967"/>
      <point x="470" y="723"/>
    </contour>
  </outline>
</glyph>
<glyph name="ampersand" format="1">
  <advance width="920"/>
  <unicode hex="0026"/>
  <outline>
    <contour>
      <point x="312" y="1315" type="line"/>
      <point x="308" y="1303"/>
      <point x="308" y="1292"/>
      <point x="308" y="1280" type="curve" smooth="yes"/>
      <point x="308" y="1249"/>
      <point x="314" y="1221"/>
      <point x="314" y="1190" type="curve"/>
      <point x="363" y="1235"/>
      <point x="435" y="1460"/>
      <point x="435" y="1530" type="curve" smooth="yes"/>
      <point x="435" y="1581"/>
      <point x="427" y="1653"/>
      <point x="359" y="1653" type="curve" smooth="yes"/>
      <point x="339" y="1653"/>
      <point x="306" y="1597"/>
      <point x="306" y="1579" type="curve" smooth="yes"/>
      <point x="308" y="1325" type="line"/>
    </contour>
    <contour>
      <point x="763" y="629" type="line"/>
      <point x="765" y="629"/>
      <point x="765" y="629"/>
      <point x="765" y="627" type="curve"/>
    </contour>
    <contour>
      <point x="136" y="569" type="curve" smooth="yes"/>
      <point x="136" y="426"/>
      <point x="198" y="258"/>
      <point x="366" y="258" type="curve" smooth="yes"/>
      <point x="407" y="258"/>
      <point x="538" y="291"/>
      <point x="542" y="340" type="curve"/>
      <point x="530" y="360"/>
      <point x="517" y="371"/>
      <point x="501" y="387" type="curve" smooth="yes"/>
      <point x="405" y="485"/>
      <point x="335" y="717"/>
      <point x="308" y="850" type="curve" smooth="yes"/>
      <point x="296" y="909"/>
      <point x="298" y="969"/>
      <point x="280" y="1026" type="curve"/>
      <point x="184" y="901"/>
      <point x="136" y="727"/>
    </contour>
    <contour>
      <point x="351" y="219" type="curve" smooth="yes"/>
      <point x="199" y="219"/>
      <point x="91" y="395"/>
      <point x="91" y="532" type="curve" smooth="yes"/>
      <point x="91" y="790"/>
      <point x="160" y="899"/>
      <point x="273" y="1118" type="curve"/>
      <point x="273" y="1214"/>
      <point x="259" y="1309"/>
      <point x="259" y="1405" type="curve" smooth="yes"/>
      <point x="259" y="1575" type="line" smooth="yes"/>
      <point x="259" y="1614"/>
      <point x="274" y="1704"/>
      <point x="325" y="1704" type="curve" smooth="yes"/>
      <point x="378" y="1704"/>
      <point x="480" y="1662"/>
      <point x="480" y="1599" type="curve" smooth="yes"/>
      <point x="480" y="1558"/>
      <point x="474" y="1518"/>
      <point x="474" y="1477" type="curve" smooth="yes"/>
      <point x="474" y="1469"/>
      <point x="474" y="1460"/>
      <point x="476" y="1452" type="curve"/>
      <point x="445" y="1366"/>
      <point x="419" y="1274"/>
      <point x="376" y="1194" type="curve" smooth="yes"/>
      <point x="358" y="1159"/>
      <point x="321" y="1126"/>
      <point x="321" y="1085" type="curve" smooth="yes"/>
      <point x="321" y="972"/>
      <point x="466" y="414"/>
      <point x="568" y="383" type="curve"/>
      <point x="631" y="510"/>
      <point x="646" y="639"/>
      <point x="646" y="780" type="curve" smooth="yes"/>
      <point x="646" y="835"/>
      <point x="615" y="796"/>
      <point x="597" y="825" type="curve"/>
      <point x="599" y="829" type="line"/>
      <point x="595" y="842" type="line"/>
      <point x="601" y="852" type="line"/>
      <point x="640" y="852"/>
      <point x="791" y="865"/>
      <point x="822" y="877" type="curve"/>
      <point x="838" y="875"/>
      <point x="857" y="864"/>
      <point x="857" y="846" type="curve" smooth="yes"/>
      <point x="857" y="823"/>
      <point x="790" y="813"/>
      <point x="755" y="813" type="curve" smooth="yes"/>
      <point x="739" y="813"/>
      <point x="722" y="815"/>
      <point x="706" y="815" type="curve" smooth="yes"/>
      <point x="693" y="815" type="line"/>
      <point x="693" y="620"/>
      <point x="679" y="493"/>
      <point x="605" y="348" type="curve"/>
      <point x="644" y="303"/>
      <point x="702" y="266"/>
      <point x="763" y="266" type="curve" smooth="yes"/>
      <point x="788" y="266"/>
      <point x="814" y="272"/>
      <point x="839" y="272" type="curve"/>
      <point x="861" y="254" type="line"/>
      <point x="861" y="221"/>
      <point x="792" y="221"/>
      <point x="769" y="221" type="curve" smooth="yes"/>
      <point x="697" y="221"/>
      <point x="638" y="262"/>
      <point x="583" y="303" type="curve"/>
      <point x="503" y="248"/>
      <point x="451" y="219"/>
    </contour>
  </outline>
</glyph>
<glyph name="asterisk" format="1">
  <advance width="880"/>
  <unicode hex="002A"/>
  <outline>
    <contour>
      <point x="438" y="1120" type="line"/>
      <point x="436" y="1120"/>
      <point x="436" y="1120"/>
      <point x="436" y="1118" type="curve"/>
      <point x="438" y="1118" type="line"/>
    </contour>
    <contour>
      <point x="504" y="1120" type="curve" smooth="yes"/>
      <point x="479" y="1120" type="line" smooth="yes"/>
      <point x="464" y="1120"/>
      <point x="448" y="1119"/>
      <point x="440" y="1114" type="curve"/>
      <point x="442" y="1063"/>
      <point x="598" y="801"/>
      <point x="598" y="754" type="curve" smooth="yes"/>
      <point x="598" y="738"/>
      <point x="583" y="725"/>
      <point x="569" y="725" type="curve" smooth="yes"/>
      <point x="522" y="725"/>
      <point x="522" y="802"/>
      <point x="512" y="831" type="curve" smooth="yes"/>
      <point x="479" y="909"/>
      <point x="442" y="989"/>
      <point x="401" y="1065" type="curve"/>
      <point x="391" y="1051"/>
      <point x="383" y="1028"/>
      <point x="377" y="1012" type="curve" smooth="yes"/>
      <point x="297" y="823" type="line" smooth="yes"/>
      <point x="283" y="788"/>
      <point x="272" y="750"/>
      <point x="254" y="719" type="curve"/>
      <point x="227" y="715" type="line"/>
      <point x="198" y="745" type="line"/>
      <point x="198" y="794"/>
      <point x="344" y="1028"/>
      <point x="360" y="1118" type="curve"/>
      <point x="354" y="1120"/>
      <point x="344" y="1122"/>
      <point x="338" y="1122" type="curve" smooth="yes"/>
      <point x="106" y="1122" type="line" smooth="yes"/>
      <point x="96" y="1122"/>
      <point x="85" y="1120"/>
      <point x="73" y="1120" type="curve" smooth="yes"/>
      <point x="55" y="1120"/>
      <point x="51" y="1137"/>
      <point x="51" y="1153" type="curve" smooth="yes"/>
      <point x="51" y="1167"/>
      <point x="61" y="1178"/>
      <point x="73" y="1178" type="curve" smooth="yes"/>
      <point x="167" y="1178"/>
      <point x="258" y="1176"/>
      <point x="350" y="1176" type="curve"/>
      <point x="354" y="1180" type="line"/>
      <point x="334" y="1217"/>
      <point x="205" y="1483"/>
      <point x="205" y="1503" type="curve" smooth="yes"/>
      <point x="205" y="1519"/>
      <point x="223" y="1526"/>
      <point x="237" y="1526" type="curve" smooth="yes"/>
      <point x="270" y="1526"/>
      <point x="348" y="1243"/>
      <point x="395" y="1212" type="curve"/>
      <point x="422" y="1261"/>
      <point x="495" y="1544"/>
      <point x="542" y="1544" type="curve" smooth="yes"/>
      <point x="556" y="1544"/>
      <point x="575" y="1527"/>
      <point x="575" y="1513" type="curve" smooth="yes"/>
      <point x="575" y="1495"/>
      <point x="559" y="1474"/>
      <point x="549" y="1458" type="curve" smooth="yes"/>
      <point x="504" y="1370"/>
      <point x="485" y="1270"/>
      <point x="444" y="1178" type="curve"/>
      <point x="446" y="1176" type="line"/>
      <point x="487" y="1170"/>
      <point x="528" y="1167"/>
      <point x="569" y="1167" type="curve" smooth="yes"/>
      <point x="626" y="1167"/>
      <point x="688" y="1178"/>
      <point x="745" y="1178" type="curve" smooth="yes"/>
      <point x="765" y="1178"/>
      <point x="784" y="1157"/>
      <point x="784" y="1139" type="curve" smooth="yes"/>
      <point x="784" y="1112"/>
      <point x="760" y="1110"/>
      <point x="737" y="1110" type="curve" smooth="yes"/>
      <point x="657" y="1110"/>
      <point x="584" y="1120"/>
    </contour>
  </outline>
</glyph>
<glyph name="plus" format="1">
  <advance width="820"/>
  <unicode hex="002B"/>
  <outline>
    <contour>
      <point x="362" y="385" type="curve" smooth="yes"/>
      <point x="362" y="449" type="line" smooth="yes"/>
      <point x="362" y="484"/>
      <point x="366" y="518"/>
      <point x="366" y="555" type="curve" smooth="yes"/>
      <point x="366" y="606"/>
      <point x="367" y="623"/>
      <point x="297" y="623" type="curve" smooth="yes"/>
      <point x="266" y="623"/>
      <point x="238" y="612"/>
      <point x="207" y="612" type="curve" smooth="yes"/>
      <point x="176" y="612"/>
      <point x="147" y="620"/>
      <point x="147" y="655" type="curve" smooth="yes"/>
      <point x="147" y="673"/>
      <point x="150" y="684"/>
      <point x="170" y="684" type="curve" smooth="yes"/>
      <point x="207" y="684"/>
      <point x="241" y="678"/>
      <point x="278" y="678" type="curve" smooth="yes"/>
      <point x="290" y="678"/>
      <point x="362" y="678"/>
      <point x="362" y="694" type="curve" smooth="yes"/>
      <point x="362" y="762"/>
      <point x="352" y="831"/>
      <point x="352" y="899" type="curve" smooth="yes"/>
      <point x="352" y="930"/>
      <point x="360" y="944"/>
      <point x="393" y="944" type="curve" smooth="yes"/>
      <point x="416" y="944"/>
      <point x="430" y="932"/>
      <point x="430" y="909" type="curve"/>
      <point x="422" y="889" type="line"/>
      <point x="422" y="836"/>
      <point x="430" y="780"/>
      <point x="430" y="727" type="curve" smooth="yes"/>
      <point x="430" y="686"/>
      <point x="450" y="678"/>
      <point x="487" y="678" type="curve" smooth="yes"/>
      <point x="528" y="678"/>
      <point x="569" y="684"/>
      <point x="610" y="684" type="curve" smooth="yes"/>
      <point x="635" y="684"/>
      <point x="674" y="680"/>
      <point x="674" y="647" type="curve" smooth="yes"/>
      <point x="674" y="624"/>
      <point x="659" y="614"/>
      <point x="639" y="614" type="curve" smooth="yes"/>
      <point x="598" y="614"/>
      <point x="557" y="621"/>
      <point x="514" y="621" type="curve" smooth="yes"/>
      <point x="504" y="621" type="line" smooth="yes"/>
      <point x="450" y="621"/>
      <point x="430" y="619"/>
      <point x="430" y="553" type="curve" smooth="yes"/>
      <point x="430" y="483"/>
      <point x="448" y="446"/>
      <point x="448" y="389" type="curve" smooth="yes"/>
      <point x="448" y="366"/>
      <point x="425" y="356"/>
      <point x="405" y="356" type="curve" smooth="yes"/>
      <point x="391" y="356"/>
      <point x="362" y="369"/>
    </contour>
  </outline>
</glyph>
<glyph name="comma" format="1">
  <advance width="560"/>
  <unicode hex="002C"/>
  <outline>
    <contour>
      <point x="167" y="-143" type="curve" smooth="yes"/>
      <point x="208" y="-104"/>
      <point x="274" y="-57"/>
      <point x="274" y="6" type="curve"/>
      <point x="228" y="16"/>
      <point x="215" y="48"/>
      <point x="215" y="96" type="curve" smooth="yes"/>
      <point x="215" y="146"/>
      <point x="257" y="160"/>
      <point x="292" y="160" type="curve" smooth="yes"/>
      <point x="331" y="160"/>
      <point x="382" y="151"/>
      <point x="382" y="78" type="curve" smooth="yes"/>
      <point x="382" y="12"/>
      <point x="308" y="-110"/>
      <point x="218" y="-170" type="curve" smooth="yes"/>
      <point x="208" y="-176"/>
      <point x="198" y="-179"/>
      <point x="190" y="-179" type="curve" smooth="yes"/>
      <point x="174" y="-179"/>
      <point x="164" y="-169"/>
      <point x="164" y="-156" type="curve" smooth="yes"/>
      <point x="164" y="-152"/>
      <point x="165" y="-147"/>
    </contour>
  </outline>
</glyph>
<glyph name="hyphen" format="1">
  <advance width="720"/>
  <unicode hex="002D"/>
  <outline>
    <contour>
      <point x="550" y="739" type="curve" smooth="yes"/>
      <point x="550" y="708"/>
      <point x="290" y="680"/>
      <point x="198" y="680" type="curve" smooth="yes"/>
      <point x="180" y="680"/>
      <point x="155" y="692"/>
      <point x="155" y="715" type="curve" smooth="yes"/>
      <point x="155" y="746"/>
      <point x="421" y="774"/>
      <point x="505" y="774" type="curve" smooth="yes"/>
      <point x="523" y="774"/>
      <point x="550" y="759"/>
    </contour>
  </outline>
</glyph>
<glyph name="period" format="1">
  <advance width="520"/>
  <unicode hex="002E"/>
  <outline>
    <contour>
      <point x="203" y="41" type="curve" smooth="yes"/>
      <point x="203" y="68"/>
      <point x="229" y="96"/>
      <point x="256" y="96" type="curve" smooth="yes"/>
      <point x="281" y="96"/>
      <point x="305" y="66"/>
      <point x="305" y="43" type="curve" smooth="yes"/>
      <point x="305" y="6"/>
      <point x="281" y="-8"/>
      <point x="248" y="-8" type="curve" smooth="yes"/>
      <point x="223" y="-8"/>
      <point x="203" y="18"/>
    </contour>
  </outline>
</glyph>
<glyph name="slash" format="1">
  <advance width="680"/>
  <unicode hex="002F"/>
  <outline>
    <contour>
      <point x="548" y="1505" type="curve" smooth="yes"/>
      <point x="548" y="1489"/>
      <point x="511" y="1337"/>
      <point x="507" y="1317" type="curve" smooth="yes"/>
      <point x="433" y="977"/>
      <point x="354" y="641"/>
      <point x="276" y="299" type="curve" smooth="yes"/>
      <point x="235" y="121" type="line" smooth="yes"/>
      <point x="225" y="78"/>
      <point x="218" y="-2"/>
      <point x="175" y="-6" type="curve"/>
      <point x="163" y="2"/>
      <point x="155" y="17"/>
      <point x="155" y="31" type="curve" smooth="yes"/>
      <point x="155" y="129"/>
      <point x="200" y="268"/>
      <point x="227" y="387" type="curve" smooth="yes"/>
      <point x="307" y="741"/>
      <point x="391" y="1096"/>
      <point x="483" y="1448" type="curve" smooth="yes"/>
      <point x="487" y="1460"/>
      <point x="502" y="1532"/>
      <point x="518" y="1532" type="curve" smooth="yes"/>
      <point x="534" y="1532"/>
      <point x="548" y="1523"/>
    </contour>
  </outline>
</glyph>
<glyph name="zero" format="1">
  <advance width="800"/>
  <unicode hex="0030"/>
  <outline>
    <contour>
      <point x="320" y="1498" type="curve" smooth="yes"/>
      <point x="246" y="1498"/>
      <point x="233" y="1455"/>
      <point x="233" y="1396" type="curve" smooth="yes"/>
      <point x="233" y="1375"/>
      <point x="234" y="1353"/>
      <point x="234" y="1329" type="curve" smooth="yes"/>
      <point x="234" y="1202"/>
      <point x="243" y="1073"/>
      <point x="243" y="946" type="curve" smooth="yes"/>
      <point x="243" y="746" type="line" smooth="yes"/>
      <point x="243" y="588"/>
      <point x="267" y="33"/>
      <point x="427" y="33" type="curve" smooth="yes"/>
      <point x="548" y="33"/>
      <point x="552" y="386"/>
      <point x="552" y="474" type="curve" smooth="yes"/>
      <point x="552" y="605"/>
      <point x="528" y="915"/>
      <point x="528" y="1041" type="curve" smooth="yes"/>
      <point x="528" y="1079"/>
      <point x="523" y="1498"/>
    </contour>
    <contour>
      <point x="409" y="-14" type="curve" smooth="yes"/>
      <point x="399" y="-14"/>
      <point x="353" y="4"/>
      <point x="343" y="12" type="curve" smooth="yes"/>
      <point x="203" y="118"/>
      <point x="187" y="567"/>
      <point x="187" y="1036" type="curve" smooth="yes"/>
      <point x="187" y="1145"/>
      <point x="189" y="1255"/>
      <point x="189" y="1364" type="curve" smooth="yes"/>
      <point x="189" y="1453"/>
      <point x="190" y="1542"/>
      <point x="335" y="1542" type="curve" smooth="yes"/>
      <point x="492" y="1542"/>
      <point x="541" y="1358"/>
      <point x="559" y="1215" type="curve" smooth="yes"/>
      <point x="590" y="986"/>
      <point x="605" y="723"/>
      <point x="605" y="492" type="curve" smooth="yes"/>
      <point x="605" y="259"/>
      <point x="595" y="-14"/>
    </contour>
  </outline>
</glyph>
<glyph name="five" format="1">
  <advance width="740"/>
  <unicode hex="0035"/>
  <outline>
    <contour>
      <point x="219" y="1337" type="line"/>
      <point x="217" y="1337"/>
      <point x="217" y="1337"/>
      <point x="217" y="1335" type="curve"/>
    </contour>
    <contour>
      <point x="397" y="-20" type="curve"/>
      <point x="381" y="-20" type="line" smooth="yes"/>
      <point x="353" y="-20"/>
      <point x="280" y="-19"/>
      <point x="280" y="12" type="curve" smooth="yes"/>
      <point x="280" y="32"/>
      <point x="305" y="35"/>
      <point x="319" y="35" type="curve" smooth="yes"/>
      <point x="337" y="35"/>
      <point x="354" y="18"/>
      <point x="372" y="18" type="curve" smooth="yes"/>
      <point x="462" y="18"/>
      <point x="501" y="260"/>
      <point x="501" y="328" type="curve" smooth="yes"/>
      <point x="501" y="430"/>
      <point x="489" y="952"/>
      <point x="352" y="952" type="curve" smooth="yes"/>
      <point x="305" y="952" type="line"/>
      <point x="296" y="946" type="line"/>
      <point x="294" y="946"/>
      <point x="292" y="948"/>
      <point x="290" y="948" type="curve" smooth="yes"/>
      <point x="276" y="948"/>
      <point x="257" y="930"/>
      <point x="245" y="930" type="curve" smooth="yes"/>
      <point x="186" y="930"/>
      <point x="200" y="987"/>
      <point x="194" y="1026" type="curve"/>
      <point x="200" y="1061"/>
      <point x="204" y="1095"/>
      <point x="204" y="1130" type="curve" smooth="yes"/>
      <point x="204" y="1275"/>
      <point x="159" y="1420"/>
      <point x="155" y="1565" type="curve"/>
      <point x="176" y="1585" type="line"/>
      <point x="333" y="1587" type="line"/>
      <point x="337" y="1587" type="line" smooth="yes"/>
      <point x="358" y="1587"/>
      <point x="395" y="1586"/>
      <point x="395" y="1559" type="curve"/>
      <point x="372" y="1540" type="line"/>
      <point x="329" y="1540" type="line"/>
      <point x="323" y="1536" type="line"/>
      <point x="241" y="1546" type="line"/>
      <point x="227" y="1542" type="line"/>
      <point x="219" y="1544" type="line"/>
      <point x="219" y="1478"/>
      <point x="229" y="1413"/>
      <point x="233" y="1350" type="curve" smooth="yes"/>
      <point x="241" y="1235"/>
      <point x="250" y="1121"/>
      <point x="260" y="1006" type="curve"/>
      <point x="258" y="1006"/>
      <point x="257" y="1004"/>
      <point x="257" y="1004" type="curve"/>
      <point x="257" y="1000"/>
      <point x="397" y="994"/>
      <point x="434" y="967" type="curve" smooth="yes"/>
      <point x="522" y="901"/>
      <point x="552" y="547"/>
      <point x="552" y="438" type="curve" smooth="yes"/>
      <point x="552" y="286"/>
      <point x="551" y="62"/>
    </contour>
  </outline>
</glyph>
<glyph name="six" format="1">
  <advance width="700"/>
  <unicode hex="0036"/>
  <outline>
    <contour>
      <point x="233" y="758" type="curve" smooth="yes"/>
      <point x="233" y="728" type="line" smooth="yes"/>
      <point x="233" y="539"/>
      <point x="251" y="353"/>
      <point x="284" y="166" type="curve" smooth="yes"/>
      <point x="294" y="100"/>
      <point x="290" y="12"/>
      <point x="386" y="12" type="curve" smooth="yes"/>
      <point x="460" y="12"/>
      <point x="462" y="123"/>
      <point x="462" y="174" type="curve" smooth="yes"/>
      <point x="462" y="291"/>
      <point x="454" y="868"/>
      <point x="294" y="868" type="curve"/>
      <point x="253" y="841"/>
      <point x="233" y="807"/>
    </contour>
    <contour>
      <point x="370" y="-29" type="curve" smooth="yes"/>
      <point x="202" y="-29"/>
      <point x="226" y="258"/>
      <point x="210" y="369" type="curve" smooth="yes"/>
      <point x="190" y="514"/>
      <point x="179" y="660"/>
      <point x="179" y="807" type="curve" smooth="yes"/>
      <point x="179" y="816" type="line" smooth="yes"/>
      <point x="179" y="969"/>
      <point x="181" y="1569"/>
      <point x="376" y="1569" type="curve" smooth="yes"/>
      <point x="384" y="1569"/>
      <point x="401" y="1560"/>
      <point x="401" y="1550" type="curve" smooth="yes"/>
      <point x="401" y="1521"/>
      <point x="349" y="1513"/>
      <point x="331" y="1497" type="curve" smooth="yes"/>
      <point x="257" y="1438"/>
      <point x="235" y="1003"/>
      <point x="233" y="897" type="curve"/>
      <point x="245" y="905"/>
      <point x="264" y="913"/>
      <point x="278" y="913" type="curve" smooth="yes"/>
      <point x="509" y="913"/>
      <point x="511" y="334"/>
      <point x="511" y="170" type="curve" smooth="yes"/>
      <point x="511" y="70"/>
      <point x="495" y="-29"/>
    </contour>
  </outline>
</glyph>
<glyph name="colon" format="1">
  <advance width="520"/>
  <unicode hex="003A"/>
  <outline>
    <contour>
      <point x="215" y="1024" type="curve" smooth="yes"/>
      <point x="215" y="1051"/>
      <point x="241" y="1079"/>
      <point x="268" y="1079" type="curve" smooth="yes"/>
      <point x="293" y="1079"/>
      <point x="318" y="1049"/>
      <point x="318" y="1026" type="curve" smooth="yes"/>
      <point x="318" y="989"/>
      <point x="293" y="975"/>
      <point x="260" y="975" type="curve" smooth="yes"/>
      <point x="235" y="975"/>
      <point x="215" y="1001"/>
    </contour>
    <contour>
      <point x="195" y="250" type="curve" smooth="yes"/>
      <point x="195" y="277"/>
      <point x="221" y="305"/>
      <point x="248" y="305" type="curve" smooth="yes"/>
      <point x="273" y="305"/>
      <point x="297" y="275"/>
      <point x="297" y="252" type="curve" smooth="yes"/>
      <point x="297" y="215"/>
      <point x="273" y="201"/>
      <point x="240" y="201" type="curve" smooth="yes"/>
      <point x="215" y="201"/>
      <point x="195" y="227"/>
    </contour>
  </outline>
</glyph>
<glyph name="semicolon" format="1">
  <advance width="560"/>
  <unicode hex="003B"/>
  <outline>
    <contour>
      <point x="179" y="14" type="line"/>
      <point x="183" y="33" type="line"/>
      <point x="224" y="72"/>
      <point x="290" y="119"/>
      <point x="290" y="182" type="curve"/>
      <point x="259" y="200"/>
      <point x="230" y="235"/>
      <point x="230" y="272" type="curve" smooth="yes"/>
      <point x="230" y="311"/>
      <point x="273" y="336"/>
      <point x="308" y="336" type="curve" smooth="yes"/>
      <point x="349" y="336"/>
      <point x="376" y="297"/>
      <point x="376" y="258" type="curve" smooth="yes"/>
      <point x="376" y="186"/>
      <point x="294" y="0"/>
      <point x="212" y="-2" type="curve"/>
    </contour>
    <contour>
      <point x="265" y="1024" type="curve" smooth="yes"/>
      <point x="265" y="1051"/>
      <point x="291" y="1079"/>
      <point x="318" y="1079" type="curve" smooth="yes"/>
      <point x="343" y="1079"/>
      <point x="368" y="1049"/>
      <point x="368" y="1026" type="curve" smooth="yes"/>
      <point x="368" y="989"/>
      <point x="343" y="975"/>
      <point x="310" y="975" type="curve" smooth="yes"/>
      <point x="285" y="975"/>
      <point x="265" y="1001"/>
    </contour>
  </outline>
</glyph>
<glyph name="E" format="1">
  <advance width="620"/>
  <unicode hex="0045"/>
  <outline>
    <contour>
      <point x="326" y="1536" type="move" name="top"/>
    </contour>
    <contour>
      <point x="192" y="33" type="curve" smooth="yes"/>
      <point x="192" y="60"/>
      <point x="191" y="82"/>
      <point x="191" y="109" type="curve" smooth="yes"/>
      <point x="191" y="113" type="line"/>
      <point x="193" y="412" type="line"/>
      <point x="191" y="1257" type="line" smooth="yes"/>
      <point x="191" y="1329"/>
      <point x="189" y="1413"/>
      <point x="187" y="1485" type="curve" smooth="yes"/>
      <point x="187" y="1514"/>
      <point x="199" y="1542"/>
      <point x="224" y="1542" type="curve" smooth="yes"/>
      <point x="351" y="1542" type="line" smooth="yes"/>
      <point x="380" y="1542"/>
      <point x="414" y="1542"/>
      <point x="414" y="1503" type="curve" smooth="yes"/>
      <point x="414" y="1464"/>
      <point x="369" y="1464"/>
      <point x="340" y="1464" type="curve" smooth="yes"/>
      <point x="322" y="1464"/>
      <point x="292" y="1468"/>
      <point x="274" y="1468" type="curve" smooth="yes"/>
      <point x="258" y="1468"/>
      <point x="250" y="1467"/>
      <point x="250" y="1444" type="curve" smooth="yes"/>
      <point x="250" y="1327"/>
      <point x="251" y="1213"/>
      <point x="251" y="1096" type="curve" smooth="yes"/>
      <point x="251" y="840" type="line" smooth="yes"/>
      <point x="251" y="834"/>
      <point x="253" y="836"/>
      <point x="259" y="836" type="curve" smooth="yes"/>
      <point x="298" y="838"/>
      <point x="331" y="840"/>
      <point x="370" y="840" type="curve" smooth="yes"/>
      <point x="396" y="840"/>
      <point x="404" y="826"/>
      <point x="404" y="810" type="curve" smooth="yes"/>
      <point x="404" y="785"/>
      <point x="396" y="776"/>
      <point x="373" y="776" type="curve" smooth="yes"/>
      <point x="256" y="776" type="line" smooth="yes"/>
      <point x="251" y="776"/>
      <point x="248" y="775"/>
      <point x="248" y="766" type="curve" smooth="yes"/>
      <point x="248" y="571"/>
      <point x="256" y="358"/>
      <point x="256" y="137" type="curve" smooth="yes"/>
      <point x="256" y="61" type="line"/>
      <point x="297" y="61"/>
      <point x="389" y="62"/>
      <point x="430" y="62" type="curve" smooth="yes"/>
      <point x="448" y="62" type="line" smooth="yes"/>
      <point x="466" y="62"/>
      <point x="486" y="59"/>
      <point x="486" y="35" type="curve" smooth="yes"/>
      <point x="486" y="-9"/>
      <point x="471" y="-12"/>
      <point x="367" y="-12" type="curve" smooth="yes"/>
      <point x="280" y="-12" type="line" smooth="yes"/>
      <point x="232" y="-12"/>
      <point x="192" y="-9"/>
    </contour>
  </outline>
</glyph>
<glyph name="H" format="1">
  <advance width="740"/>
  <unicode hex="0048"/>
  <outline>
    <contour>
      <point x="356" y="1536" type="move" name="top"/>
    </contour>
    <contour>
      <point x="524" y="-20" type="curve" smooth="yes"/>
      <point x="497" y="-20"/>
      <point x="495" y="-6"/>
      <point x="495" y="12" type="curve" smooth="yes"/>
      <point x="495" y="28"/>
      <point x="497" y="43"/>
      <point x="497" y="59" type="curve" smooth="yes"/>
      <point x="497" y="292"/>
      <point x="489" y="538"/>
      <point x="477" y="771" type="curve"/>
      <point x="464" y="771" type="line" smooth="yes"/>
      <point x="439" y="771"/>
      <point x="411" y="770"/>
      <point x="386" y="770" type="curve" smooth="yes"/>
      <point x="337" y="770"/>
      <point x="266" y="769"/>
      <point x="241" y="763" type="curve"/>
      <point x="241" y="525"/>
      <point x="276" y="261"/>
      <point x="276" y="23" type="curve" smooth="yes"/>
      <point x="276" y="7"/>
      <point x="275" y="-8"/>
      <point x="255" y="-8" type="curve" smooth="yes"/>
      <point x="237" y="-8"/>
      <point x="223" y="1"/>
      <point x="223" y="20" type="curve" smooth="yes"/>
      <point x="223" y="66"/>
      <point x="208" y="494"/>
      <point x="200" y="598" type="curve" smooth="yes"/>
      <point x="177" y="909"/>
      <point x="163" y="1221"/>
      <point x="163" y="1532" type="curve" smooth="yes"/>
      <point x="163" y="1546"/>
      <point x="176" y="1553"/>
      <point x="189" y="1553" type="curve" smooth="yes"/>
      <point x="202" y="1553"/>
      <point x="216" y="1545"/>
      <point x="214" y="1526" type="curve"/>
      <point x="214" y="1374" type="line" smooth="yes"/>
      <point x="214" y="1235"/>
      <point x="231" y="1097"/>
      <point x="231" y="958" type="curve" smooth="yes"/>
      <point x="231" y="858" type="line" smooth="yes"/>
      <point x="231" y="833"/>
      <point x="233" y="805"/>
      <point x="242" y="805" type="curve" smooth="yes"/>
      <point x="322" y="805"/>
      <point x="397" y="821"/>
      <point x="477" y="821" type="curve"/>
      <point x="479" y="825" type="line"/>
      <point x="479" y="1056"/>
      <point x="460" y="1289"/>
      <point x="460" y="1520" type="curve" smooth="yes"/>
      <point x="460" y="1537"/>
      <point x="473" y="1545"/>
      <point x="487" y="1545" type="curve" smooth="yes"/>
      <point x="504" y="1545"/>
      <point x="522" y="1535"/>
      <point x="522" y="1518" type="curve" smooth="yes"/>
      <point x="522" y="885"/>
      <point x="552" y="293"/>
      <point x="552" y="49" type="curve" smooth="yes"/>
      <point x="552" y="20" type="line" smooth="yes"/>
      <point x="552" y="4"/>
      <point x="544" y="-20"/>
    </contour>
  </outline>
</glyph>
<glyph name="I" format="1">
  <advance width="660"/>
  <unicode hex="0049"/>
  <outline>
    <contour>
      <point x="296" y="1536" type="move" name="top"/>
    </contour>
    <contour>
      <point x="289" y="70" type="line"/>
      <point x="289" y="429"/>
      <point x="268" y="765"/>
      <point x="259" y="1114" type="curve" smooth="yes"/>
      <point x="259" y="1159"/>
      <point x="261" y="1266"/>
      <point x="261" y="1354" type="curve" smooth="yes"/>
      <point x="261" y="1407"/>
      <point x="261" y="1464"/>
      <point x="255" y="1484" type="curve"/>
      <point x="185" y="1484" type="line" smooth="yes"/>
      <point x="167" y="1484"/>
      <point x="163" y="1499"/>
      <point x="163" y="1513" type="curve" smooth="yes"/>
      <point x="163" y="1543"/>
      <point x="177" y="1548"/>
      <point x="256" y="1548" type="curve" smooth="yes"/>
      <point x="289" y="1548"/>
      <point x="333" y="1547"/>
      <point x="392" y="1547" type="curve" smooth="yes"/>
      <point x="410" y="1547"/>
      <point x="429" y="1538"/>
      <point x="429" y="1518" type="curve" smooth="yes"/>
      <point x="429" y="1504"/>
      <point x="422" y="1485"/>
      <point x="404" y="1485" type="curve" smooth="yes"/>
      <point x="386" y="1485"/>
      <point x="369" y="1487"/>
      <point x="355" y="1487" type="curve" smooth="yes"/>
      <point x="322" y="1487"/>
      <point x="306" y="1487"/>
      <point x="306" y="1474" type="curve" smooth="yes"/>
      <point x="306" y="1083"/>
      <point x="357" y="577"/>
      <point x="357" y="184" type="curve" smooth="yes"/>
      <point x="357" y="149"/>
      <point x="355" y="106"/>
      <point x="355" y="71" type="curve"/>
      <point x="429" y="71" type="line" smooth="yes"/>
      <point x="463" y="71"/>
      <point x="475" y="57"/>
      <point x="475" y="42" type="curve" smooth="yes"/>
      <point x="475" y="26"/>
      <point x="461" y="8"/>
      <point x="447" y="8" type="curve" smooth="yes"/>
      <point x="361" y="8"/>
      <point x="311" y="10"/>
      <point x="211" y="10" type="curve" smooth="yes"/>
      <point x="189" y="10"/>
      <point x="175" y="28"/>
      <point x="175" y="44" type="curve" smooth="yes"/>
      <point x="175" y="58"/>
      <point x="185" y="70"/>
      <point x="209" y="70" type="curve" smooth="yes"/>
    </contour>
  </outline>
</glyph>
<glyph name="L" format="1">
  <advance width="580"/>
  <unicode hex="004C"/>
  <outline>
    <contour>
      <point x="326" y="1536" type="move" name="top"/>
    </contour>
    <contour>
      <point x="221" y="839" type="move" name="slash"/>
    </contour>
    <contour>
      <point x="211" y="31" type="curve" smooth="yes"/>
      <point x="211" y="49"/>
      <point x="212" y="72"/>
      <point x="212" y="113" type="curve" smooth="yes"/>
      <point x="212" y="306"/>
      <point x="192" y="499"/>
      <point x="192" y="694" type="curve" smooth="yes"/>
      <point x="192" y="979"/>
      <point x="171" y="1265"/>
      <point x="171" y="1550" type="curve" smooth="yes"/>
      <point x="171" y="1566"/>
      <point x="187" y="1574"/>
      <point x="201" y="1574" type="curve" smooth="yes"/>
      <point x="224" y="1574"/>
      <point x="237" y="1568"/>
      <point x="237" y="1545" type="curve" smooth="yes"/>
      <point x="237" y="1359"/>
      <point x="237" y="1163"/>
      <point x="245" y="977" type="curve"/>
      <point x="255" y="610" type="line"/>
      <point x="255" y="454"/>
      <point x="274" y="231"/>
      <point x="278" y="75" type="curve" smooth="yes"/>
      <point x="278" y="68"/>
      <point x="283" y="68"/>
      <point x="312" y="68" type="curve" smooth="yes"/>
      <point x="438" y="68" type="line" smooth="yes"/>
      <point x="461" y="68"/>
      <point x="466" y="49"/>
      <point x="466" y="31" type="curve" smooth="yes"/>
      <point x="466" y="15"/>
      <point x="459" y="-9"/>
      <point x="441" y="-9" type="curve" smooth="yes"/>
      <point x="433" y="-9"/>
      <point x="422" y="-11"/>
      <point x="410" y="-11" type="curve" smooth="yes"/>
      <point x="346" y="-12"/>
      <point x="260" y="-12"/>
      <point x="245" y="-12" type="curve" smooth="yes"/>
      <point x="225" y="-12"/>
      <point x="211" y="8"/>
    </contour>
  </outline>
</glyph>
<glyph name="R" format="1">
  <advance width="700"/>
  <unicode hex="0052"/>
  <outline>
    <contour>
      <point x="306" y="1536" type="move" name="top"/>
    </contour>
    <contour>
      <point x="254" y="1491" type="curve"/>
      <point x="254" y="913" type="line"/>
      <point x="283" y="913"/>
      <point x="350" y="994"/>
      <point x="364" y="1018" type="curve" smooth="yes"/>
      <point x="387" y="1061"/>
      <point x="398" y="1157"/>
      <point x="398" y="1206" type="curve" smooth="yes"/>
      <point x="398" y="1287"/>
      <point x="368" y="1492"/>
      <point x="264" y="1492" type="curve" smooth="yes"/>
      <point x="261" y="1492"/>
      <point x="257" y="1491"/>
    </contour>
    <contour>
      <point x="505" y="20" type="curve" smooth="yes"/>
      <point x="495" y="62"/>
      <point x="425" y="295"/>
      <point x="396" y="432" type="curve" smooth="yes"/>
      <point x="365" y="571"/>
      <point x="340" y="733"/>
      <point x="303" y="870" type="curve"/>
      <point x="294" y="866"/>
      <point x="267" y="848"/>
      <point x="255" y="846" type="curve"/>
      <point x="259" y="57" type="line"/>
      <point x="259" y="27" type="line" smooth="yes"/>
      <point x="259" y="2"/>
      <point x="251" y="-14"/>
      <point x="222" y="-14" type="curve" smooth="yes"/>
      <point x="202" y="-14"/>
      <point x="187" y="0"/>
      <point x="187" y="20" type="curve" smooth="yes"/>
      <point x="187" y="51" type="line" smooth="yes"/>
      <point x="187" y="465"/>
      <point x="202" y="860"/>
      <point x="202" y="1274" type="curve" smooth="yes"/>
      <point x="202" y="1538" type="line" smooth="yes"/>
      <point x="202" y="1554"/>
      <point x="225" y="1556"/>
      <point x="239" y="1556" type="curve" smooth="yes"/>
      <point x="395" y="1556"/>
      <point x="466" y="1383"/>
      <point x="466" y="1231" type="curve" smooth="yes"/>
      <point x="466" y="1161"/>
      <point x="450" y="1092"/>
      <point x="425" y="1026" type="curve" smooth="yes"/>
      <point x="417" y="1001"/>
      <point x="385" y="926"/>
      <point x="363" y="902" type="curve"/>
      <point x="378" y="846"/>
      <point x="557" y="147"/>
      <point x="583" y="47" type="curve" smooth="yes"/>
      <point x="585" y="40"/>
      <point x="586" y="32"/>
      <point x="586" y="24" type="curve" smooth="yes"/>
      <point x="586" y="1"/>
      <point x="576" y="-20"/>
      <point x="556" y="-20" type="curve" smooth="yes"/>
      <point x="531" y="-20"/>
      <point x="513" y="-8"/>
    </contour>
  </outline>
</glyph>
<glyph name="S" format="1">
  <advance width="700"/>
  <unicode hex="0053"/>
  <outline>
    <contour>
      <point x="366" y="1536" type="move" name="top"/>
    </contour>
    <contour>
      <point x="376" y="1573" type="curve" smooth="yes"/>
      <point x="399" y="1573"/>
      <point x="471" y="1546"/>
      <point x="471" y="1515" type="curve" smooth="yes"/>
      <point x="471" y="1505"/>
      <point x="464" y="1499"/>
      <point x="458" y="1499" type="curve" smooth="yes"/>
      <point x="431" y="1499"/>
      <point x="419" y="1520"/>
      <point x="391" y="1520" type="curve" smooth="yes"/>
      <point x="287" y="1520"/>
      <point x="241" y="1391"/>
      <point x="241" y="1305" type="curve" smooth="yes"/>
      <point x="241" y="946"/>
      <point x="538" y="725"/>
      <point x="538" y="330" type="curve" smooth="yes"/>
      <point x="538" y="183"/>
      <point x="460" y="-45"/>
      <point x="282" y="-45" type="curve" smooth="yes"/>
      <point x="233" y="-45"/>
      <point x="174" y="-43"/>
      <point x="147" y="6" type="curve"/>
      <point x="147" y="20"/>
      <point x="151" y="31"/>
      <point x="169" y="31" type="curve" smooth="yes"/>
      <point x="210" y="31"/>
      <point x="243" y="0"/>
      <point x="282" y="0" type="curve" smooth="yes"/>
      <point x="417" y="0"/>
      <point x="464" y="238"/>
      <point x="464" y="340" type="curve" smooth="yes"/>
      <point x="464" y="721"/>
      <point x="171" y="926"/>
      <point x="171" y="1288" type="curve" smooth="yes"/>
      <point x="171" y="1407"/>
      <point x="235" y="1573"/>
    </contour>
  </outline>
</glyph>
<glyph name="T" format="1">
  <advance width="720"/>
  <unicode hex="0054"/>
  <outline>
    <contour>
      <point x="376" y="1536" type="move" name="top"/>
    </contour>
    <contour>
      <point x="340" y="40" type="curve" smooth="yes"/>
      <point x="341" y="96"/>
      <point x="341" y="160"/>
      <point x="341" y="223" type="curve" smooth="yes"/>
      <point x="341" y="406" type="line" smooth="yes"/>
      <point x="341" y="623"/>
      <point x="331" y="842"/>
      <point x="331" y="1061" type="curve" smooth="yes"/>
      <point x="331" y="1104"/>
      <point x="333" y="1112"/>
      <point x="333" y="1253" type="curve" smooth="yes"/>
      <point x="333" y="1351"/>
      <point x="329" y="1474"/>
      <point x="328" y="1474" type="curve" smooth="yes"/>
      <point x="97" y="1474" type="line" smooth="yes"/>
      <point x="79" y="1474"/>
      <point x="54" y="1482"/>
      <point x="54" y="1505" type="curve" smooth="yes"/>
      <point x="54" y="1529"/>
      <point x="60" y="1544"/>
      <point x="175" y="1544" type="curve" smooth="yes"/>
      <point x="229" y="1544"/>
      <point x="524" y="1546"/>
      <point x="605" y="1546" type="curve" smooth="yes"/>
      <point x="643" y="1546"/>
      <point x="648" y="1531"/>
      <point x="648" y="1511" type="curve" smooth="yes"/>
      <point x="648" y="1486"/>
      <point x="632" y="1481"/>
      <point x="609" y="1481" type="curve" smooth="yes"/>
      <point x="586" y="1481"/>
      <point x="449" y="1480"/>
      <point x="426" y="1480" type="curve" smooth="yes"/>
      <point x="400" y="1480"/>
      <point x="409" y="1477"/>
      <point x="409" y="1478" type="curve"/>
      <point x="409" y="1440"/>
      <point x="410" y="1290"/>
      <point x="410" y="1200" type="curve" smooth="yes"/>
      <point x="410" y="368" type="line" smooth="yes"/>
      <point x="410" y="314"/>
      <point x="412" y="78"/>
      <point x="412" y="48" type="curve" smooth="yes"/>
      <point x="412" y="42" type="line" smooth="yes"/>
      <point x="412" y="13"/>
      <point x="411" y="-12"/>
      <point x="382" y="-12" type="curve" smooth="yes"/>
      <point x="351" y="-12"/>
      <point x="340" y="15"/>
    </contour>
  </outline>
</glyph>
<glyph name="V" format="1">
  <advance width="740"/>
  <unicode hex="0056"/>
  <outline>
    <contour>
      <point x="397" y="101" type="line"/>
      <point x="390" y="101" type="line"/>
      <point x="394" y="106" type="line"/>
    </contour>
    <contour>
      <point x="585" y="1276" type="curve" smooth="yes"/>
      <point x="596" y="1362"/>
      <point x="614" y="1444"/>
      <point x="614" y="1530" type="curve"/>
      <point x="593" y="1546" type="line"/>
      <point x="597" y="1546" type="line"/>
      <point x="585" y="1554" type="line"/>
      <point x="562" y="1554"/>
      <point x="548" y="1545"/>
      <point x="546" y="1516" type="curve" smooth="yes"/>
      <point x="541" y="1444"/>
      <point x="525" y="1370"/>
      <point x="517" y="1298" type="curve" smooth="yes"/>
      <point x="486" y="1011"/>
      <point x="464" y="781"/>
      <point x="431" y="494" type="curve" smooth="yes"/>
      <point x="423" y="431"/>
      <point x="409" y="260"/>
      <point x="394" y="112" type="curve"/>
      <point x="381" y="200"/>
      <point x="363" y="336"/>
      <point x="341" y="493" type="curve" smooth="yes"/>
      <point x="238" y="1197" type="line"/>
      <point x="222" y="1292"/>
      <point x="207" y="1382"/>
      <point x="192" y="1462" type="curve" smooth="yes"/>
      <point x="188" y="1487"/>
      <point x="184" y="1548"/>
      <point x="147" y="1548" type="curve" smooth="yes"/>
      <point x="132" y="1548"/>
      <point x="118" y="1530"/>
      <point x="118" y="1512" type="curve" smooth="yes"/>
      <point x="118" y="1426"/>
      <point x="172" y="1231"/>
      <point x="182" y="1174" type="curve"/>
      <point x="294" y="442" type="line" smooth="yes"/>
      <point x="317" y="292"/>
      <point x="339" y="137"/>
      <point x="376" y="-10" type="curve"/>
      <point x="384" y="-12"/>
      <point x="399" y="-18"/>
      <point x="407" y="-18" type="curve" smooth="yes"/>
      <point x="427" y="-18"/>
      <point x="440" y="11"/>
      <point x="446" y="27" type="curve"/>
      <point x="448" y="160"/>
      <point x="577" y="1212"/>
    </contour>
  </outline>
</glyph>
<glyph name="W" format="1">
  <advance width="960"/>
  <unicode hex="0057"/>
  <outline>
    <contour>
      <point x="476" y="1536" type="move" name="top"/>
    </contour>
    <contour>
      <point x="357" y="90" type="line"/>
      <point x="376" y="284"/>
      <point x="443" y="1030"/>
      <point x="459" y="1209" type="curve" smooth="yes"/>
      <point x="459" y="1211"/>
      <point x="461" y="1211"/>
      <point x="461" y="1213" type="curve"/>
      <point x="467" y="1209" type="line"/>
      <point x="496" y="971"/>
      <point x="580" y="322"/>
      <point x="615" y="86" type="curve" smooth="yes"/>
      <point x="623" y="33"/>
      <point x="609" y="-27"/>
      <point x="664" y="-27" type="curve" smooth="yes"/>
      <point x="697" y="-27"/>
      <point x="701" y="-4"/>
      <point x="701" y="23" type="curve" smooth="yes"/>
      <point x="701" y="46"/>
      <point x="743" y="384"/>
      <point x="752" y="496" type="curve"/>
      <point x="771" y="648"/>
      <point x="810" y="1138"/>
      <point x="849" y="1462" type="curve" smooth="yes"/>
      <point x="851" y="1476"/>
      <point x="857" y="1491"/>
      <point x="857" y="1507" type="curve" smooth="yes"/>
      <point x="857" y="1511"/>
      <point x="857" y="1516"/>
      <point x="855" y="1520" type="curve"/>
      <point x="865" y="1528"/>
      <point x="877" y="1545"/>
      <point x="877" y="1559" type="curve" smooth="yes"/>
      <point x="877" y="1577"/>
      <point x="854" y="1591"/>
      <point x="838" y="1591" type="curve" smooth="yes"/>
      <point x="793" y="1591"/>
      <point x="785" y="1571"/>
      <point x="785" y="1542" type="curve" smooth="yes"/>
      <point x="785" y="1530"/>
      <point x="787" y="1517"/>
      <point x="787" y="1503" type="curve" smooth="yes"/>
      <point x="787" y="1329"/>
      <point x="750" y="1155"/>
      <point x="740" y="981" type="curve"/>
      <point x="664" y="152" type="line"/>
      <point x="658" y="156" type="line"/>
      <point x="635" y="396"/>
      <point x="505" y="1236"/>
      <point x="488" y="1323" type="curve" smooth="yes"/>
      <point x="481" y="1354"/>
      <point x="486" y="1386"/>
      <point x="437" y="1386" type="curve"/>
      <point x="421" y="1378"/>
      <point x="424" y="1366"/>
      <point x="422" y="1346" type="curve" smooth="yes"/>
      <point x="419" y="1308"/>
      <point x="415" y="1238"/>
      <point x="410" y="1184" type="curve" smooth="yes"/>
      <point x="398" y="1069"/>
      <point x="370" y="953"/>
      <point x="362" y="838" type="curve" smooth="yes"/>
      <point x="348" y="673"/>
      <point x="329" y="282"/>
      <point x="316" y="179" type="curve"/>
      <point x="312" y="179" type="line"/>
      <point x="281" y="445"/>
      <point x="204" y="1166"/>
      <point x="179" y="1432" type="curve" smooth="yes"/>
      <point x="178" y="1440"/>
      <point x="178" y="1447"/>
      <point x="178" y="1454" type="curve" smooth="yes"/>
      <point x="178" y="1469"/>
      <point x="179" y="1481"/>
      <point x="179" y="1493" type="curve" smooth="yes"/>
      <point x="179" y="1522"/>
      <point x="172" y="1540"/>
      <point x="126" y="1540" type="curve" smooth="yes"/>
      <point x="110" y="1540"/>
      <point x="91" y="1527"/>
      <point x="83" y="1513" type="curve"/>
      <point x="114" y="1464"/>
      <point x="207" y="581"/>
      <point x="230" y="434" type="curve" smooth="yes"/>
      <point x="244" y="340"/>
      <point x="277" y="152"/>
      <point x="285" y="74" type="curve"/>
      <point x="285" y="64" type="line" smooth="yes"/>
      <point x="285" y="50"/>
      <point x="283" y="34"/>
      <point x="283" y="19" type="curve" smooth="yes"/>
      <point x="283" y="-6"/>
      <point x="289" y="-27"/>
      <point x="322" y="-27" type="curve" smooth="yes"/>
      <point x="354" y="-27"/>
      <point x="357" y="20"/>
      <point x="357" y="54" type="curve" smooth="yes"/>
    </contour>
  </outline>
</glyph>
<glyph name="X" format="1">
  <advance width="680"/>
  <unicode hex="0058"/>
  <outline>
    <contour>
      <point x="356" y="1536" type="move" name="top"/>
    </contour>
    <contour>
      <point x="139" y="12" type="curve" smooth="yes"/>
      <point x="139" y="39"/>
      <point x="167" y="135"/>
      <point x="177" y="170" type="curve" smooth="yes"/>
      <point x="212" y="301"/>
      <point x="245" y="434"/>
      <point x="272" y="565" type="curve" smooth="yes"/>
      <point x="288" y="645"/>
      <point x="311" y="739"/>
      <point x="311" y="821" type="curve" smooth="yes"/>
      <point x="311" y="979"/>
      <point x="260" y="1134"/>
      <point x="229" y="1288" type="curve" smooth="yes"/>
      <point x="215" y="1358"/>
      <point x="180" y="1423"/>
      <point x="178" y="1495" type="curve"/>
      <point x="184" y="1505"/>
      <point x="199" y="1522"/>
      <point x="211" y="1522" type="curve" smooth="yes"/>
      <point x="262" y="1522"/>
      <point x="248" y="1467"/>
      <point x="254" y="1434" type="curve" smooth="yes"/>
      <point x="279" y="1293"/>
      <point x="331" y="1067"/>
      <point x="354" y="922" type="curve"/>
      <point x="369" y="1032"/>
      <point x="411" y="1255"/>
      <point x="434" y="1380" type="curve" smooth="yes"/>
      <point x="440" y="1415"/>
      <point x="448" y="1552"/>
      <point x="495" y="1552" type="curve" smooth="yes"/>
      <point x="509" y="1552"/>
      <point x="532" y="1548"/>
      <point x="532" y="1530" type="curve" smooth="yes"/>
      <point x="532" y="1501"/>
      <point x="514" y="1475"/>
      <point x="506" y="1448" type="curve" smooth="yes"/>
      <point x="471" y="1327"/>
      <point x="447" y="1190"/>
      <point x="422" y="1061" type="curve" smooth="yes"/>
      <point x="406" y="979"/>
      <point x="381" y="869"/>
      <point x="381" y="791" type="curve"/>
      <point x="489" y="238" type="line"/>
      <point x="511" y="134" type="line"/>
      <point x="511" y="126"/>
      <point x="520" y="96"/>
      <point x="520" y="70" type="curve" smooth="yes"/>
      <point x="520" y="47"/>
      <point x="513" y="27"/>
      <point x="487" y="27" type="curve" smooth="yes"/>
      <point x="469" y="27"/>
      <point x="450" y="28"/>
      <point x="450" y="53" type="curve" smooth="yes"/>
      <point x="450" y="127"/>
      <point x="431" y="207"/>
      <point x="419" y="279" type="curve" smooth="yes"/>
      <point x="396" y="396"/>
      <point x="375" y="514"/>
      <point x="346" y="629" type="curve"/>
      <point x="332" y="606"/>
      <point x="233" y="131"/>
      <point x="221" y="61" type="curve" smooth="yes"/>
      <point x="215" y="24"/>
      <point x="215" y="-12"/>
      <point x="170" y="-12" type="curve" smooth="yes"/>
      <point x="160" y="-12"/>
      <point x="139" y="0"/>
    </contour>
  </outline>
</glyph>
<glyph name="Y" format="1">
  <advance width="620"/>
  <unicode hex="0059"/>
  <outline>
    <contour>
      <point x="326" y="1536" type="move" name="top"/>
    </contour>
    <contour>
      <point x="325" y="25" type="curve" smooth="yes"/>
      <point x="325" y="156"/>
      <point x="335" y="289"/>
      <point x="335" y="420" type="curve" smooth="yes"/>
      <point x="335" y="475"/>
      <point x="321" y="531"/>
      <point x="321" y="586" type="curve" smooth="yes"/>
      <point x="321" y="652"/>
      <point x="296" y="713"/>
      <point x="296" y="776" type="curve" smooth="yes"/>
      <point x="296" y="813"/>
      <point x="272" y="901"/>
      <point x="264" y="938" type="curve" smooth="yes"/>
      <point x="233" y="1088"/>
      <point x="208" y="1243"/>
      <point x="169" y="1380" type="curve" smooth="yes"/>
      <point x="157" y="1419"/>
      <point x="139" y="1472"/>
      <point x="139" y="1513" type="curve" smooth="yes"/>
      <point x="139" y="1536"/>
      <point x="162" y="1546"/>
      <point x="180" y="1546" type="curve"/>
      <point x="204" y="1530" type="line"/>
      <point x="210" y="1438"/>
      <point x="294" y="985"/>
      <point x="333" y="930" type="curve"/>
      <point x="349" y="992"/>
      <point x="376" y="1540"/>
      <point x="454" y="1540" type="curve" smooth="yes"/>
      <point x="472" y="1540"/>
      <point x="485" y="1541"/>
      <point x="485" y="1518" type="curve" smooth="yes"/>
      <point x="485" y="1489"/>
      <point x="472" y="1463"/>
      <point x="468" y="1434" type="curve" smooth="yes"/>
      <point x="435" y="1241"/>
      <point x="387" y="1030"/>
      <point x="387" y="829" type="curve" smooth="yes"/>
      <point x="387" y="806"/>
      <point x="393" y="785"/>
      <point x="393" y="762" type="curve"/>
      <point x="380" y="731" type="line"/>
      <point x="380" y="715" type="line" smooth="yes"/>
      <point x="380" y="633"/>
      <point x="395" y="551"/>
      <point x="395" y="469" type="curve" smooth="yes"/>
      <point x="395" y="332"/>
      <point x="395" y="192"/>
      <point x="391" y="55" type="curve"/>
      <point x="397" y="49" type="line"/>
      <point x="397" y="45"/>
      <point x="399" y="39"/>
      <point x="399" y="35" type="curve" smooth="yes"/>
      <point x="399" y="8"/>
      <point x="385" y="-25"/>
      <point x="354" y="-25" type="curve" smooth="yes"/>
      <point x="331" y="-25"/>
      <point x="325" y="9"/>
    </contour>
  </outline>
</glyph>
<glyph name="Z" format="1">
  <advance width="620"/>
  <unicode hex="005A"/>
  <outline>
    <contour>
      <point x="326" y="1536" type="move" name="top"/>
    </contour>
    <contour>
      <point x="155" y="8" type="curve"/>
      <point x="253" y="182"/>
      <point x="241" y="408"/>
      <point x="280" y="588" type="curve"/>
      <point x="311" y="813"/>
      <point x="343" y="1043"/>
      <point x="374" y="1268" type="curve" smooth="yes"/>
      <point x="384" y="1344"/>
      <point x="399" y="1423"/>
      <point x="401" y="1499" type="curve"/>
      <point x="356" y="1499"/>
      <point x="310" y="1489"/>
      <point x="263" y="1489" type="curve" smooth="yes"/>
      <point x="236" y="1489"/>
      <point x="171" y="1491"/>
      <point x="171" y="1530" type="curve"/>
      <point x="186" y="1546" type="line"/>
      <point x="202" y="1542"/>
      <point x="219" y="1542"/>
      <point x="235" y="1542" type="curve" smooth="yes"/>
      <point x="301" y="1542"/>
      <point x="361" y="1563"/>
      <point x="427" y="1563" type="curve" smooth="yes"/>
      <point x="450" y="1563"/>
      <point x="460" y="1546"/>
      <point x="460" y="1526" type="curve"/>
      <point x="429" y="1456"/>
      <point x="431" y="1321"/>
      <point x="419" y="1239" type="curve" smooth="yes"/>
      <point x="370" y="891"/>
      <point x="333" y="541"/>
      <point x="276" y="195" type="curve" smooth="yes"/>
      <point x="268" y="142"/>
      <point x="229" y="94"/>
      <point x="229" y="39" type="curve"/>
      <point x="274" y="39"/>
      <point x="317" y="49"/>
      <point x="362" y="49" type="curve" smooth="yes"/>
      <point x="389" y="49"/>
      <point x="448" y="47"/>
      <point x="448" y="8" type="curve"/>
      <point x="429" y="-10" type="line"/>
      <point x="347" y="-10"/>
      <point x="268" y="-18"/>
      <point x="186" y="-18" type="curve" smooth="yes"/>
      <point x="168" y="-18"/>
      <point x="161" y="-8"/>
    </contour>
  </outline>
</glyph>
<glyph name="bracketleft" format="1">
  <advance width="620"/>
  <unicode hex="005B"/>
  <outline>
    <contour>
      <point x="413" y="-68" type="curve" smooth="yes"/>
      <point x="413" y="-84"/>
      <point x="390" y="-88"/>
      <point x="378" y="-88" type="curve" smooth="yes"/>
      <point x="343" y="-88"/>
      <point x="147" y="-76"/>
      <point x="147" y="-35" type="curve" smooth="yes"/>
      <point x="147" y="135"/>
      <point x="190" y="301"/>
      <point x="190" y="471" type="curve" smooth="yes"/>
      <point x="190" y="809"/>
      <point x="243" y="1143"/>
      <point x="243" y="1481" type="curve" smooth="yes"/>
      <point x="243" y="1499"/>
      <point x="227" y="1510"/>
      <point x="223" y="1528" type="curve"/>
      <point x="264" y="1552" type="line"/>
      <point x="299" y="1550"/>
      <point x="499" y="1556"/>
      <point x="499" y="1511" type="curve" smooth="yes"/>
      <point x="499" y="1497"/>
      <point x="479" y="1489"/>
      <point x="467" y="1489" type="curve" smooth="yes"/>
      <point x="428" y="1489"/>
      <point x="391" y="1501"/>
      <point x="352" y="1501" type="curve" smooth="yes"/>
      <point x="323" y="1501"/>
      <point x="290" y="1495"/>
      <point x="290" y="1458" type="curve" smooth="yes"/>
      <point x="290" y="1100"/>
      <point x="260" y="731"/>
      <point x="237" y="371" type="curve" smooth="yes"/>
      <point x="235" y="330"/>
      <point x="221" y="82"/>
      <point x="211" y="51" type="curve"/>
      <point x="211" y="2" type="line"/>
      <point x="202" y="-14" type="line"/>
      <point x="241" y="-22"/>
      <point x="413" y="-13"/>
    </contour>
  </outline>
</glyph>
<glyph name="backslash" format="1">
  <advance width="680"/>
  <unicode hex="005C"/>
  <outline>
    <contour>
      <point x="504" y="-6" type="curve"/>
      <point x="461" y="-2"/>
      <point x="454" y="78"/>
      <point x="444" y="121" type="curve" smooth="yes"/>
      <point x="403" y="299" type="line"/>
      <point x="323" y="641"/>
      <point x="238" y="977"/>
      <point x="172" y="1317" type="curve" smooth="yes"/>
      <point x="168" y="1337"/>
      <point x="131" y="1489"/>
      <point x="131" y="1505" type="curve" smooth="yes"/>
      <point x="131" y="1523"/>
      <point x="146" y="1532"/>
      <point x="162" y="1532" type="curve" smooth="yes"/>
      <point x="178" y="1532"/>
      <point x="192" y="1460"/>
      <point x="196" y="1448" type="curve" smooth="yes"/>
      <point x="288" y="1096"/>
      <point x="372" y="741"/>
      <point x="452" y="387" type="curve" smooth="yes"/>
      <point x="479" y="266"/>
      <point x="524" y="129"/>
      <point x="524" y="31" type="curve" smooth="yes"/>
      <point x="524" y="17"/>
      <point x="516" y="2"/>
    </contour>
  </outline>
</glyph>
<glyph name="asciicircum" format="1">
  <advance width="800"/>
  <unicode hex="005E"/>
  <outline>
    <contour>
      <point x="435" y="1376" type="line"/>
      <point x="435" y="1222"/>
      <point x="461.588" y="1065.4"/>
      <point x="484" y="913" type="curve" smooth="yes"/>
      <point x="494" y="845"/>
      <point x="534" y="674"/>
      <point x="553" y="597" type="curve" smooth="yes"/>
      <point x="562.068" y="560.247"/>
      <point x="608" y="406"/>
      <point x="608" y="386" type="curve" smooth="yes"/>
      <point x="608" y="376"/>
      <point x="592" y="361"/>
      <point x="582" y="361" type="curve" smooth="yes"/>
      <point x="533" y="361"/>
      <point x="513.52" y="532.873"/>
      <point x="504" y="570" type="curve" smooth="yes"/>
      <point x="484" y="648"/>
      <point x="437" y="885"/>
      <point x="388" y="1223" type="curve"/>
      <point x="351" y="1100"/>
      <point x="339.407" y="949.01"/>
      <point x="318" y="817" type="curve" smooth="yes"/>
      <point x="306" y="743"/>
      <point x="267" y="534"/>
      <point x="236" y="379" type="curve"/>
      <point x="209" y="368" type="line"/>
      <point x="201" y="370"/>
      <point x="186" y="379"/>
      <point x="186" y="389" type="curve" smooth="yes"/>
      <point x="186" y="442"/>
      <point x="205.09" y="512.396"/>
      <point x="217" y="565" type="curve" smooth="yes"/>
      <point x="229" y="618"/>
      <point x="260" y="853"/>
      <point x="275" y="926" type="curve" smooth="yes"/>
      <point x="290.429" y="1001.09"/>
      <point x="312" y="1075"/>
      <point x="326" y="1151" type="curve" smooth="yes"/>
      <point x="336" y="1208"/>
      <point x="326" y="1395"/>
      <point x="412" y="1395" type="curve"/>
    </contour>
    <contour>
      <point x="390" y="1229" type="line"/>
      <point x="392" y="1233" type="line"/>
      <point x="390" y="1237" type="line"/>
    </contour>
  </outline>
</glyph>
<glyph name="underscore" format="1">
  <advance width="880"/>
  <unicode hex="005F"/>
  <outline>
    <contour>
      <point x="847" y="-44" type="curve"/>
      <point x="785" y="-44" type="line"/>
      <point x="785" y="-50"/>
      <point x="684" y="-50"/>
      <point x="571" y="-50" type="curve" smooth="yes"/>
      <point x="269" y="-50" type="line" smooth="yes"/>
      <point x="249" y="-50"/>
      <point x="227" y="-38"/>
      <point x="227" y="-15" type="curve" smooth="yes"/>
      <point x="227" y="-9"/>
      <point x="366" y="-9"/>
      <point x="509" y="-9" type="curve" smooth="yes"/>
      <point x="803" y="-9" type="line" smooth="yes"/>
      <point x="821" y="-9"/>
      <point x="847" y="-24"/>
    </contour>
  </outline>
</glyph>
<glyph name="grave" format="1">
  <advance width="680"/>
  <unicode hex="0060"/>
  <outline>
    <contour>
      <point x="332" y="805" type="move" name="_top"/>
    </contour>
    <contour>
      <point x="135" y="1220" type="curve"/>
      <point x="125" y="1218"/>
      <point x="114" y="1216"/>
      <point x="102" y="1216" type="curve" smooth="yes"/>
      <point x="77" y="1216"/>
      <point x="32" y="1222"/>
      <point x="32" y="1257" type="curve" smooth="yes"/>
      <point x="32" y="1269"/>
      <point x="33" y="1294"/>
      <point x="45" y="1302" type="curve"/>
      <point x="58" y="1302" type="line" smooth="yes"/>
      <point x="86" y="1302"/>
      <point x="120" y="1301"/>
      <point x="137" y="1279" type="curve"/>
      <point x="176" y="1265"/>
      <point x="366" y="1204"/>
      <point x="366" y="1163" type="curve" smooth="yes"/>
      <point x="366" y="1153"/>
      <point x="350" y="1146"/>
      <point x="342" y="1146" type="curve" smooth="yes"/>
      <point x="336" y="1146"/>
      <point x="147" y="1214"/>
    </contour>
  </outline>
</glyph>
<glyph name="a" format="1">
  <advance width="740"/>
  <unicode hex="0061"/>
  <outline>
    <contour>
      <point x="416" y="1356" type="move" name="top"/>
    </contour>
    <contour>
      <point x="264" y="376" type="curve" smooth="yes"/>
      <point x="264" y="359"/>
      <point x="444" y="350"/>
      <point x="479" y="350" type="curve" smooth="yes"/>
      <point x="500" y="350" type="line"/>
      <point x="481" y="625"/>
      <point x="437" y="1065"/>
      <point x="422" y="1221" type="curve"/>
      <point x="385" y="1039"/>
      <point x="346" y="856"/>
      <point x="311" y="674" type="curve" smooth="yes"/>
      <point x="299" y="615"/>
      <point x="264" y="431"/>
    </contour>
    <contour>
      <point x="262" y="315" type="curve" smooth="yes"/>
      <point x="246" y="315"/>
      <point x="250" y="307"/>
      <point x="246" y="299" type="curve"/>
      <point x="242" y="258" type="line" smooth="yes"/>
      <point x="238" y="219"/>
      <point x="209" y="-10"/>
      <point x="164" y="-10" type="curve" smooth="yes"/>
      <point x="148" y="-10"/>
      <point x="123" y="7"/>
      <point x="123" y="25" type="curve" smooth="yes"/>
      <point x="123" y="29"/>
      <point x="127" y="33"/>
      <point x="127" y="37" type="curve" smooth="yes"/>
      <point x="186" y="270"/>
      <point x="221" y="507"/>
      <point x="260" y="743" type="curve" smooth="yes"/>
      <point x="280" y="866"/>
      <point x="314" y="987"/>
      <point x="332" y="1112" type="curve" smooth="yes"/>
      <point x="338" y="1157"/>
      <point x="353" y="1339"/>
      <point x="367" y="1364" type="curve"/>
      <point x="375" y="1364"/>
      <point x="385" y="1362"/>
      <point x="395" y="1362" type="curve" smooth="yes"/>
      <point x="409" y="1362"/>
      <point x="422" y="1364"/>
      <point x="432" y="1374" type="curve"/>
      <point x="448" y="1374"/>
      <point x="469" y="1363"/>
      <point x="469" y="1343" type="curve" smooth="yes"/>
      <point x="469" y="1212"/>
      <point x="484" y="1141"/>
      <point x="496" y="1010" type="curve" smooth="yes"/>
      <point x="524" y="683"/>
      <point x="580" y="254"/>
      <point x="610" y="18" type="curve"/>
      <point x="610" y="12" type="line" smooth="yes"/>
      <point x="610" y="0"/>
      <point x="606" y="-11"/>
      <point x="594" y="-18" type="curve"/>
      <point x="557" y="-18"/>
      <point x="549" y="-18"/>
      <point x="543" y="27" type="curve" smooth="yes"/>
      <point x="533" y="107"/>
      <point x="523" y="207"/>
      <point x="509" y="295" type="curve"/>
      <point x="478" y="303"/>
      <point x="439" y="305"/>
      <point x="408" y="305" type="curve" smooth="yes"/>
      <point x="354" y="305"/>
      <point x="311" y="315"/>
    </contour>
  </outline>
</glyph>
<glyph name="e" format="1">
  <advance width="640"/>
  <unicode hex="0065"/>
  <outline>
    <contour>
      <point x="356" y="1356" type="move" name="top"/>
    </contour>
    <contour>
      <point x="186" y="68" type="curve"/>
      <point x="179" y="76" type="line"/>
      <point x="189" y="103"/>
      <point x="194" y="129"/>
      <point x="194" y="160" type="curve" smooth="yes"/>
      <point x="194" y="250"/>
      <point x="184" y="340"/>
      <point x="184" y="430" type="curve" smooth="yes"/>
      <point x="184" y="635"/>
      <point x="198" y="840"/>
      <point x="198" y="1047" type="curve" smooth="yes"/>
      <point x="198" y="1129"/>
      <point x="190" y="1210"/>
      <point x="190" y="1292" type="curve" smooth="yes"/>
      <point x="190" y="1329"/>
      <point x="204" y="1350"/>
      <point x="249" y="1350" type="curve" smooth="yes"/>
      <point x="261" y="1350"/>
      <point x="274" y="1347"/>
      <point x="282" y="1337" type="curve"/>
      <point x="317" y="1327"/>
      <point x="466" y="1325"/>
      <point x="470" y="1278" type="curve" smooth="yes"/>
      <point x="470" y="1264"/>
      <point x="441" y="1245"/>
      <point x="431" y="1239" type="curve"/>
      <point x="382" y="1255"/>
      <point x="314" y="1276"/>
      <point x="265" y="1278" type="curve"/>
      <point x="255" y="1266" type="line"/>
      <point x="257" y="1237"/>
      <point x="257" y="1207"/>
      <point x="257" y="1178" type="curve" smooth="yes"/>
      <point x="257" y="1072"/>
      <point x="249" y="966"/>
      <point x="249" y="860" type="curve" smooth="yes"/>
      <point x="249" y="831"/>
      <point x="253" y="803"/>
      <point x="278" y="803" type="curve" smooth="yes"/>
      <point x="301" y="803"/>
      <point x="322" y="807"/>
      <point x="347" y="807" type="curve" smooth="yes"/>
      <point x="370" y="807"/>
      <point x="425" y="805"/>
      <point x="427" y="770" type="curve" smooth="yes"/>
      <point x="427" y="745"/>
      <point x="415" y="717"/>
      <point x="386" y="717" type="curve" smooth="yes"/>
      <point x="372" y="717"/>
      <point x="347" y="723"/>
      <point x="339" y="733" type="curve"/>
      <point x="272" y="743" type="line"/>
      <point x="263" y="743" type="line"/>
      <point x="253" y="733" type="line"/>
      <point x="253" y="727" type="line"/>
      <point x="257" y="674"/>
      <point x="257" y="618"/>
      <point x="257" y="565" type="curve" smooth="yes"/>
      <point x="257" y="469"/>
      <point x="253" y="370"/>
      <point x="253" y="274" type="curve" smooth="yes"/>
      <point x="253" y="219"/>
      <point x="255" y="166"/>
      <point x="259" y="111" type="curve" smooth="yes"/>
      <point x="263" y="45"/>
      <point x="286" y="33"/>
      <point x="347" y="33" type="curve" smooth="yes"/>
      <point x="372" y="33"/>
      <point x="396" y="37"/>
      <point x="423" y="37" type="curve" smooth="yes"/>
      <point x="441" y="37"/>
      <point x="483" y="37"/>
      <point x="483" y="10" type="curve" smooth="yes"/>
      <point x="483" y="-27"/>
      <point x="421" y="-27"/>
      <point x="394" y="-27" type="curve" smooth="yes"/>
      <point x="225" y="-27" type="line" smooth="yes"/>
      <point x="196" y="-27"/>
      <point x="186" y="-9"/>
      <point x="184" y="16" type="curve" smooth="yes"/>
      <point x="184" y="32"/>
      <point x="186" y="52"/>
    </contour>
  </outline>
</glyph>
<glyph name="g" format="1">
  <advance width="820"/>
  <unicode hex="0067"/>
  <outline>
    <contour>
      <point x="416" y="1356" type="move" name="top"/>
    </contour>
    <contour>
      <point x="155" y="623" type="curve" smooth="yes"/>
      <point x="155" y="719"/>
      <point x="170" y="815"/>
      <point x="176" y="911" type="curve" smooth="yes"/>
      <point x="188" y="1087"/>
      <point x="194" y="1356"/>
      <point x="434" y="1356" type="curve" smooth="yes"/>
      <point x="461" y="1356"/>
      <point x="497" y="1352"/>
      <point x="497" y="1327" type="curve" smooth="yes"/>
      <point x="497" y="1307"/>
      <point x="472" y="1296"/>
      <point x="456" y="1296" type="curve" smooth="yes"/>
      <point x="444" y="1296"/>
      <point x="429" y="1300"/>
      <point x="417" y="1300" type="curve" smooth="yes"/>
      <point x="231" y="1300"/>
      <point x="231" y="758"/>
      <point x="231" y="629" type="curve" smooth="yes"/>
      <point x="231" y="580"/>
      <point x="231" y="528"/>
      <point x="237" y="479" type="curve"/>
      <point x="300" y="383"/>
      <point x="196" y="45"/>
      <point x="448" y="45" type="curve" smooth="yes"/>
      <point x="566" y="45"/>
      <point x="571" y="269"/>
      <point x="571" y="409" type="curve" smooth="yes"/>
      <point x="571" y="522" type="line"/>
      <point x="553" y="540"/>
      <point x="524" y="543"/>
      <point x="499" y="543" type="curve" smooth="yes"/>
      <point x="491" y="543"/>
      <point x="476" y="541"/>
      <point x="460" y="541" type="curve" smooth="yes"/>
      <point x="435" y="541"/>
      <point x="411" y="545"/>
      <point x="411" y="565" type="curve" smooth="yes"/>
      <point x="411" y="594"/>
      <point x="437" y="600"/>
      <point x="460" y="600" type="curve" smooth="yes"/>
      <point x="489" y="600"/>
      <point x="649" y="598"/>
      <point x="649" y="559" type="curve" smooth="yes"/>
      <point x="649" y="508"/>
      <point x="626" y="457"/>
      <point x="626" y="406" type="curve" smooth="yes"/>
      <point x="626" y="302"/>
      <point x="634" y="196"/>
      <point x="634" y="92" type="curve"/>
      <point x="579" y="37"/>
      <point x="507" y="-14"/>
      <point x="425" y="-14" type="curve" smooth="yes"/>
      <point x="364" y="-14"/>
      <point x="280" y="-2"/>
      <point x="241" y="49" type="curve" smooth="yes"/>
      <point x="184" y="123"/>
      <point x="155" y="517"/>
    </contour>
  </outline>
</glyph>
<glyph name="i" format="1">
  <advance width="700"/>
  <unicode hex="0069"/>
  <outline>
    <contour>
      <point x="336" y="1356" type="move" name="top"/>
    </contour>
    <contour>
      <point x="300" y="20" type="curve"/>
      <point x="288" y="20"/>
      <point x="276" y="18"/>
      <point x="266" y="18" type="curve" smooth="yes"/>
      <point x="246" y="18"/>
      <point x="220" y="21"/>
      <point x="210" y="39" type="curve"/>
      <point x="210" y="57"/>
      <point x="225" y="60"/>
      <point x="237" y="74" type="curve"/>
      <point x="296" y="74" type="line"/>
      <point x="304" y="82" type="line"/>
      <point x="306" y="96"/>
      <point x="311" y="111"/>
      <point x="311" y="125" type="curve" smooth="yes"/>
      <point x="311" y="275"/>
      <point x="296" y="423"/>
      <point x="296" y="573" type="curve" smooth="yes"/>
      <point x="296" y="733"/>
      <point x="306" y="893"/>
      <point x="306" y="1051" type="curve" smooth="yes"/>
      <point x="306" y="1131"/>
      <point x="304" y="1210"/>
      <point x="296" y="1288" type="curve"/>
      <point x="276" y="1294"/>
      <point x="255" y="1294"/>
      <point x="235" y="1294" type="curve" smooth="yes"/>
      <point x="219" y="1294"/>
      <point x="202" y="1290"/>
      <point x="186" y="1290" type="curve" smooth="yes"/>
      <point x="161" y="1290"/>
      <point x="147" y="1300"/>
      <point x="147" y="1325" type="curve" smooth="yes"/>
      <point x="147" y="1339"/>
      <point x="184" y="1350"/>
      <point x="196" y="1350" type="curve" smooth="yes"/>
      <point x="235" y="1350"/>
      <point x="481" y="1349"/>
      <point x="481" y="1288" type="curve" smooth="yes"/>
      <point x="481" y="1282"/>
      <point x="478" y="1276"/>
      <point x="476" y="1272" type="curve"/>
      <point x="429" y="1268" type="line"/>
      <point x="413" y="1280"/>
      <point x="390" y="1280"/>
      <point x="370" y="1280" type="curve"/>
      <point x="360" y="1274" type="line"/>
      <point x="366" y="1256"/>
      <point x="366" y="1206"/>
      <point x="366" y="1165" type="curve" smooth="yes"/>
      <point x="366" y="1003"/>
      <point x="360" y="840"/>
      <point x="360" y="678" type="curve" smooth="yes"/>
      <point x="360" y="528"/>
      <point x="374" y="379"/>
      <point x="374" y="229" type="curve" smooth="yes"/>
      <point x="374" y="217"/>
      <point x="372" y="191"/>
      <point x="372" y="166" type="curve" smooth="yes"/>
      <point x="372" y="139"/>
      <point x="374" y="115"/>
      <point x="378" y="109" type="curve"/>
      <point x="376" y="104" type="line"/>
      <point x="376" y="84"/>
      <point x="407" y="84"/>
      <point x="421" y="84" type="curve" smooth="yes"/>
      <point x="441" y="84"/>
      <point x="461" y="86"/>
      <point x="481" y="86" type="curve" smooth="yes"/>
      <point x="501" y="86"/>
      <point x="542" y="86"/>
      <point x="542" y="57" type="curve" smooth="yes"/>
      <point x="542" y="32"/>
      <point x="522" y="16"/>
      <point x="497" y="16" type="curve" smooth="yes"/>
      <point x="474" y="16"/>
      <point x="452" y="23"/>
      <point x="429" y="23" type="curve" smooth="yes"/>
      <point x="398" y="23"/>
      <point x="383" y="0"/>
      <point x="356" y="0" type="curve" smooth="yes"/>
      <point x="338" y="0"/>
      <point x="308" y="0"/>
    </contour>
  </outline>
</glyph>
<glyph name="m" format="1">
  <advance width="1160"/>
  <unicode hex="006D"/>
  <outline>
    <contour>
      <point x="586" y="1356" type="move" name="top"/>
    </contour>
    <contour>
      <point x="885" y="1149" type="line"/>
      <point x="883" y="1149" type="line"/>
      <point x="880" y="1147" type="line"/>
      <point x="885" y="1145" type="line"/>
    </contour>
    <contour>
      <point x="954" y="-106" type="curve" smooth="yes"/>
      <point x="915" y="-106"/>
      <point x="913" y="-12"/>
      <point x="913" y="25" type="curve" smooth="yes"/>
      <point x="913" y="159" type="line" smooth="yes"/>
      <point x="913" y="314"/>
      <point x="912" y="468"/>
      <point x="901" y="621" type="curve" smooth="yes"/>
      <point x="897" y="676"/>
      <point x="885" y="731"/>
      <point x="885" y="786" type="curve" smooth="yes"/>
      <point x="885" y="870"/>
      <point x="893" y="956"/>
      <point x="893" y="1040" type="curve" smooth="yes"/>
      <point x="893" y="1067"/>
      <point x="893" y="1112"/>
      <point x="885" y="1137" type="curve"/>
      <point x="844" y="1104"/>
      <point x="666" y="383"/>
      <point x="639" y="274" type="curve" smooth="yes"/>
      <point x="631" y="237"/>
      <point x="628" y="115"/>
      <point x="577" y="115" type="curve" smooth="yes"/>
      <point x="530" y="115"/>
      <point x="516" y="139"/>
      <point x="516" y="182" type="curve" smooth="yes"/>
      <point x="516" y="286"/>
      <point x="319" y="1100"/>
      <point x="268" y="1149" type="curve"/>
      <point x="252" y="789"/>
      <point x="223" y="430"/>
      <point x="223" y="70" type="curve" smooth="yes"/>
      <point x="223" y="43"/>
      <point x="223" y="15"/>
      <point x="225" y="-12" type="curve"/>
      <point x="219" y="-30"/>
      <point x="200" y="-39"/>
      <point x="182" y="-39" type="curve" smooth="yes"/>
      <point x="174" y="-39"/>
      <point x="147" y="-20"/>
      <point x="147" y="-10" type="curve" smooth="yes"/>
      <point x="147" y="422"/>
      <point x="211" y="850"/>
      <point x="211" y="1282" type="curve" smooth="yes"/>
      <point x="211" y="1296"/>
      <point x="199" y="1307"/>
      <point x="199" y="1321" type="curve" smooth="yes"/>
      <point x="199" y="1348"/>
      <point x="236" y="1352"/>
      <point x="254" y="1352" type="curve" smooth="yes"/>
      <point x="309" y="1352"/>
      <point x="299" y="1270"/>
      <point x="305" y="1235" type="curve" smooth="yes"/>
      <point x="325" y="1124"/>
      <point x="393" y="1027"/>
      <point x="422" y="918" type="curve" smooth="yes"/>
      <point x="445" y="832"/>
      <point x="473" y="748"/>
      <point x="489" y="662" type="curve"/>
      <point x="516" y="608" type="line"/>
      <point x="536" y="502"/>
      <point x="573" y="396"/>
      <point x="575" y="287" type="curve"/>
      <point x="610" y="340"/>
      <point x="807" y="1085"/>
      <point x="827" y="1196" type="curve" smooth="yes"/>
      <point x="835" y="1237"/>
      <point x="842" y="1348"/>
      <point x="901" y="1348" type="curve" smooth="yes"/>
      <point x="917" y="1348"/>
      <point x="952" y="1329"/>
      <point x="952" y="1311" type="curve" smooth="yes"/>
      <point x="952" y="1194"/>
      <point x="952" y="453"/>
      <point x="979" y="408" type="curve"/>
      <point x="979" y="336"/>
      <point x="975" y="265"/>
      <point x="975" y="193" type="curve" smooth="yes"/>
      <point x="975" y="127"/>
      <point x="977" y="59"/>
      <point x="991" y="-4" type="curve" smooth="yes"/>
      <point x="993" y="-16"/>
      <point x="999" y="-27"/>
      <point x="999" y="-39" type="curve" smooth="yes"/>
      <point x="999" y="-62"/>
      <point x="983" y="-106"/>
    </contour>
  </outline>
</glyph>
<glyph name="o" format="1">
  <advance width="820"/>
  <unicode hex="006F"/>
  <outline>
    <contour>
      <point x="416" y="1356" type="move" name="top"/>
    </contour>
    <contour>
      <point x="239" y="555" type="curve" smooth="yes"/>
      <point x="239" y="475"/>
      <point x="258" y="20"/>
      <point x="403" y="20" type="curve" smooth="yes"/>
      <point x="569" y="20"/>
      <point x="577" y="436"/>
      <point x="577" y="563" type="curve" smooth="yes"/>
      <point x="577" y="725"/>
      <point x="554" y="885"/>
      <point x="554" y="1047" type="curve"/>
      <point x="546" y="1063" type="line"/>
      <point x="550" y="1073" type="line"/>
      <point x="550" y="1190"/>
      <point x="476" y="1294"/>
      <point x="378" y="1294" type="curve" smooth="yes"/>
      <point x="208" y="1294"/>
      <point x="279" y="1071"/>
      <point x="245" y="909" type="curve"/>
      <point x="245" y="846"/>
      <point x="235" y="780"/>
      <point x="235" y="717" type="curve" smooth="yes"/>
      <point x="235" y="664"/>
      <point x="239" y="608"/>
    </contour>
    <contour>
      <point x="411" y="-39" type="curve" smooth="yes"/>
      <point x="175" y="-39"/>
      <point x="171" y="527"/>
      <point x="171" y="715" type="curve" smooth="yes"/>
      <point x="171" y="786" type="line" smooth="yes"/>
      <point x="171" y="974"/>
      <point x="180" y="1357"/>
      <point x="319" y="1357" type="curve" smooth="yes"/>
      <point x="328" y="1357"/>
      <point x="337" y="1355"/>
      <point x="347" y="1352" type="curve" smooth="yes"/>
      <point x="470" y="1307"/>
      <point x="495" y="1354"/>
      <point x="554" y="1243" type="curve"/>
      <point x="622" y="1128"/>
      <point x="640" y="932"/>
      <point x="640" y="801" type="curve"/>
      <point x="636" y="791" type="line"/>
      <point x="636" y="709"/>
      <point x="640" y="629"/>
      <point x="640" y="547" type="curve" smooth="yes"/>
      <point x="640" y="381"/>
      <point x="628" y="-39"/>
    </contour>
  </outline>
</glyph>
<glyph name="p" format="1">
  <advance width="640"/>
  <unicode hex="0070"/>
  <outline>
    <contour>
      <point x="336" y="1356" type="move" name="top"/>
    </contour>
    <contour>
      <point x="257" y="922" type="curve" smooth="yes"/>
      <point x="257" y="859"/>
      <point x="249" y="792"/>
      <point x="249" y="729" type="curve"/>
      <point x="262" y="709" type="line"/>
      <point x="418" y="709"/>
      <point x="419" y="970"/>
      <point x="419" y="1079" type="curve" smooth="yes"/>
      <point x="419" y="1171"/>
      <point x="409" y="1272"/>
      <point x="292" y="1272" type="curve" smooth="yes"/>
      <point x="253" y="1272"/>
      <point x="247" y="1252"/>
      <point x="247" y="1217" type="curve" smooth="yes"/>
      <point x="247" y="1119"/>
      <point x="257" y="1020"/>
    </contour>
    <contour>
      <point x="198" y="-25" type="line"/>
      <point x="180" y="71"/>
      <point x="175" y="172"/>
      <point x="175" y="270" type="curve" smooth="yes"/>
      <point x="175" y="397"/>
      <point x="184" y="524"/>
      <point x="184" y="651" type="curve"/>
      <point x="178" y="665"/>
      <point x="171" y="682"/>
      <point x="171" y="698" type="curve"/>
      <point x="191" y="731"/>
      <point x="192" y="846"/>
      <point x="192" y="887" type="curve" smooth="yes"/>
      <point x="192" y="948"/>
      <point x="190" y="1257"/>
      <point x="180" y="1284" type="curve"/>
      <point x="184" y="1294"/>
      <point x="198" y="1335"/>
      <point x="210" y="1335" type="curve" smooth="yes"/>
      <point x="300" y="1335" type="line" smooth="yes"/>
      <point x="337" y="1335"/>
      <point x="405" y="1293"/>
      <point x="434" y="1268" type="curve" smooth="yes"/>
      <point x="483" y="1223"/>
      <point x="485" y="1089"/>
      <point x="485" y="1026" type="curve" smooth="yes"/>
      <point x="485" y="809"/>
      <point x="478" y="707"/>
      <point x="249" y="639" type="curve"/>
      <point x="249" y="395" type="line" smooth="yes"/>
      <point x="249" y="262"/>
      <point x="266" y="127"/>
      <point x="266" y="-4" type="curve" smooth="yes"/>
      <point x="266" y="-29"/>
      <point x="254" y="-41"/>
      <point x="227" y="-41" type="curve"/>
    </contour>
  </outline>
</glyph>
<glyph name="v" format="1">
  <advance width="800"/>
  <unicode hex="0076"/>
  <outline>
    <contour>
      <point x="405" y="141" type="line"/>
      <point x="403" y="137" type="line"/>
      <point x="405" y="133" type="line"/>
    </contour>
    <contour>
      <point x="360" y="-6" type="line"/>
      <point x="360" y="148"/>
      <point x="336" y="305"/>
      <point x="311" y="457" type="curve" smooth="yes"/>
      <point x="274" y="682"/>
      <point x="229" y="907"/>
      <point x="178" y="1130" type="curve" smooth="yes"/>
      <point x="170" y="1167"/>
      <point x="123" y="1321"/>
      <point x="123" y="1341" type="curve" smooth="yes"/>
      <point x="123" y="1351"/>
      <point x="139" y="1366"/>
      <point x="149" y="1366" type="curve" smooth="yes"/>
      <point x="198" y="1366"/>
      <point x="217" y="1194"/>
      <point x="227" y="1157" type="curve" smooth="yes"/>
      <point x="313" y="817"/>
      <point x="358" y="485"/>
      <point x="407" y="147" type="curve"/>
      <point x="444" y="270"/>
      <point x="463" y="420"/>
      <point x="477" y="553" type="curve" smooth="yes"/>
      <point x="524" y="963"/>
      <point x="577" y="1110"/>
      <point x="622" y="1384" type="curve"/>
      <point x="649" y="1395" type="line"/>
      <point x="657" y="1393"/>
      <point x="672" y="1384"/>
      <point x="672" y="1374" type="curve" smooth="yes"/>
      <point x="672" y="1321"/>
      <point x="651" y="1251"/>
      <point x="641" y="1198" type="curve" smooth="yes"/>
      <point x="616" y="1075"/>
      <point x="581" y="952"/>
      <point x="563" y="829" type="curve" smooth="yes"/>
      <point x="543" y="702"/>
      <point x="536" y="571"/>
      <point x="520" y="444" type="curve" smooth="yes"/>
      <point x="510" y="368"/>
      <point x="483" y="295"/>
      <point x="469" y="219" type="curve" smooth="yes"/>
      <point x="459" y="162"/>
      <point x="469" y="-25"/>
      <point x="383" y="-25" type="curve"/>
    </contour>
  </outline>
</glyph>
<glyph name="w" format="1">
  <advance width="920"/>
  <unicode hex="0077"/>
  <outline>
    <contour>
      <point x="456" y="1356" type="move" name="top"/>
    </contour>
    <contour>
      <point x="633" y="178" type="curve"/>
      <point x="633" y="176" type="line"/>
      <point x="635" y="176" type="line"/>
      <point x="635" y="178"/>
      <point x="635" y="178"/>
    </contour>
    <contour>
      <point x="455" y="1053" type="curve"/>
      <point x="449" y="969"/>
      <point x="434" y="887"/>
      <point x="434" y="803" type="curve" smooth="yes"/>
      <point x="434" y="615"/>
      <point x="396" y="428"/>
      <point x="371" y="242" type="curve" smooth="yes"/>
      <point x="365" y="201"/>
      <point x="346" y="-43"/>
      <point x="301" y="-43" type="curve" smooth="yes"/>
      <point x="231" y="-43"/>
      <point x="233" y="342"/>
      <point x="213" y="520" type="curve" smooth="yes"/>
      <point x="199" y="633"/>
      <point x="176" y="745"/>
      <point x="168" y="858" type="curve" smooth="yes"/>
      <point x="158" y="999"/>
      <point x="164" y="1178"/>
      <point x="115" y="1311" type="curve"/>
      <point x="123" y="1325"/>
      <point x="134" y="1327"/>
      <point x="148" y="1327" type="curve" smooth="yes"/>
      <point x="195" y="1327"/>
      <point x="187" y="1202"/>
      <point x="189" y="1171" type="curve" smooth="yes"/>
      <point x="218" y="858"/>
      <point x="277" y="546"/>
      <point x="283" y="231" type="curve"/>
      <point x="295" y="198"/>
      <point x="291" y="148"/>
      <point x="305" y="121" type="curve"/>
      <point x="307" y="121" type="line"/>
      <point x="342" y="367"/>
      <point x="381" y="614"/>
      <point x="389" y="864" type="curve" smooth="yes"/>
      <point x="391" y="930"/>
      <point x="392" y="995"/>
      <point x="402" y="1061" type="curve" smooth="yes"/>
      <point x="408" y="1104"/>
      <point x="416" y="1145"/>
      <point x="416" y="1188" type="curve"/>
      <point x="453" y="1204" type="line"/>
      <point x="469" y="1204"/>
      <point x="488" y="1194"/>
      <point x="488" y="1176" type="curve" smooth="yes"/>
      <point x="488" y="1170"/>
      <point x="485" y="1163"/>
      <point x="483" y="1159" type="curve" smooth="yes"/>
      <point x="546" y="944"/>
      <point x="576" y="721"/>
      <point x="592" y="498" type="curve" smooth="yes"/>
      <point x="600" y="394"/>
      <point x="596" y="284"/>
      <point x="633" y="186" type="curve"/>
      <point x="674" y="301"/>
      <point x="692" y="845"/>
      <point x="692" y="995" type="curve" smooth="yes"/>
      <point x="692" y="1101"/>
      <point x="719" y="1207"/>
      <point x="719" y="1313" type="curve" smooth="yes"/>
      <point x="719" y="1325"/>
      <point x="717" y="1338"/>
      <point x="711" y="1348" type="curve"/>
      <point x="711" y="1373"/>
      <point x="732" y="1380"/>
      <point x="752" y="1380" type="curve" smooth="yes"/>
      <point x="772" y="1380"/>
      <point x="780" y="1379"/>
      <point x="780" y="1356" type="curve" smooth="yes"/>
      <point x="780" y="1327"/>
      <point x="778" y="1297"/>
      <point x="770" y="1268" type="curve"/>
      <point x="774" y="1255" type="line"/>
      <point x="760" y="1192"/>
      <point x="756" y="1129"/>
      <point x="756" y="1063" type="curve" smooth="yes"/>
      <point x="756" y="1055"/>
      <point x="756" y="1046"/>
      <point x="760" y="1040" type="curve"/>
      <point x="748" y="999" type="line"/>
      <point x="754" y="985" type="line"/>
      <point x="750" y="977"/>
      <point x="748" y="969"/>
      <point x="748" y="961" type="curve" smooth="yes"/>
      <point x="748" y="947"/>
      <point x="752" y="934"/>
      <point x="754" y="922" type="curve"/>
      <point x="748" y="913" type="line"/>
      <point x="748" y="796"/>
      <point x="737" y="678"/>
      <point x="729" y="561" type="curve" smooth="yes"/>
      <point x="723" y="467"/>
      <point x="719" y="373"/>
      <point x="707" y="279" type="curve" smooth="yes"/>
      <point x="701" y="238"/>
      <point x="684" y="197"/>
      <point x="684" y="156" type="curve" smooth="yes"/>
      <point x="684" y="117"/>
      <point x="682" y="-68"/>
      <point x="629" y="-68" type="curve" smooth="yes"/>
      <point x="592" y="-68"/>
      <point x="596" y="-2"/>
      <point x="594" y="23" type="curve" smooth="yes"/>
      <point x="586" y="121"/>
      <point x="561" y="219"/>
      <point x="549" y="317" type="curve" smooth="yes"/>
      <point x="535" y="426"/>
      <point x="500" y="1008"/>
    </contour>
  </outline>
</glyph>
<glyph name="y" format="1">
  <advance width="720"/>
  <unicode hex="0079"/>
  <outline>
    <contour>
      <point x="366" y="1356" type="move" name="top"/>
    </contour>
    <contour>
      <point x="358" y="-8" type="curve"/>
      <point x="376" y="37"/>
      <point x="378" y="287"/>
      <point x="378" y="350" type="curve" smooth="yes"/>
      <point x="378" y="454"/>
      <point x="366" y="562"/>
      <point x="362" y="666" type="curve"/>
      <point x="349" y="692" type="line"/>
      <point x="355" y="717" type="line"/>
      <point x="318" y="817"/>
      <point x="157" y="1233"/>
      <point x="155" y="1307" type="curve"/>
      <point x="183" y="1329" type="line"/>
      <point x="230" y="1321"/>
      <point x="337" y="821"/>
      <point x="376" y="811" type="curve"/>
      <point x="384" y="848" type="line"/>
      <point x="380" y="858" type="line"/>
      <point x="419" y="905"/>
      <point x="466" y="1360"/>
      <point x="525" y="1360" type="curve" smooth="yes"/>
      <point x="537" y="1360"/>
      <point x="552" y="1353"/>
      <point x="552" y="1339" type="curve" smooth="yes"/>
      <point x="552" y="1304"/>
      <point x="525" y="1221"/>
      <point x="515" y="1186" type="curve" smooth="yes"/>
      <point x="472" y="1034"/>
      <point x="415" y="873"/>
      <point x="415" y="723" type="curve"/>
      <point x="419" y="713"/>
      <point x="425" y="700"/>
      <point x="425" y="688" type="curve" smooth="yes"/>
      <point x="425" y="668"/>
      <point x="413" y="652"/>
      <point x="413" y="629" type="curve" smooth="yes"/>
      <point x="413" y="566"/>
      <point x="429" y="505"/>
      <point x="429" y="442" type="curve" smooth="yes"/>
      <point x="429" y="333"/>
      <point x="431" y="226"/>
      <point x="431" y="117" type="curve" smooth="yes"/>
      <point x="431" y="108" type="line" smooth="yes"/>
      <point x="431" y="69"/>
      <point x="429" y="-31"/>
      <point x="388" y="-31" type="curve" smooth="yes"/>
      <point x="378" y="-31"/>
      <point x="362" y="-16"/>
    </contour>
  </outline>
</glyph>
<glyph name="z" format="1">
  <advance width="700"/>
  <unicode hex="007A"/>
  <outline>
    <contour>
      <point x="416" y="1356" type="move" name="top"/>
    </contour>
    <contour>
      <point x="163" y="27" type="curve" smooth="yes"/>
      <point x="163" y="68"/>
      <point x="219" y="264"/>
      <point x="233" y="317" type="curve" smooth="yes"/>
      <point x="262" y="426"/>
      <point x="279" y="536"/>
      <point x="306" y="645" type="curve" smooth="yes"/>
      <point x="355" y="844"/>
      <point x="466" y="1104"/>
      <point x="466" y="1303" type="curve"/>
      <point x="403" y="1303"/>
      <point x="337" y="1290"/>
      <point x="274" y="1290" type="curve" smooth="yes"/>
      <point x="258" y="1290"/>
      <point x="245" y="1307"/>
      <point x="245" y="1323" type="curve" smooth="yes"/>
      <point x="245" y="1350"/>
      <point x="398" y="1356"/>
      <point x="472" y="1356" type="curve" smooth="yes"/>
      <point x="497" y="1356"/>
      <point x="523" y="1354"/>
      <point x="523" y="1323" type="curve" smooth="yes"/>
      <point x="523" y="1196"/>
      <point x="423" y="987"/>
      <point x="423" y="915" type="curve"/>
      <point x="386" y="735"/>
      <point x="233" y="331"/>
      <point x="231" y="63" type="curve"/>
      <point x="251" y="59"/>
      <point x="270" y="59"/>
      <point x="290" y="59" type="curve" smooth="yes"/>
      <point x="319" y="59"/>
      <point x="347" y="66"/>
      <point x="376" y="66" type="curve" smooth="yes"/>
      <point x="394" y="66"/>
      <point x="435" y="66"/>
      <point x="435" y="39" type="curve" smooth="yes"/>
      <point x="435" y="14"/>
      <point x="406" y="12"/>
      <point x="388" y="12" type="curve" smooth="yes"/>
      <point x="347" y="12"/>
      <point x="308" y="18"/>
      <point x="267" y="18" type="curve" smooth="yes"/>
      <point x="226" y="18"/>
      <point x="214" y="-4"/>
      <point x="194" y="-4" type="curve" smooth="yes"/>
      <point x="174" y="-4"/>
      <point x="163" y="7"/>
    </contour>
  </outline>
</glyph>
<glyph name="braceright" format="1">
  <advance width="640"/>
  <unicode hex="007D"/>
  <outline>
    <contour>
      <point x="430" y="1090" type="curve" smooth="yes"/>
      <point x="430" y="981"/>
      <point x="421" y="909"/>
      <point x="421" y="848" type="curve" smooth="yes"/>
      <point x="421" y="801"/>
      <point x="436" y="758"/>
      <point x="481" y="754" type="curve" smooth="yes"/>
      <point x="487" y="752"/>
      <point x="489" y="743"/>
      <point x="489" y="733" type="curve" smooth="yes"/>
      <point x="489" y="725"/>
      <point x="485" y="719"/>
      <point x="473" y="717" type="curve" smooth="yes"/>
      <point x="436" y="717"/>
      <point x="421" y="670"/>
      <point x="421" y="621" type="curve" smooth="yes"/>
      <point x="421" y="539"/>
      <point x="436" y="346"/>
      <point x="436" y="188" type="curve" smooth="yes"/>
      <point x="436" y="30"/>
      <point x="381" y="-51"/>
      <point x="305" y="-51" type="curve" smooth="yes"/>
      <point x="278" y="-51"/>
      <point x="227" y="-41"/>
      <point x="227" y="-23" type="curve" smooth="yes"/>
      <point x="227" y="0"/>
      <point x="246" y="0"/>
      <point x="260" y="0" type="curve" smooth="yes"/>
      <point x="270" y="0"/>
      <point x="276" y="-2"/>
      <point x="301" y="-2" type="curve" smooth="yes"/>
      <point x="362" y="-2"/>
      <point x="374" y="99"/>
      <point x="374" y="197" type="curve" smooth="yes"/>
      <point x="374" y="449" type="line" smooth="yes"/>
      <point x="374" y="502"/>
      <point x="368" y="557"/>
      <point x="368" y="606" type="curve" smooth="yes"/>
      <point x="368" y="661"/>
      <point x="372" y="708"/>
      <point x="421" y="735" type="curve"/>
      <point x="372" y="760"/>
      <point x="368" y="807"/>
      <point x="368" y="862" type="curve" smooth="yes"/>
      <point x="368" y="930"/>
      <point x="374" y="1001"/>
      <point x="374" y="1073" type="curve" smooth="yes"/>
      <point x="374" y="1296" type="line" smooth="yes"/>
      <point x="374" y="1394"/>
      <point x="362" y="1495"/>
      <point x="301" y="1495" type="curve" smooth="yes"/>
      <point x="270" y="1495" type="line" smooth="yes"/>
      <point x="243" y="1495"/>
      <point x="227" y="1498"/>
      <point x="227" y="1516" type="curve" smooth="yes"/>
      <point x="227" y="1534"/>
      <point x="278" y="1544"/>
      <point x="305" y="1544" type="curve" smooth="yes"/>
      <point x="381" y="1544"/>
      <point x="436" y="1463"/>
      <point x="436" y="1305" type="curve" smooth="yes"/>
      <point x="436" y="1223"/>
      <point x="430" y="1172"/>
    </contour>
  </outline>
</glyph>
<glyph name="cent" format="1">
  <advance width="800"/>
  <unicode hex="00A2"/>
  <outline>
    <contour>
      <point x="247" y="977" type="curve" smooth="yes"/>
      <point x="239" y="911"/>
      <point x="230" y="854"/>
      <point x="230" y="788" type="curve" smooth="yes"/>
      <point x="230" y="781" type="line" smooth="yes"/>
      <point x="230" y="684"/>
      <point x="232" y="397"/>
      <point x="392" y="397" type="curve"/>
      <point x="400" y="401" type="line"/>
      <point x="400" y="559"/>
      <point x="384" y="710"/>
      <point x="368" y="870" type="curve" smooth="yes"/>
      <point x="362" y="968"/>
      <point x="358" y="1073"/>
      <point x="335" y="1161" type="curve"/>
      <point x="274" y="1151"/>
      <point x="245" y="985"/>
    </contour>
    <contour>
      <point x="423" y="25" type="curve"/>
      <point x="419" y="23" type="line"/>
      <point x="417" y="80"/>
      <point x="415" y="144"/>
      <point x="415" y="203" type="curve" smooth="yes"/>
      <point x="415" y="330" type="line"/>
      <point x="325" y="365"/>
      <point x="224" y="406"/>
      <point x="206" y="512" type="curve"/>
      <point x="181" y="623"/>
      <point x="179" y="729"/>
      <point x="179" y="842" type="curve" smooth="yes"/>
      <point x="179" y="975"/>
      <point x="200" y="1165"/>
      <point x="343" y="1243" type="curve"/>
      <point x="343" y="1286"/>
      <point x="333" y="1327"/>
      <point x="333" y="1370" type="curve" smooth="yes"/>
      <point x="333" y="1384"/>
      <point x="332" y="1436"/>
      <point x="359" y="1436" type="curve"/>
      <point x="372" y="1427" type="line"/>
      <point x="370" y="1409"/>
      <point x="370" y="1392"/>
      <point x="370" y="1374" type="curve" smooth="yes"/>
      <point x="370" y="1329"/>
      <point x="374" y="1284"/>
      <point x="380" y="1239" type="curve"/>
      <point x="417" y="1223"/>
      <point x="562" y="1198"/>
      <point x="562" y="1135" type="curve" smooth="yes"/>
      <point x="562" y="1127"/>
      <point x="554" y="1108"/>
      <point x="544" y="1108" type="curve" smooth="yes"/>
      <point x="513" y="1108"/>
      <point x="509" y="1143"/>
      <point x="491" y="1159" type="curve" smooth="yes"/>
      <point x="473" y="1179"/>
      <point x="441" y="1174"/>
      <point x="425" y="1194" type="curve"/>
      <point x="388" y="1194" type="line"/>
      <point x="386" y="1198" type="line"/>
      <point x="386" y="936"/>
      <point x="447" y="692"/>
      <point x="447" y="430" type="curve" smooth="yes"/>
      <point x="447" y="422"/>
      <point x="445" y="407"/>
      <point x="445" y="401" type="curve" smooth="yes"/>
      <point x="445" y="391"/>
      <point x="450" y="379"/>
      <point x="462" y="369" type="curve"/>
      <point x="550" y="369"/>
      <point x="591" y="421"/>
      <point x="636" y="489" type="curve"/>
      <point x="656" y="489"/>
      <point x="658" y="467"/>
      <point x="658" y="453" type="curve" smooth="yes"/>
      <point x="658" y="394"/>
      <point x="523" y="326"/>
      <point x="470" y="326" type="curve" smooth="yes"/>
      <point x="452" y="326" type="line"/>
      <point x="452" y="291"/>
      <point x="450" y="256"/>
      <point x="450" y="221" type="curve" smooth="yes"/>
      <point x="450" y="155"/>
      <point x="456" y="93"/>
      <point x="456" y="27" type="curve" smooth="yes"/>
      <point x="456" y="15"/>
      <point x="450" y="11"/>
      <point x="443" y="11" type="curve" smooth="yes"/>
      <point x="434" y="11"/>
      <point x="423" y="18"/>
    </contour>
  </outline>
</glyph>
<glyph name="brokenbar" format="1">
  <advance width="500"/>
  <unicode hex="00A6"/>
  <outline>
    <contour>
      <point x="255" y="43" type="line"/>
      <point x="248" y="-27" type="line"/>
      <point x="248" y="-47"/>
      <point x="238" y="-47"/>
      <point x="228" y="-47" type="curve" smooth="yes"/>
      <point x="203" y="-47"/>
      <point x="203" y="-43"/>
      <point x="203" y="-31" type="curve" smooth="yes"/>
      <point x="203" y="108"/>
      <point x="214" y="230"/>
      <point x="214" y="369" type="curve" smooth="yes"/>
      <point x="214" y="408"/>
      <point x="218" y="547"/>
      <point x="218" y="561" type="curve" smooth="yes"/>
      <point x="218" y="588"/>
      <point x="218" y="627"/>
      <point x="259" y="627" type="curve" smooth="yes"/>
      <point x="269" y="627"/>
      <point x="271" y="627"/>
      <point x="271" y="604" type="curve" smooth="yes"/>
      <point x="271" y="528"/>
      <point x="261" y="299"/>
      <point x="261" y="268" type="curve" smooth="yes"/>
      <point x="261" y="241"/>
      <point x="257" y="108"/>
      <point x="255" y="92" type="curve"/>
    </contour>
    <contour>
      <point x="279" y="948" type="line"/>
      <point x="273" y="879" type="line"/>
      <point x="273" y="859"/>
      <point x="263" y="858"/>
      <point x="253" y="858" type="curve" smooth="yes"/>
      <point x="228" y="858"/>
      <point x="228" y="862"/>
      <point x="228" y="874" type="curve" smooth="yes"/>
      <point x="228" y="1026"/>
      <point x="238" y="1163"/>
      <point x="238" y="1315" type="curve" smooth="yes"/>
      <point x="238" y="1350"/>
      <point x="242" y="1475"/>
      <point x="242" y="1487" type="curve" smooth="yes"/>
      <point x="242" y="1514"/>
      <point x="242" y="1552"/>
      <point x="283" y="1552" type="curve" smooth="yes"/>
      <point x="293" y="1552"/>
      <point x="296" y="1542"/>
      <point x="296" y="1530" type="curve" smooth="yes"/>
      <point x="296" y="1458"/>
      <point x="285" y="1243"/>
      <point x="285" y="1214" type="curve" smooth="yes"/>
      <point x="285" y="1183"/>
      <point x="281" y="1017"/>
      <point x="279" y="997" type="curve"/>
    </contour>
  </outline>
</glyph>
<glyph name="dieresis" format="1">
  <advance width="920"/>
  <unicode hex="00A8"/>
  <outline>
    <contour>
      <point x="452" y="805" type="move" name="_top"/>
    </contour>
    <contour>
      <point x="179" y="1132" type="curve" smooth="yes"/>
      <point x="179" y="1155"/>
      <point x="203" y="1183"/>
      <point x="228" y="1183" type="curve" smooth="yes"/>
      <point x="261" y="1183"/>
      <point x="269" y="1141"/>
      <point x="269" y="1116" type="curve" smooth="yes"/>
      <point x="269" y="1091"/>
      <point x="238" y="1081"/>
      <point x="218" y="1081" type="curve" smooth="yes"/>
      <point x="193" y="1081"/>
      <point x="179" y="1112"/>
    </contour>
    <contour>
      <point x="639" y="1134" type="curve" smooth="yes"/>
      <point x="639" y="1159"/>
      <point x="664" y="1185"/>
      <point x="689" y="1185" type="curve" smooth="yes"/>
      <point x="712" y="1185"/>
      <point x="734" y="1156"/>
      <point x="734" y="1136" type="curve" smooth="yes"/>
      <point x="734" y="1103"/>
      <point x="711" y="1089"/>
      <point x="680" y="1089" type="curve" smooth="yes"/>
      <point x="657" y="1089"/>
      <point x="639" y="1114"/>
    </contour>
  </outline>
</glyph>
<glyph name="copyright" format="1">
  <advance width="1240"/>
  <unicode hex="00A9"/>
  <outline>
    <contour>
      <point x="445" y="311" type="curve"/>
      <point x="332" y="452"/>
      <point x="328" y="621"/>
      <point x="328" y="793" type="curve" smooth="yes"/>
      <point x="328" y="801" type="line" smooth="yes"/>
      <point x="328" y="986"/>
      <point x="330" y="1477"/>
      <point x="588" y="1477" type="curve" smooth="yes"/>
      <point x="613" y="1477"/>
      <point x="641" y="1474"/>
      <point x="664" y="1466" type="curve" smooth="yes"/>
      <point x="699" y="1454"/>
      <point x="805" y="1313"/>
      <point x="805" y="1276" type="curve" smooth="yes"/>
      <point x="805" y="1260"/>
      <point x="795" y="1247"/>
      <point x="779" y="1247" type="curve" smooth="yes"/>
      <point x="716" y="1247"/>
      <point x="708" y="1411"/>
      <point x="597" y="1411" type="curve" smooth="yes"/>
      <point x="413" y="1411"/>
      <point x="422" y="1043"/>
      <point x="406" y="918" type="curve"/>
      <point x="410" y="909" type="line"/>
      <point x="402" y="882"/>
      <point x="402" y="852"/>
      <point x="402" y="823" type="curve" smooth="yes"/>
      <point x="402" y="786" type="line" smooth="yes"/>
      <point x="402" y="664"/>
      <point x="405" y="485"/>
      <point x="472" y="397" type="curve"/>
      <point x="472" y="391" type="line"/>
      <point x="505" y="354"/>
      <point x="543" y="309"/>
      <point x="613" y="309" type="curve" smooth="yes"/>
      <point x="730" y="309"/>
      <point x="762" y="418"/>
      <point x="795" y="418" type="curve" smooth="yes"/>
      <point x="820" y="418"/>
      <point x="826" y="393"/>
      <point x="826" y="373" type="curve" smooth="yes"/>
      <point x="826" y="305"/>
      <point x="680" y="250"/>
      <point x="623" y="250" type="curve" smooth="yes"/>
      <point x="549" y="250"/>
      <point x="508" y="282"/>
    </contour>
    <contour>
      <point x="187" y="940" type="curve" smooth="yes"/>
      <point x="187" y="825"/>
      <point x="199" y="709"/>
      <point x="205" y="594" type="curve" smooth="yes"/>
      <point x="219" y="350"/>
      <point x="237" y="57"/>
      <point x="556" y="57" type="curve" smooth="yes"/>
      <point x="828" y="57"/>
      <point x="937" y="221"/>
      <point x="994" y="465" type="curve" smooth="yes"/>
      <point x="992" y="469"/>
      <point x="992" y="471"/>
      <point x="992" y="475" type="curve" smooth="yes"/>
      <point x="992" y="514"/>
      <point x="1014" y="551"/>
      <point x="1014" y="588" type="curve" smooth="yes"/>
      <point x="1014" y="893" type="line" smooth="yes"/>
      <point x="1014" y="971"/>
      <point x="987" y="1048"/>
      <point x="975" y="1124" type="curve" smooth="yes"/>
      <point x="942" y="1329"/>
      <point x="867" y="1554"/>
      <point x="689" y="1677" type="curve" smooth="yes"/>
      <point x="650" y="1704"/>
      <point x="607" y="1737"/>
      <point x="558" y="1737" type="curve" smooth="yes"/>
      <point x="230" y="1737"/>
      <point x="187" y="1176"/>
    </contour>
    <contour>
      <point x="115" y="924" type="curve" smooth="yes"/>
      <point x="115" y="1190"/>
      <point x="166" y="1788"/>
      <point x="533" y="1788" type="curve" smooth="yes"/>
      <point x="973" y="1788"/>
      <point x="1082" y="1086"/>
      <point x="1082" y="756" type="curve" smooth="yes"/>
      <point x="1082" y="416"/>
      <point x="1008" y="2"/>
      <point x="582" y="2" type="curve" smooth="yes"/>
      <point x="150" y="2"/>
      <point x="146" y="324"/>
      <point x="128" y="662" type="curve" smooth="yes"/>
      <point x="124" y="750"/>
      <point x="115" y="836"/>
    </contour>
  </outline>
</glyph>
<glyph name="ordfeminine" format="1">
  <advance width="740"/>
  <unicode hex="00AA"/>
  <outline>
    <contour>
      <point x="539" y="428" type="curve" smooth="yes"/>
      <point x="558" y="428"/>
      <point x="585" y="412"/>
      <point x="585" y="393" type="curve" smooth="yes"/>
      <point x="585" y="379"/>
      <point x="260" y="375"/>
      <point x="233" y="375" type="curve" smooth="yes"/>
      <point x="213" y="375"/>
      <point x="189" y="389"/>
      <point x="189" y="410" type="curve" smooth="yes"/>
      <point x="189" y="423"/>
      <point x="514" y="428"/>
    </contour>
    <contour>
      <point x="290" y="892" type="curve"/>
      <point x="364" y="876" type="line"/>
      <point x="420" y="871"/>
      <point x="453" y="866"/>
      <point x="463" y="862" type="curve"/>
      <point x="484" y="862" type="line"/>
      <point x="386" y="1282" type="line"/>
      <point x="349" y="1115"/>
      <point x="317" y="985"/>
    </contour>
    <contour>
      <point x="578" y="494" type="curve"/>
      <point x="529" y="494"/>
      <point x="517" y="503"/>
      <point x="517" y="545" type="curve" smooth="yes"/>
      <point x="517" y="637"/>
      <point x="496" y="726"/>
      <point x="484" y="807" type="curve"/>
      <point x="458" y="814"/>
      <point x="427" y="817"/>
      <point x="392" y="817" type="curve"/>
      <point x="338" y="815" type="line"/>
      <point x="329" y="819"/>
      <point x="307" y="823"/>
      <point x="274" y="827" type="curve"/>
      <point x="222" y="652" type="line"/>
      <point x="198" y="563"/>
      <point x="181" y="513"/>
      <point x="172" y="504" type="curve" smooth="yes"/>
      <point x="163" y="495"/>
      <point x="131" y="525"/>
      <point x="131" y="539" type="curve"/>
      <point x="158" y="584"/>
      <point x="220" y="808"/>
      <point x="316" y="1211" type="curve"/>
      <point x="326" y="1302"/>
      <point x="334" y="1354"/>
      <point x="341" y="1366" type="curve"/>
      <point x="369" y="1364" type="line"/>
      <point x="386" y="1364"/>
      <point x="398" y="1368"/>
      <point x="406" y="1376" type="curve"/>
      <point x="424" y="1376"/>
      <point x="443" y="1363"/>
      <point x="443" y="1345" type="curve"/>
      <point x="577" y="666" type="line" smooth="yes"/>
      <point x="588" y="606"/>
      <point x="594" y="564"/>
      <point x="594" y="540" type="curve" smooth="yes"/>
      <point x="594" y="516"/>
      <point x="589" y="500"/>
    </contour>
  </outline>
</glyph>
<glyph name="guillemotleft" format="1">
  <advance width="800"/>
  <unicode hex="00AB"/>
  <outline>
    <contour>
      <point x="643" y="4" type="line"/>
      <point x="600" y="67"/>
      <point x="565" y="160"/>
      <point x="526" y="242" type="curve" smooth="yes"/>
      <point x="424" y="455" type="line" smooth="yes"/>
      <point x="410" y="486"/>
      <point x="391" y="518"/>
      <point x="379" y="549" type="curve" smooth="yes"/>
      <point x="361" y="598"/>
      <point x="297" y="645"/>
      <point x="297" y="698" type="curve" smooth="yes"/>
      <point x="297" y="755"/>
      <point x="487" y="1149"/>
      <point x="520" y="1247" type="curve" smooth="yes"/>
      <point x="532" y="1282"/>
      <point x="559" y="1415"/>
      <point x="598" y="1421" type="curve"/>
      <point x="625" y="1401" type="line"/>
      <point x="594" y="1202"/>
      <point x="369" y="870"/>
      <point x="369" y="700" type="curve" smooth="yes"/>
      <point x="369" y="675"/>
      <point x="647" y="116"/>
      <point x="684" y="53" type="curve"/>
      <point x="703" y="39" type="line"/>
      <point x="701" y="27"/>
      <point x="688" y="0"/>
      <point x="674" y="0" type="curve" smooth="yes"/>
      <point x="666" y="0"/>
      <point x="657" y="4"/>
      <point x="647" y="4" type="curve" smooth="yes"/>
    </contour>
    <contour>
      <point x="504" y="-35" type="curve" smooth="yes"/>
      <point x="475" y="-35"/>
      <point x="413" y="100"/>
      <point x="399" y="127" type="curve" smooth="yes"/>
      <point x="360" y="201"/>
      <point x="123" y="657"/>
      <point x="123" y="698" type="curve" smooth="yes"/>
      <point x="123" y="725"/>
      <point x="352" y="1274"/>
      <point x="383" y="1358" type="curve"/>
      <point x="383" y="1360" type="line"/>
      <point x="389" y="1376"/>
      <point x="424" y="1466"/>
      <point x="440" y="1466" type="curve" smooth="yes"/>
      <point x="458" y="1466"/>
      <point x="479" y="1458"/>
      <point x="481" y="1438" type="curve"/>
      <point x="442" y="1377"/>
      <point x="418" y="1303"/>
      <point x="391" y="1235" type="curve" smooth="yes"/>
      <point x="344" y="1114"/>
      <point x="299" y="991"/>
      <point x="254" y="868" type="curve" smooth="yes"/>
      <point x="246" y="845"/>
      <point x="196" y="706"/>
      <point x="186" y="692" type="curve"/>
      <point x="192" y="586"/>
      <point x="545" y="25"/>
      <point x="545" y="-12" type="curve" smooth="yes"/>
      <point x="545" y="-26"/>
      <point x="514" y="-35"/>
    </contour>
  </outline>
</glyph>
<glyph name="logicalnot" format="1">
  <advance width="800"/>
  <unicode hex="00AC"/>
  <outline>
    <contour>
      <point x="593" y="700" type="curve" smooth="yes"/>
      <point x="593" y="643"/>
      <point x="593" y="583"/>
      <point x="595" y="530" type="curve" smooth="yes"/>
      <point x="595" y="505"/>
      <point x="577" y="498"/>
      <point x="569" y="498" type="curve" smooth="yes"/>
      <point x="555" y="498"/>
      <point x="534" y="514"/>
      <point x="534" y="528" type="curve" smooth="yes"/>
      <point x="534" y="598"/>
      <point x="528" y="664"/>
      <point x="528" y="727" type="curve" smooth="yes"/>
      <point x="528" y="737"/>
      <point x="522" y="739"/>
      <point x="477" y="739" type="curve" smooth="yes"/>
      <point x="444" y="739" type="line" smooth="yes"/>
      <point x="397" y="739"/>
      <point x="364" y="733"/>
      <point x="317" y="733" type="curve" smooth="yes"/>
      <point x="155" y="733" type="line" smooth="yes"/>
      <point x="157" y="733"/>
      <point x="147" y="754"/>
      <point x="147" y="768" type="curve" smooth="yes"/>
      <point x="147" y="776"/>
      <point x="151" y="782"/>
      <point x="161" y="782" type="curve" smooth="yes"/>
      <point x="171" y="782"/>
      <point x="271" y="791"/>
      <point x="296" y="791" type="curve" smooth="yes"/>
      <point x="366" y="791"/>
      <point x="417" y="797"/>
      <point x="487" y="797" type="curve" smooth="yes"/>
      <point x="510" y="797"/>
      <point x="534" y="797"/>
      <point x="554" y="801" type="curve"/>
      <point x="572" y="799"/>
      <point x="602" y="789"/>
      <point x="602" y="766" type="curve" smooth="yes"/>
      <point x="602" y="739"/>
      <point x="595" y="723"/>
    </contour>
  </outline>
</glyph>
<glyph name="uni00AD" format="1">
  <advance width="720"/>
  <unicode hex="00AD"/>
  <outline>
    <contour>
      <point x="550" y="739" type="curve" smooth="yes"/>
      <point x="550" y="729"/>
      <point x="290" y="721"/>
      <point x="198" y="721" type="curve" smooth="yes"/>
      <point x="180" y="721"/>
      <point x="155" y="733"/>
      <point x="155" y="756" type="curve" smooth="yes"/>
      <point x="155" y="766"/>
      <point x="421" y="774"/>
      <point x="505" y="774" type="curve" smooth="yes"/>
      <point x="523" y="774"/>
      <point x="550" y="759"/>
    </contour>
  </outline>
</glyph>
<glyph name="registered" format="1">
  <advance width="1300"/>
  <unicode hex="00AE"/>
  <outline>
    <contour>
      <point x="499" y="1415" type="curve" smooth="yes"/>
      <point x="499" y="1335"/>
      <point x="503" y="975"/>
      <point x="534" y="975" type="curve" smooth="yes"/>
      <point x="581" y="975"/>
      <point x="719" y="1092"/>
      <point x="735" y="1137" type="curve" smooth="yes"/>
      <point x="749" y="1180"/>
      <point x="753" y="1227"/>
      <point x="753" y="1272" type="curve" smooth="yes"/>
      <point x="753" y="1364"/>
      <point x="753" y="1548"/>
      <point x="622" y="1548" type="curve" smooth="yes"/>
      <point x="511" y="1548"/>
      <point x="499" y="1519"/>
    </contour>
    <contour>
      <point x="532" y="168" type="curve" smooth="yes"/>
      <point x="507" y="168"/>
      <point x="483" y="182"/>
      <point x="483" y="209" type="curve" smooth="yes"/>
      <point x="483" y="297"/>
      <point x="483" y="385"/>
      <point x="475" y="473" type="curve" smooth="yes"/>
      <point x="469" y="541"/>
      <point x="448" y="608"/>
      <point x="448" y="676" type="curve" smooth="yes"/>
      <point x="448" y="1075" type="line" smooth="yes"/>
      <point x="448" y="1202"/>
      <point x="423" y="1321"/>
      <point x="423" y="1454" type="curve" smooth="yes"/>
      <point x="423" y="1593"/>
      <point x="485" y="1612"/>
      <point x="616" y="1612" type="curve" smooth="yes"/>
      <point x="809" y="1612"/>
      <point x="829" y="1420"/>
      <point x="829" y="1270" type="curve" smooth="yes"/>
      <point x="829" y="1022"/>
      <point x="688" y="1032"/>
      <point x="688" y="969" type="curve" smooth="yes"/>
      <point x="688" y="930"/>
      <point x="872" y="291"/>
      <point x="876" y="291" type="curve"/>
      <point x="876" y="289" type="line"/>
      <point x="880" y="275"/>
      <point x="907" y="207"/>
      <point x="907" y="199" type="curve" smooth="yes"/>
      <point x="907" y="187"/>
      <point x="878" y="172"/>
      <point x="868" y="168" type="curve"/>
      <point x="796" y="168"/>
      <point x="745" y="484"/>
      <point x="727" y="545" type="curve" smooth="yes"/>
      <point x="688" y="668"/>
      <point x="637" y="940"/>
      <point x="614" y="940" type="curve" smooth="yes"/>
      <point x="581" y="940"/>
      <point x="563" y="913"/>
      <point x="526" y="913" type="curve"/>
      <point x="524" y="874"/>
      <point x="520" y="836"/>
      <point x="520" y="797" type="curve" smooth="yes"/>
      <point x="520" y="600"/>
      <point x="565" y="408"/>
      <point x="565" y="211" type="curve" smooth="yes"/>
      <point x="565" y="186"/>
      <point x="561" y="168"/>
    </contour>
    <contour>
      <point x="507" y="-84" type="curve"/>
      <point x="527" y="-92"/>
      <point x="559" y="-98"/>
      <point x="575" y="-98" type="curve"/>
      <point x="593" y="-106" type="line"/>
      <point x="1033" y="-106"/>
      <point x="1058" y="377"/>
      <point x="1058" y="707" type="curve" smooth="yes"/>
      <point x="1058" y="988"/>
      <point x="1039" y="1350"/>
      <point x="935" y="1651" type="curve"/>
      <point x="950" y="1667" type="line"/>
      <point x="940" y="1692"/>
      <point x="919" y="1721"/>
      <point x="892" y="1731" type="curve"/>
      <point x="835" y="1790"/>
      <point x="770" y="1855"/>
      <point x="682" y="1855" type="curve" smooth="yes"/>
      <point x="295" y="1855"/>
      <point x="233" y="1333"/>
      <point x="233" y="1042" type="curve" smooth="yes"/>
      <point x="233" y="901"/>
      <point x="247" y="757"/>
      <point x="247" y="616" type="curve" smooth="yes"/>
      <point x="247" y="432"/>
      <point x="261" y="164"/>
      <point x="378" y="12" type="curve" smooth="yes"/>
      <point x="425" y="-49"/>
      <point x="470" y="-47"/>
    </contour>
    <contour>
      <point x="163" y="715" type="curve" smooth="yes"/>
      <point x="163" y="805"/>
      <point x="165" y="895"/>
      <point x="165" y="985" type="curve" smooth="yes"/>
      <point x="165" y="1323"/>
      <point x="208" y="1915"/>
      <point x="667" y="1915" type="curve" smooth="yes"/>
      <point x="782" y="1915"/>
      <point x="899" y="1825"/>
      <point x="962" y="1735" type="curve"/>
      <point x="1011" y="1719"/>
      <point x="997" y="1663"/>
      <point x="1030" y="1632" type="curve"/>
      <point x="1030" y="1585"/>
      <point x="1050" y="1485"/>
      <point x="1058" y="1438" type="curve" smooth="yes"/>
      <point x="1083" y="1270"/>
      <point x="1126" y="1086"/>
      <point x="1126" y="920" type="curve" smooth="yes"/>
      <point x="1126" y="854" type="line" smooth="yes"/>
      <point x="1126" y="637"/>
      <point x="1126" y="146"/>
      <point x="970" y="-12" type="curve" smooth="yes"/>
      <point x="884" y="-100"/>
      <point x="802" y="-166"/>
      <point x="671" y="-166" type="curve" smooth="yes"/>
      <point x="194" y="-166"/>
      <point x="163" y="357"/>
    </contour>
  </outline>
</glyph>
<glyph name="macron" format="1">
  <advance width="720"/>
  <unicode hex="00AF"/>
  <outline>
    <contour>
      <point x="312" y="805" type="move" name="_top"/>
    </contour>
    <contour>
      <point x="550" y="1120" type="curve" smooth="yes"/>
      <point x="548" y="1106"/>
      <point x="491" y="1103"/>
      <point x="419" y="1103" type="curve" smooth="yes"/>
      <point x="304" y="1103" type="line" smooth="yes"/>
      <point x="222" y="1103"/>
      <point x="155" y="1103"/>
      <point x="155" y="1136" type="curve" smooth="yes"/>
      <point x="157" y="1150"/>
      <point x="214" y="1153"/>
      <point x="286" y="1153" type="curve" smooth="yes"/>
      <point x="402" y="1153" type="line" smooth="yes"/>
      <point x="486" y="1153"/>
      <point x="550" y="1153"/>
    </contour>
  </outline>
</glyph>
<glyph name="degree" format="1">
  <advance width="720"/>
  <unicode hex="00B0"/>
  <outline>
    <contour>
      <point x="179" y="1133" type="curve" smooth="yes"/>
      <point x="179" y="1227"/>
      <point x="224" y="1378"/>
      <point x="335" y="1378" type="curve" smooth="yes"/>
      <point x="448" y="1378"/>
      <point x="535" y="1294"/>
      <point x="535" y="1190" type="curve" smooth="yes"/>
      <point x="535" y="1110"/>
      <point x="519" y="965"/>
      <point x="345" y="965" type="curve" smooth="yes"/>
      <point x="247" y="965"/>
      <point x="179" y="1076"/>
    </contour>
    <contour>
      <point x="224" y="1122" type="curve" smooth="yes"/>
      <point x="224" y="1081"/>
      <point x="271" y="1004"/>
      <point x="349" y="1004" type="curve" smooth="yes"/>
      <point x="474" y="1004"/>
      <point x="496" y="1117"/>
      <point x="496" y="1174" type="curve" smooth="yes"/>
      <point x="496" y="1258"/>
      <point x="441" y="1331"/>
      <point x="341" y="1331" type="curve" smooth="yes"/>
      <point x="263" y="1331"/>
      <point x="224" y="1206"/>
    </contour>
  </outline>
</glyph>
<glyph name="uni00B2" format="1">
  <advance width="720"/>
  <unicode hex="00B2"/>
  <outline>
    <contour>
      <point x="147" y="25" type="curve"/>
      <point x="206" y="99"/>
      <point x="218" y="190"/>
      <point x="257" y="274" type="curve" smooth="yes"/>
      <point x="404" y="596"/>
      <point x="491" y="893"/>
      <point x="491" y="1249" type="curve" smooth="yes"/>
      <point x="491" y="1335"/>
      <point x="489" y="1544"/>
      <point x="364" y="1544" type="curve"/>
      <point x="277" y="1505"/>
      <point x="312" y="1366"/>
      <point x="264" y="1366" type="curve" smooth="yes"/>
      <point x="237" y="1366"/>
      <point x="237" y="1387"/>
      <point x="237" y="1407" type="curve" smooth="yes"/>
      <point x="237" y="1466"/>
      <point x="271" y="1585"/>
      <point x="345" y="1585" type="curve" smooth="yes"/>
      <point x="466" y="1585"/>
      <point x="536" y="1477"/>
      <point x="540" y="1366" type="curve"/>
      <point x="536" y="1362" type="line"/>
      <point x="536" y="1313"/>
      <point x="542" y="1261"/>
      <point x="542" y="1212" type="curve" smooth="yes"/>
      <point x="542" y="997"/>
      <point x="474" y="617"/>
      <point x="386" y="420" type="curve" smooth="yes"/>
      <point x="355" y="350"/>
      <point x="225" y="96"/>
      <point x="223" y="41" type="curve"/>
      <point x="239" y="39" type="line"/>
      <point x="313" y="53"/>
      <point x="403" y="57"/>
      <point x="485" y="61" type="curve"/>
      <point x="515" y="29" type="line"/>
      <point x="497" y="2" type="line"/>
      <point x="397" y="2"/>
      <point x="298" y="-16"/>
      <point x="198" y="-16" type="curve" smooth="yes"/>
      <point x="173" y="-16"/>
      <point x="147" y="-2"/>
    </contour>
  </outline>
</glyph>
<glyph name="paragraph" format="1">
  <advance width="1040"/>
  <unicode hex="00B6"/>
  <outline>
    <contour>
      <point x="195" y="1454" type="curve" smooth="yes"/>
      <point x="195" y="1225"/>
      <point x="336" y="1171"/>
      <point x="539" y="1171" type="curve" smooth="yes"/>
      <point x="592" y="1171"/>
      <point x="598" y="1183"/>
      <point x="598" y="1212" type="curve" smooth="yes"/>
      <point x="598" y="1374"/>
      <point x="580" y="1534"/>
      <point x="580" y="1696" type="curve" smooth="yes"/>
      <point x="580" y="1714"/>
      <point x="582" y="1735"/>
      <point x="582" y="1753" type="curve"/>
      <point x="564" y="1771"/>
      <point x="502" y="1772"/>
      <point x="475" y="1772" type="curve" smooth="yes"/>
      <point x="315" y="1772"/>
      <point x="195" y="1604"/>
    </contour>
    <contour>
      <point x="756" y="102" type="curve" smooth="yes"/>
      <point x="756" y="460"/>
      <point x="774" y="818"/>
      <point x="774" y="1176" type="curve" smooth="yes"/>
      <point x="774" y="1326"/>
      <point x="760" y="1472"/>
      <point x="760" y="1622" type="curve" smooth="yes"/>
      <point x="760" y="1645"/>
      <point x="762" y="1665"/>
      <point x="762" y="1688" type="curve" smooth="yes"/>
      <point x="762" y="1745"/>
      <point x="750" y="1792"/>
      <point x="668" y="1792" type="curve" smooth="yes"/>
      <point x="645" y="1792"/>
      <point x="645" y="1704"/>
      <point x="645" y="1688" type="curve" smooth="yes"/>
      <point x="645" y="1452"/>
      <point x="672" y="1215"/>
      <point x="672" y="979" type="curve" smooth="yes"/>
      <point x="672" y="672"/>
      <point x="651" y="364"/>
      <point x="633" y="57" type="curve" smooth="yes"/>
      <point x="635" y="53"/>
      <point x="637" y="49"/>
      <point x="637" y="45" type="curve" smooth="yes"/>
      <point x="637" y="27"/>
      <point x="612" y="14"/>
      <point x="598" y="14" type="curve" smooth="yes"/>
      <point x="571" y="14"/>
      <point x="559" y="28"/>
      <point x="559" y="55" type="curve" smooth="yes"/>
      <point x="559" y="358"/>
      <point x="602" y="660"/>
      <point x="602" y="963" type="curve" smooth="yes"/>
      <point x="602" y="1016"/>
      <point x="598" y="1067"/>
      <point x="598" y="1120" type="curve"/>
      <point x="426" y="1120" type="line"/>
      <point x="297" y="1173"/>
      <point x="186" y="1157"/>
      <point x="143" y="1325" type="curve" smooth="yes"/>
      <point x="137" y="1348"/>
      <point x="143" y="1369"/>
      <point x="131" y="1389" type="curve"/>
      <point x="131" y="1514"/>
      <point x="168" y="1691"/>
      <point x="285" y="1757" type="curve" smooth="yes"/>
      <point x="332" y="1784"/>
      <point x="387" y="1788"/>
      <point x="436" y="1808" type="curve" smooth="yes"/>
      <point x="489" y="1831"/>
      <point x="557" y="1823"/>
      <point x="614" y="1831" type="curve"/>
      <point x="624" y="1849"/>
      <point x="645" y="1851"/>
      <point x="663" y="1851" type="curve" smooth="yes"/>
      <point x="690" y="1851"/>
      <point x="714" y="1835"/>
      <point x="743" y="1835" type="curve" smooth="yes"/>
      <point x="759" y="1835"/>
      <point x="774" y="1835"/>
      <point x="790" y="1839" type="curve"/>
      <point x="817" y="1806"/>
      <point x="907" y="1831"/>
      <point x="907" y="1790" type="curve" smooth="yes"/>
      <point x="907" y="1767"/>
      <point x="884" y="1761"/>
      <point x="866" y="1761" type="curve" smooth="yes"/>
      <point x="854" y="1761"/>
      <point x="839" y="1763"/>
      <point x="827" y="1765" type="curve"/>
      <point x="827" y="1556"/>
      <point x="842" y="1350"/>
      <point x="842" y="1141" type="curve" smooth="yes"/>
      <point x="842" y="848"/>
      <point x="829" y="557"/>
      <point x="829" y="264" type="curve" smooth="yes"/>
      <point x="829" y="188"/>
      <point x="842" y="111"/>
      <point x="842" y="35" type="curve" smooth="yes"/>
      <point x="842" y="15"/>
      <point x="825" y="2"/>
      <point x="807" y="2" type="curve" smooth="yes"/>
      <point x="758" y="2"/>
      <point x="756" y="67"/>
    </contour>
  </outline>
</glyph>
<glyph name="periodcentered" format="1">
  <advance width="520"/>
  <unicode hex="00B7"/>
  <outline>
    <contour>
      <point x="203" y="745" type="curve" smooth="yes"/>
      <point x="203" y="772"/>
      <point x="229" y="801"/>
      <point x="256" y="801" type="curve" smooth="yes"/>
      <point x="281" y="801"/>
      <point x="305" y="771"/>
      <point x="305" y="748" type="curve" smooth="yes"/>
      <point x="305" y="711"/>
      <point x="281" y="696"/>
      <point x="248" y="696" type="curve" smooth="yes"/>
      <point x="223" y="696"/>
      <point x="203" y="722"/>
    </contour>
  </outline>
</glyph>
<glyph name="onehalf" format="1">
  <advance width="1640"/>
  <unicode hex="00BD"/>
  <outline>
    <contour>
      <point x="1149" y="25" type="curve"/>
      <point x="1208" y="99"/>
      <point x="1221" y="190"/>
      <point x="1260" y="274" type="curve" smooth="yes"/>
      <point x="1407" y="596"/>
      <point x="1493" y="893"/>
      <point x="1493" y="1249" type="curve" smooth="yes"/>
      <point x="1493" y="1335"/>
      <point x="1491" y="1544"/>
      <point x="1366" y="1544" type="curve"/>
      <point x="1279" y="1505"/>
      <point x="1314" y="1366"/>
      <point x="1266" y="1366" type="curve" smooth="yes"/>
      <point x="1239" y="1366"/>
      <point x="1239" y="1387"/>
      <point x="1239" y="1407" type="curve" smooth="yes"/>
      <point x="1239" y="1466"/>
      <point x="1274" y="1585"/>
      <point x="1348" y="1585" type="curve" smooth="yes"/>
      <point x="1469" y="1585"/>
      <point x="1538" y="1477"/>
      <point x="1542" y="1366" type="curve"/>
      <point x="1538" y="1362" type="line"/>
      <point x="1538" y="1313"/>
      <point x="1544" y="1261"/>
      <point x="1544" y="1212" type="curve" smooth="yes"/>
      <point x="1544" y="997"/>
      <point x="1477" y="617"/>
      <point x="1389" y="420" type="curve" smooth="yes"/>
      <point x="1358" y="350"/>
      <point x="1227" y="96"/>
      <point x="1225" y="41" type="curve"/>
      <point x="1241" y="39" type="line"/>
      <point x="1315" y="53"/>
      <point x="1405" y="57"/>
      <point x="1487" y="61" type="curve"/>
      <point x="1518" y="29" type="line"/>
      <point x="1499" y="2" type="line"/>
      <point x="1399" y="2"/>
      <point x="1300" y="-16"/>
      <point x="1200" y="-16" type="curve" smooth="yes"/>
      <point x="1175" y="-16"/>
      <point x="1149" y="-2"/>
    </contour>
    <contour>
      <point x="991" y="1505" type="curve" smooth="yes"/>
      <point x="991" y="1489"/>
      <point x="954" y="1337"/>
      <point x="950" y="1317" type="curve" smooth="yes"/>
      <point x="876" y="977"/>
      <point x="797" y="641"/>
      <point x="719" y="299" type="curve" smooth="yes"/>
      <point x="678" y="121" type="line" smooth="yes"/>
      <point x="668" y="78"/>
      <point x="662" y="-2"/>
      <point x="619" y="-6" type="curve"/>
      <point x="607" y="2"/>
      <point x="598" y="17"/>
      <point x="598" y="31" type="curve" smooth="yes"/>
      <point x="598" y="129"/>
      <point x="643" y="268"/>
      <point x="670" y="387" type="curve" smooth="yes"/>
      <point x="750" y="741"/>
      <point x="834" y="1096"/>
      <point x="926" y="1448" type="curve" smooth="yes"/>
      <point x="930" y="1460"/>
      <point x="945" y="1532"/>
      <point x="961" y="1532" type="curve" smooth="yes"/>
      <point x="977" y="1532"/>
      <point x="991" y="1523"/>
    </contour>
    <contour>
      <point x="103" y="37" type="curve"/>
      <point x="113" y="57" type="line"/>
      <point x="131" y="57"/>
      <point x="150" y="55"/>
      <point x="168" y="55" type="curve" smooth="yes"/>
      <point x="207" y="55"/>
      <point x="219" y="72"/>
      <point x="219" y="111" type="curve" smooth="yes"/>
      <point x="219" y="502"/>
      <point x="185" y="893"/>
      <point x="160" y="1284" type="curve" smooth="yes"/>
      <point x="160" y="1307"/>
      <point x="162" y="1329"/>
      <point x="162" y="1354" type="curve" smooth="yes"/>
      <point x="162" y="1420"/>
      <point x="150" y="1483"/>
      <point x="68" y="1483" type="curve" smooth="yes"/>
      <point x="52" y="1483"/>
      <point x="37" y="1479"/>
      <point x="21" y="1479" type="curve" smooth="yes"/>
      <point x="7" y="1479"/>
      <point x="-12" y="1481"/>
      <point x="-12" y="1501" type="curve" smooth="yes"/>
      <point x="-12" y="1530"/>
      <point x="139" y="1530"/>
      <point x="166" y="1530" type="curve" smooth="yes"/>
      <point x="184" y="1530"/>
      <point x="199" y="1515"/>
      <point x="199" y="1497" type="curve"/>
      <point x="203" y="1497" type="line"/>
      <point x="199" y="1477"/>
      <point x="197" y="1454"/>
      <point x="197" y="1434" type="curve" smooth="yes"/>
      <point x="197" y="1305"/>
      <point x="228" y="1176"/>
      <point x="228" y="1047" type="curve" smooth="yes"/>
      <point x="228" y="818"/>
      <point x="262" y="589"/>
      <point x="262" y="360" type="curve" smooth="yes"/>
      <point x="262" y="352"/>
      <point x="260" y="342"/>
      <point x="258" y="334" type="curve" smooth="yes"/>
      <point x="266" y="303"/>
      <point x="271" y="143"/>
      <point x="271" y="102" type="curve" smooth="yes"/>
      <point x="271" y="92"/>
      <point x="268" y="82"/>
      <point x="268" y="72" type="curve"/>
      <point x="277" y="66" type="line"/>
      <point x="308" y="66"/>
      <point x="338" y="72"/>
      <point x="369" y="72" type="curve" smooth="yes"/>
      <point x="387" y="72"/>
      <point x="432" y="72"/>
      <point x="432" y="43" type="curve" smooth="yes"/>
      <point x="432" y="18"/>
      <point x="405" y="14"/>
      <point x="387" y="14" type="curve" smooth="yes"/>
      <point x="303" y="14"/>
      <point x="219" y="6"/>
      <point x="135" y="6" type="curve" smooth="yes"/>
      <point x="117" y="6"/>
      <point x="103" y="19"/>
    </contour>
  </outline>
</glyph>
<glyph name="threequarters" format="1">
  <advance width="1480"/>
  <unicode hex="00BE"/>
  <outline>
    <contour>
      <point x="1269" y="61" type="line"/>
      <point x="1267" y="66" type="line"/>
      <point x="1273" y="91"/>
      <point x="1275" y="114"/>
      <point x="1275" y="139" type="curve" smooth="yes"/>
      <point x="1275" y="209"/>
      <point x="1261" y="278"/>
      <point x="1261" y="348" type="curve" smooth="yes"/>
      <point x="1261" y="379"/>
      <point x="1265" y="409"/>
      <point x="1265" y="440" type="curve" smooth="yes"/>
      <point x="1265" y="460"/>
      <point x="1264" y="520"/>
      <point x="1244" y="530" type="curve"/>
      <point x="1203" y="530"/>
      <point x="1165" y="518"/>
      <point x="1124" y="518" type="curve" smooth="yes"/>
      <point x="1091" y="518"/>
      <point x="1093" y="523"/>
      <point x="1068" y="541" type="curve"/>
      <point x="1068" y="547" type="line" smooth="yes"/>
      <point x="1068" y="570"/>
      <point x="1075" y="592"/>
      <point x="1079" y="612" type="curve"/>
      <point x="1060" y="653" type="line"/>
      <point x="1060" y="688"/>
      <point x="1079" y="719"/>
      <point x="1079" y="754" type="curve" smooth="yes"/>
      <point x="1079" y="887"/>
      <point x="1099" y="1022"/>
      <point x="1099" y="1155" type="curve" smooth="yes"/>
      <point x="1099" y="1481" type="line" smooth="yes"/>
      <point x="1099" y="1497"/>
      <point x="1091" y="1516"/>
      <point x="1091" y="1532" type="curve" smooth="yes"/>
      <point x="1091" y="1548"/>
      <point x="1099" y="1559"/>
      <point x="1115" y="1559" type="curve" smooth="yes"/>
      <point x="1131" y="1559"/>
      <point x="1152" y="1550"/>
      <point x="1152" y="1530" type="curve" smooth="yes"/>
      <point x="1152" y="1475"/>
      <point x="1144" y="1421"/>
      <point x="1144" y="1366" type="curve" smooth="yes"/>
      <point x="1144" y="1343"/>
      <point x="1146" y="1319"/>
      <point x="1150" y="1296" type="curve"/>
      <point x="1146" y="1290" type="line"/>
      <point x="1148" y="1272"/>
      <point x="1150" y="1253"/>
      <point x="1150" y="1233" type="curve" smooth="yes"/>
      <point x="1150" y="1061"/>
      <point x="1126" y="889"/>
      <point x="1126" y="717" type="curve" smooth="yes"/>
      <point x="1126" y="697"/>
      <point x="1140" y="677"/>
      <point x="1140" y="657" type="curve" smooth="yes"/>
      <point x="1140" y="637"/>
      <point x="1126" y="622"/>
      <point x="1126" y="602" type="curve" smooth="yes"/>
      <point x="1126" y="588"/>
      <point x="1126" y="563"/>
      <point x="1146" y="563" type="curve" smooth="yes"/>
      <point x="1169" y="563"/>
      <point x="1231" y="572"/>
      <point x="1249" y="582" type="curve"/>
      <point x="1249" y="729"/>
      <point x="1240" y="877"/>
      <point x="1234" y="1024" type="curve" smooth="yes"/>
      <point x="1232" y="1079"/>
      <point x="1218" y="1133"/>
      <point x="1218" y="1188" type="curve" smooth="yes"/>
      <point x="1218" y="1206"/>
      <point x="1243" y="1212"/>
      <point x="1257" y="1212" type="curve"/>
      <point x="1275" y="1190" type="line"/>
      <point x="1275" y="1094"/>
      <point x="1287" y="997"/>
      <point x="1287" y="901" type="curve" smooth="yes"/>
      <point x="1287" y="860"/>
      <point x="1294" y="596"/>
      <point x="1308" y="582" type="curve"/>
      <point x="1333" y="582"/>
      <point x="1357" y="590"/>
      <point x="1384" y="590" type="curve" smooth="yes"/>
      <point x="1398" y="590"/>
      <point x="1423" y="587"/>
      <point x="1423" y="567" type="curve" smooth="yes"/>
      <point x="1423" y="514"/>
      <point x="1308" y="576"/>
      <point x="1308" y="498" type="curve" smooth="yes"/>
      <point x="1308" y="451"/>
      <point x="1316" y="177"/>
      <point x="1326" y="152" type="curve"/>
      <point x="1324" y="144"/>
      <point x="1324" y="131"/>
      <point x="1324" y="117" type="curve" smooth="yes"/>
      <point x="1324" y="99"/>
      <point x="1326" y="78"/>
      <point x="1332" y="68" type="curve"/>
      <point x="1326" y="43" type="line"/>
      <point x="1332" y="29" type="line"/>
      <point x="1332" y="0" type="line"/>
      <point x="1300" y="-25" type="line"/>
      <point x="1269" y="-12" type="line"/>
    </contour>
    <contour>
      <point x="888" y="1505" type="curve" smooth="yes"/>
      <point x="888" y="1489"/>
      <point x="851" y="1337"/>
      <point x="847" y="1317" type="curve" smooth="yes"/>
      <point x="773" y="977"/>
      <point x="694" y="641"/>
      <point x="616" y="299" type="curve" smooth="yes"/>
      <point x="575" y="121" type="line" smooth="yes"/>
      <point x="565" y="78"/>
      <point x="558" y="-2"/>
      <point x="515" y="-6" type="curve"/>
      <point x="503" y="2"/>
      <point x="495" y="17"/>
      <point x="495" y="31" type="curve" smooth="yes"/>
      <point x="495" y="129"/>
      <point x="540" y="268"/>
      <point x="567" y="387" type="curve" smooth="yes"/>
      <point x="647" y="741"/>
      <point x="731" y="1096"/>
      <point x="823" y="1448" type="curve" smooth="yes"/>
      <point x="827" y="1460"/>
      <point x="841" y="1532"/>
      <point x="857" y="1532" type="curve" smooth="yes"/>
      <point x="873" y="1532"/>
      <point x="888" y="1523"/>
    </contour>
    <contour>
      <point x="14" y="74" type="curve"/>
      <point x="30" y="84" type="line"/>
      <point x="63" y="82"/>
      <point x="89" y="53"/>
      <point x="118" y="37" type="curve"/>
      <point x="257" y="37"/>
      <point x="274" y="191"/>
      <point x="274" y="297" type="curve" smooth="yes"/>
      <point x="274" y="485"/>
      <point x="269" y="697"/>
      <point x="134" y="844" type="curve"/>
      <point x="128" y="844"/>
      <point x="122" y="842"/>
      <point x="114" y="842" type="curve" smooth="yes"/>
      <point x="102" y="842"/>
      <point x="87" y="844"/>
      <point x="75" y="850" type="curve"/>
      <point x="75" y="858" type="line"/>
      <point x="65" y="868" type="line"/>
      <point x="67" y="893"/>
      <point x="196" y="983"/>
      <point x="196" y="1130" type="curve" smooth="yes"/>
      <point x="196" y="1214"/>
      <point x="186" y="1491"/>
      <point x="65" y="1491" type="curve" smooth="yes"/>
      <point x="-30" y="1491"/>
      <point x="-18" y="1374"/>
      <point x="-65" y="1374" type="curve" smooth="yes"/>
      <point x="-81" y="1374"/>
      <point x="-98" y="1387"/>
      <point x="-100" y="1403" type="curve"/>
      <point x="-63" y="1479"/>
      <point x="-18" y="1540"/>
      <point x="71" y="1540" type="curve" smooth="yes"/>
      <point x="106" y="1540"/>
      <point x="143" y="1518"/>
      <point x="163" y="1491" type="curve"/>
      <point x="169" y="1489" type="line"/>
      <point x="239" y="1387"/>
      <point x="251" y="1223"/>
      <point x="251" y="1102" type="curve" smooth="yes"/>
      <point x="251" y="1061"/>
      <point x="234" y="1022"/>
      <point x="214" y="987" type="curve"/>
      <point x="198" y="975"/>
      <point x="167" y="912"/>
      <point x="147" y="889" type="curve"/>
      <point x="288" y="834"/>
      <point x="284" y="631"/>
      <point x="313" y="508" type="curve" smooth="yes"/>
      <point x="329" y="438"/>
      <point x="329" y="441"/>
      <point x="329" y="367" type="curve" smooth="yes"/>
      <point x="329" y="236"/>
      <point x="323" y="-2"/>
      <point x="141" y="-2" type="curve" smooth="yes"/>
      <point x="98" y="-2"/>
      <point x="14" y="21"/>
    </contour>
  </outline>
</glyph>
<glyph name="AE" format="1">
  <advance width="940"/>
  <unicode hex="00C6"/>
  <outline>
    <contour>
      <point x="504" y="1393" type="curve"/>
      <point x="479" y="1362"/>
      <point x="310" y="727"/>
      <point x="304" y="664" type="curve"/>
      <point x="363" y="666"/>
      <point x="454" y="674"/>
      <point x="509" y="688" type="curve"/>
      <point x="511" y="844"/>
      <point x="517" y="997"/>
      <point x="517" y="1153" type="curve" smooth="yes"/>
      <point x="517" y="1235"/>
      <point x="514" y="1315"/>
    </contour>
    <contour>
      <point x="504" y="-12" type="line"/>
      <point x="516" y="68"/>
      <point x="521" y="147"/>
      <point x="521" y="229" type="curve" smooth="yes"/>
      <point x="521" y="360"/>
      <point x="511" y="492"/>
      <point x="511" y="621" type="curve"/>
      <point x="500" y="635" type="line"/>
      <point x="469" y="629"/>
      <point x="295" y="625"/>
      <point x="289" y="600" type="curve" smooth="yes"/>
      <point x="187" y="209" type="line" smooth="yes"/>
      <point x="177" y="174"/>
      <point x="152" y="2"/>
      <point x="115" y="2" type="curve" smooth="yes"/>
      <point x="105" y="2"/>
      <point x="99" y="19"/>
      <point x="99" y="27" type="curve" smooth="yes"/>
      <point x="101" y="121"/>
      <point x="156" y="336"/>
      <point x="181" y="432" type="curve" smooth="yes"/>
      <point x="263" y="756"/>
      <point x="351" y="1076"/>
      <point x="449" y="1393" type="curve" smooth="yes"/>
      <point x="461" y="1434"/>
      <point x="488" y="1544"/>
      <point x="543" y="1544" type="curve" smooth="yes"/>
      <point x="594" y="1544"/>
      <point x="648" y="1554"/>
      <point x="701" y="1554" type="curve" smooth="yes"/>
      <point x="721" y="1554"/>
      <point x="765" y="1551"/>
      <point x="765" y="1522" type="curve"/>
      <point x="752" y="1497" type="line"/>
      <point x="684" y="1497"/>
      <point x="618" y="1493"/>
      <point x="550" y="1485" type="curve"/>
      <point x="550" y="1385"/>
      <point x="564" y="1282"/>
      <point x="564" y="1180" type="curve" smooth="yes"/>
      <point x="564" y="1020"/>
      <point x="558" y="862"/>
      <point x="558" y="702" type="curve"/>
      <point x="568" y="690" type="line"/>
      <point x="623" y="690"/>
      <point x="675" y="711"/>
      <point x="730" y="711" type="curve"/>
      <point x="758" y="676" type="line"/>
      <point x="758" y="644"/>
      <point x="679" y="641"/>
      <point x="612" y="641" type="curve" smooth="yes"/>
      <point x="558" y="641" type="line"/>
      <point x="558" y="479"/>
      <point x="566" y="318"/>
      <point x="566" y="154" type="curve" smooth="yes"/>
      <point x="566" y="125"/>
      <point x="564" y="99"/>
      <point x="564" y="70" type="curve" smooth="yes"/>
      <point x="564" y="60"/>
      <point x="564" y="35"/>
      <point x="582" y="35" type="curve" smooth="yes"/>
      <point x="660" y="35"/>
      <point x="736" y="57"/>
      <point x="814" y="57" type="curve" smooth="yes"/>
      <point x="828" y="57"/>
      <point x="859" y="51"/>
      <point x="859" y="31" type="curve" smooth="yes"/>
      <point x="859" y="-18"/>
      <point x="615" y="2"/>
      <point x="580" y="-14" type="curve" smooth="yes"/>
      <point x="562" y="-24"/>
      <point x="553" y="-39"/>
      <point x="533" y="-41" type="curve"/>
    </contour>
  </outline>
</glyph>
<glyph name="Oslash" format="1">
  <advance width="760"/>
  <unicode hex="00D8"/>
  <outline>
    <contour>
      <point x="241" y="705" type="curve"/>
      <point x="241" y="562"/>
      <point x="265" y="417"/>
      <point x="265" y="274" type="curve"/>
      <point x="288" y="303"/>
      <point x="360" y="1112"/>
      <point x="372" y="1227" type="curve" smooth="yes"/>
      <point x="380" y="1303"/>
      <point x="396" y="1378"/>
      <point x="396" y="1456" type="curve" smooth="yes"/>
      <point x="396" y="1491"/>
      <point x="362" y="1513"/>
      <point x="331" y="1513" type="curve" smooth="yes"/>
      <point x="327" y="1513"/>
      <point x="304" y="1503"/>
      <point x="298" y="1501" type="curve"/>
      <point x="286" y="1505" type="line"/>
      <point x="225" y="1468"/>
      <point x="222" y="1002"/>
      <point x="222" y="852" type="curve" smooth="yes"/>
      <point x="222" y="839" type="line" smooth="yes"/>
      <point x="222" y="796"/>
      <point x="223" y="746"/>
    </contour>
    <contour>
      <point x="294" y="119" type="curve" smooth="yes"/>
      <point x="294" y="51"/>
      <point x="318" y="23"/>
      <point x="384" y="23" type="curve" smooth="yes"/>
      <point x="517" y="23"/>
      <point x="517" y="311"/>
      <point x="517" y="399" type="curve" smooth="yes"/>
      <point x="517" y="596"/>
      <point x="514" y="1250"/>
      <point x="444" y="1389" type="curve"/>
      <point x="381" y="1002"/>
      <point x="382" y="598"/>
      <point x="308" y="215" type="curve" smooth="yes"/>
      <point x="302" y="182"/>
      <point x="294" y="150"/>
    </contour>
    <contour>
      <point x="212" y="-264" type="curve"/>
      <point x="181" y="-240" type="line"/>
      <point x="183" y="-162"/>
      <point x="204" y="-135"/>
      <point x="241" y="111" type="curve" smooth="yes"/>
      <point x="241" y="136"/>
      <point x="226" y="159"/>
      <point x="222" y="184" type="curve" smooth="yes"/>
      <point x="182" y="434"/>
      <point x="179" y="698"/>
      <point x="179" y="952" type="curve" smooth="yes"/>
      <point x="179" y="1081" type="line" smooth="yes"/>
      <point x="179" y="1194"/>
      <point x="179" y="1569"/>
      <point x="329" y="1569" type="curve" smooth="yes"/>
      <point x="349" y="1569"/>
      <point x="372" y="1546"/>
      <point x="388" y="1546" type="curve"/>
      <point x="396" y="1550" type="line"/>
      <point x="407" y="1540" type="line"/>
      <point x="436" y="1624"/>
      <point x="442" y="1714"/>
      <point x="460" y="1798" type="curve"/>
      <point x="497" y="1798" type="line"/>
      <point x="495" y="1739" type="line"/>
      <point x="485" y="1673"/>
      <point x="452" y="1491"/>
      <point x="452" y="1491" type="curve"/>
      <point x="452" y="1468"/>
      <point x="468" y="1448"/>
      <point x="482" y="1432" type="curve"/>
      <point x="480" y="1427" type="line"/>
      <point x="484" y="1404"/>
      <point x="501" y="1384"/>
      <point x="511" y="1366" type="curve" smooth="yes"/>
      <point x="527" y="1327"/>
      <point x="534" y="1272"/>
      <point x="534" y="1229" type="curve"/>
      <point x="530" y="1227" type="line"/>
      <point x="530" y="1104"/>
      <point x="560" y="973"/>
      <point x="560" y="850" type="curve" smooth="yes"/>
      <point x="560" y="838" type="line"/>
      <point x="564" y="831" type="line"/>
      <point x="564" y="702"/>
      <point x="571" y="573"/>
      <point x="571" y="444" type="curve" smooth="yes"/>
      <point x="571" y="303"/>
      <point x="569" y="-20"/>
      <point x="368" y="-20" type="curve" smooth="yes"/>
      <point x="331" y="-20"/>
      <point x="290" y="-11"/>
      <point x="267" y="20" type="curve"/>
      <point x="265" y="20" type="line"/>
      <point x="257" y="-31"/>
      <point x="230" y="-174"/>
    </contour>
  </outline>
</glyph>
<glyph name="eth" format="1">
  <advance width="680"/>
  <unicode hex="00F0"/>
  <outline>
    <contour>
      <point x="437" y="727" type="curve" smooth="yes"/>
      <point x="437" y="844" type="line"/>
      <point x="437" y="844"/>
      <point x="416" y="860"/>
      <point x="375" y="868" type="curve"/>
      <point x="236" y="868"/>
      <point x="228" y="291"/>
      <point x="228" y="174" type="curve" smooth="yes"/>
      <point x="228" y="123"/>
      <point x="230" y="12"/>
      <point x="304" y="12" type="curve" smooth="yes"/>
      <point x="400" y="12"/>
      <point x="396" y="100"/>
      <point x="404" y="166" type="curve" smooth="yes"/>
      <point x="427" y="352"/>
      <point x="437" y="539"/>
    </contour>
    <contour>
      <point x="543" y="1313" type="curve" smooth="yes"/>
      <point x="543" y="1311"/>
      <point x="504" y="1302"/>
      <point x="455" y="1296" type="curve"/>
      <point x="488" y="1116"/>
      <point x="490" y="899"/>
      <point x="490" y="815" type="curve" smooth="yes"/>
      <point x="490" y="807" type="line" smooth="yes"/>
      <point x="490" y="660"/>
      <point x="486" y="514"/>
      <point x="480" y="369" type="curve"/>
      <point x="464" y="258"/>
      <point x="488" y="-29"/>
      <point x="320" y="-29" type="curve" smooth="yes"/>
      <point x="195" y="-29"/>
      <point x="179" y="70"/>
      <point x="179" y="170" type="curve" smooth="yes"/>
      <point x="179" y="334"/>
      <point x="181" y="913"/>
      <point x="392" y="913" type="curve" smooth="yes"/>
      <point x="406" y="913"/>
      <point x="425" y="905"/>
      <point x="437" y="897" type="curve"/>
      <point x="435" y="960"/>
      <point x="427" y="1141"/>
      <point x="404" y="1288" type="curve"/>
      <point x="347" y="1282"/>
      <point x="290" y="1276"/>
      <point x="257" y="1276" type="curve" smooth="yes"/>
      <point x="251" y="1276"/>
      <point x="246" y="1280"/>
      <point x="246" y="1284" type="curve" smooth="yes"/>
      <point x="246" y="1290"/>
      <point x="246" y="1313"/>
      <point x="269" y="1313" type="curve" smooth="yes"/>
      <point x="314" y="1313"/>
      <point x="357" y="1317"/>
      <point x="400" y="1323" type="curve"/>
      <point x="386" y="1407"/>
      <point x="366" y="1474"/>
      <point x="339" y="1497" type="curve" smooth="yes"/>
      <point x="321" y="1513"/>
      <point x="269" y="1521"/>
      <point x="269" y="1550" type="curve" smooth="yes"/>
      <point x="269" y="1560"/>
      <point x="285" y="1569"/>
      <point x="293" y="1569" type="curve" smooth="yes"/>
      <point x="375" y="1569"/>
      <point x="422" y="1462"/>
      <point x="451" y="1329" type="curve"/>
      <point x="478" y="1331"/>
      <point x="504" y="1333"/>
      <point x="533" y="1333" type="curve" smooth="yes"/>
      <point x="543" y="1333"/>
      <point x="545" y="1329"/>
      <point x="545" y="1323" type="curve" smooth="yes"/>
      <point x="545" y="1319"/>
      <point x="543" y="1313"/>
    </contour>
  </outline>
</glyph>
<glyph name="divide" format="1">
  <advance width="720"/>
  <unicode hex="00F7"/>
  <outline>
    <contour>
      <point x="401" y="467" type="curve" smooth="yes"/>
      <point x="378" y="467"/>
      <point x="350" y="491"/>
      <point x="350" y="516" type="curve" smooth="yes"/>
      <point x="350" y="549"/>
      <point x="392" y="557"/>
      <point x="417" y="557" type="curve" smooth="yes"/>
      <point x="442" y="557"/>
      <point x="452" y="526"/>
      <point x="452" y="506" type="curve" smooth="yes"/>
      <point x="452" y="481"/>
      <point x="421" y="467"/>
    </contour>
    <contour>
      <point x="399" y="928" type="curve" smooth="yes"/>
      <point x="374" y="928"/>
      <point x="348" y="952"/>
      <point x="348" y="977" type="curve" smooth="yes"/>
      <point x="348" y="1000"/>
      <point x="377" y="1022"/>
      <point x="397" y="1022" type="curve" smooth="yes"/>
      <point x="430" y="1022"/>
      <point x="444" y="1000"/>
      <point x="444" y="969" type="curve" smooth="yes"/>
      <point x="444" y="946"/>
      <point x="419" y="928"/>
    </contour>
    <contour>
      <point x="530" y="725" type="curve" smooth="yes"/>
      <point x="493" y="723"/>
      <point x="478" y="721"/>
      <point x="417" y="721" type="curve" smooth="yes"/>
      <point x="198" y="721" type="line" smooth="yes"/>
      <point x="178" y="721"/>
      <point x="155" y="733"/>
      <point x="155" y="756" type="curve" smooth="yes"/>
      <point x="155" y="762"/>
      <point x="254" y="762"/>
      <point x="356" y="762" type="curve" smooth="yes"/>
      <point x="546" y="762" type="line" smooth="yes"/>
      <point x="556" y="762"/>
      <point x="569" y="751"/>
      <point x="569" y="741" type="curve" smooth="yes"/>
      <point x="569" y="733"/>
      <point x="561" y="725"/>
    </contour>
  </outline>
</glyph>
<glyph name="thorn" format="1">
  <advance width="660"/>
  <unicode hex="00FE"/>
  <outline>
    <contour>
      <point x="251" y="766" type="line"/>
      <point x="253" y="758"/>
      <point x="257" y="747"/>
      <point x="259" y="739" type="curve"/>
      <point x="274" y="739" type="line" smooth="yes"/>
      <point x="393" y="739"/>
      <point x="409" y="903"/>
      <point x="409" y="1012" type="curve" smooth="yes"/>
      <point x="409" y="1061"/>
      <point x="405" y="1096"/>
      <point x="403" y="1139" type="curve"/>
      <point x="399" y="1143" type="line"/>
      <point x="395" y="1202"/>
      <point x="376" y="1313"/>
      <point x="296" y="1313" type="curve" smooth="yes"/>
      <point x="257" y="1313"/>
      <point x="251" y="1144"/>
      <point x="251" y="1044" type="curve" smooth="yes"/>
      <point x="251" y="970"/>
      <point x="253" y="967"/>
      <point x="253" y="934" type="curve" smooth="yes"/>
      <point x="253" y="887"/>
      <point x="251" y="840"/>
      <point x="251" y="791" type="curve" smooth="yes"/>
    </contour>
    <contour>
      <point x="253" y="248" type="curve"/>
      <point x="243" y="230"/>
      <point x="241" y="191"/>
      <point x="241" y="150" type="curve" smooth="yes"/>
      <point x="241" y="113"/>
      <point x="243" y="77"/>
      <point x="243" y="57" type="curve"/>
      <point x="349" y="57"/>
      <point x="427" y="181"/>
      <point x="427" y="279" type="curve" smooth="yes"/>
      <point x="427" y="281"/>
      <point x="428" y="299"/>
      <point x="428" y="325" type="curve" smooth="yes"/>
      <point x="428" y="428"/>
      <point x="412" y="668"/>
      <point x="257" y="668" type="curve"/>
      <point x="251" y="576"/>
      <point x="247" y="483"/>
      <point x="247" y="389" type="curve" smooth="yes"/>
      <point x="247" y="342" type="line" smooth="yes"/>
      <point x="247" y="310"/>
      <point x="248" y="277"/>
    </contour>
    <contour>
      <point x="173" y="20" type="curve" smooth="yes"/>
      <point x="171" y="40"/>
      <point x="171" y="61"/>
      <point x="171" y="84" type="curve" smooth="yes"/>
      <point x="171" y="227"/>
      <point x="192" y="373"/>
      <point x="192" y="516" type="curve" smooth="yes"/>
      <point x="192" y="577"/>
      <point x="188" y="639"/>
      <point x="188" y="698" type="curve" smooth="yes"/>
      <point x="188" y="862"/>
      <point x="200" y="1024"/>
      <point x="200" y="1188" type="curve" smooth="yes"/>
      <point x="200" y="1227"/>
      <point x="200" y="1266"/>
      <point x="198" y="1307" type="curve"/>
      <point x="190" y="1317" type="line"/>
      <point x="190" y="1329" type="line" smooth="yes"/>
      <point x="190" y="1358"/>
      <point x="196" y="1382"/>
      <point x="233" y="1382" type="curve" smooth="yes"/>
      <point x="260" y="1382"/>
      <point x="415" y="1344"/>
      <point x="417" y="1315" type="curve"/>
      <point x="417" y="1315"/>
      <point x="415" y="1311"/>
      <point x="415" y="1309" type="curve" smooth="yes"/>
      <point x="468" y="1225"/>
      <point x="479" y="1149"/>
      <point x="479" y="1038" type="curve" smooth="yes"/>
      <point x="479" y="954"/>
      <point x="473" y="869"/>
      <point x="446" y="795" type="curve"/>
      <point x="448" y="795" type="line"/>
      <point x="434" y="762"/>
      <point x="406" y="729"/>
      <point x="388" y="698" type="curve"/>
      <point x="474" y="630"/>
      <point x="485" y="495"/>
      <point x="489" y="399" type="curve" smooth="yes"/>
      <point x="491" y="346" type="line"/>
      <point x="491" y="317" type="line" smooth="yes"/>
      <point x="491" y="145"/>
      <point x="405" y="-23"/>
      <point x="212" y="-23" type="curve" smooth="yes"/>
      <point x="187" y="-23"/>
      <point x="173" y="-3"/>
    </contour>
  </outline>
</glyph>
<glyph name="dcroat" format="1">
  <advance width="780"/>
  <unicode hex="0111"/>
  <outline>
    <component base="d" xOffset="28"/>
    <contour>
      <point x="402" y="652" type="curve" smooth="yes"/>
      <point x="402" y="644"/>
      <point x="242" y="638"/>
      <point x="185" y="638" type="curve" smooth="yes"/>
      <point x="167" y="638"/>
      <point x="142" y="649"/>
      <point x="142" y="672" type="curve" smooth="yes"/>
      <point x="142" y="680"/>
      <point x="305" y="687"/>
      <point x="357" y="687" type="curve" smooth="yes"/>
      <point x="375" y="687"/>
      <point x="402" y="672"/>
    </contour>
  </outline>
</glyph>
<glyph name="kgreenlandic" format="1">
  <advance width="800"/>
  <unicode hex="0138"/>
  <outline>
    <contour>
      <point x="348" y="795" type="curve"/>
      <point x="343" y="803" type="line"/>
      <point x="298" y="707"/>
      <point x="245" y="629"/>
      <point x="245" y="518" type="curve" smooth="yes"/>
      <point x="245" y="469"/>
      <point x="235" y="420"/>
      <point x="235" y="371" type="curve" smooth="yes"/>
      <point x="235" y="109" type="line" smooth="yes"/>
      <point x="235" y="70"/>
      <point x="249" y="31"/>
      <point x="249" y="-8" type="curve" smooth="yes"/>
      <point x="249" y="-24"/>
      <point x="230" y="-33"/>
      <point x="216" y="-33" type="curve" smooth="yes"/>
      <point x="183" y="-33"/>
      <point x="171" y="-25"/>
      <point x="171" y="10" type="curve" smooth="yes"/>
      <point x="171" y="395" type="line" smooth="yes"/>
      <point x="171" y="481"/>
      <point x="190" y="567"/>
      <point x="190" y="653" type="curve" smooth="yes"/>
      <point x="190" y="784"/>
      <point x="210" y="918"/>
      <point x="210" y="1049" type="curve" smooth="yes"/>
      <point x="210" y="1333" type="line"/>
      <point x="218" y="1349"/>
      <point x="233" y="1356"/>
      <point x="249" y="1356" type="curve" smooth="yes"/>
      <point x="269" y="1356"/>
      <point x="288" y="1337"/>
      <point x="288" y="1317" type="curve"/>
      <point x="270" y="1284"/>
      <point x="270" y="1254"/>
      <point x="270" y="1219" type="curve" smooth="yes"/>
      <point x="270" y="1076"/>
      <point x="262" y="929"/>
      <point x="262" y="786" type="curve"/>
      <point x="301" y="802"/>
      <point x="546" y="1343"/>
      <point x="575" y="1343" type="curve" smooth="yes"/>
      <point x="598" y="1343"/>
      <point x="628" y="1336"/>
      <point x="630" y="1309" type="curve"/>
      <point x="538" y="1174"/>
      <point x="481" y="1077"/>
      <point x="411" y="930" type="curve"/>
      <point x="411" y="887"/>
      <point x="407" y="842"/>
      <point x="407" y="799" type="curve" smooth="yes"/>
      <point x="407" y="670"/>
      <point x="534" y="236"/>
      <point x="597" y="117" type="curve" smooth="yes"/>
      <point x="617" y="78"/>
      <point x="661" y="41"/>
      <point x="661" y="-6" type="curve" smooth="yes"/>
      <point x="661" y="-26"/>
      <point x="644" y="-37"/>
      <point x="626" y="-37" type="curve" smooth="yes"/>
      <point x="520" y="-37"/>
      <point x="354" y="670"/>
    </contour>
  </outline>
</glyph>
<glyph name="Lslash" format="1">
  <advance width="740"/>
  <unicode hex="0141"/>
  <outline>
    <component base="L"/>
    <contour>
      <point x="46" y="727" type="curve" smooth="yes"/>
      <point x="36" y="727"/>
      <point x="13" y="733"/>
      <point x="13" y="748" type="curve" smooth="yes"/>
      <point x="13" y="780"/>
      <point x="314" y="919"/>
      <point x="389" y="952" type="curve" smooth="yes"/>
      <point x="394" y="954"/>
      <point x="402" y="956"/>
      <point x="409" y="956" type="curve" smooth="yes"/>
      <point x="421" y="956"/>
      <point x="444" y="950"/>
      <point x="444" y="936" type="curve" smooth="yes"/>
      <point x="444" y="904"/>
      <point x="148" y="768"/>
      <point x="66" y="731" type="curve" smooth="yes"/>
      <point x="60" y="729"/>
      <point x="53" y="727"/>
    </contour>
  </outline>
</glyph>
<glyph name="lslash" format="1">
  <advance width="740"/>
  <unicode hex="0142"/>
  <outline>
    <contour>
      <point x="577" y="828" type="curve" smooth="yes"/>
      <point x="590" y="800"/>
      <point x="283" y="659"/>
      <point x="199" y="621" type="curve" smooth="yes"/>
      <point x="183" y="614"/>
      <point x="155" y="615"/>
      <point x="146" y="636" type="curve" smooth="yes"/>
      <point x="133" y="664"/>
      <point x="445" y="808"/>
      <point x="522" y="842" type="curve" smooth="yes"/>
      <point x="538" y="849"/>
      <point x="569" y="847"/>
    </contour>
    <component base="l" xOffset="125"/>
  </outline>
</glyph>
<glyph name="oe" format="1">
  <advance width="980"/>
  <unicode hex="0153"/>
  <outline>
    <contour>
      <point x="231" y="555" type="curve" smooth="yes"/>
      <point x="231" y="475"/>
      <point x="250" y="20"/>
      <point x="395" y="20" type="curve" smooth="yes"/>
      <point x="561" y="20"/>
      <point x="569" y="436"/>
      <point x="569" y="563" type="curve" smooth="yes"/>
      <point x="569" y="725"/>
      <point x="546" y="885"/>
      <point x="546" y="1047" type="curve"/>
      <point x="538" y="1063" type="line"/>
      <point x="542" y="1073" type="line"/>
      <point x="542" y="1247"/>
      <point x="494" y="1319"/>
      <point x="437" y="1319" type="curve" smooth="yes"/>
      <point x="349" y="1319"/>
      <point x="237" y="1147"/>
      <point x="237" y="909" type="curve" smooth="yes"/>
      <point x="237" y="846"/>
      <point x="227" y="780"/>
      <point x="227" y="717" type="curve" smooth="yes"/>
      <point x="227" y="664"/>
      <point x="231" y="608"/>
    </contour>
    <contour>
      <point x="403" y="-39" type="curve" smooth="yes"/>
      <point x="167" y="-39"/>
      <point x="163" y="527"/>
      <point x="163" y="715" type="curve" smooth="yes"/>
      <point x="163" y="1185"/>
      <point x="296" y="1375"/>
      <point x="409" y="1375" type="curve" smooth="yes"/>
      <point x="466" y="1375"/>
      <point x="518" y="1327"/>
      <point x="546" y="1243" type="curve" smooth="yes"/>
      <point x="553" y="1221"/>
      <point x="569" y="1199"/>
      <point x="579" y="1174" type="curve"/>
      <point x="577" y="1213"/>
      <point x="575" y="1251"/>
      <point x="575" y="1292" type="curve" smooth="yes"/>
      <point x="575" y="1329"/>
      <point x="589" y="1350"/>
      <point x="634" y="1350" type="curve" smooth="yes"/>
      <point x="646" y="1350"/>
      <point x="659" y="1347"/>
      <point x="667" y="1337" type="curve"/>
      <point x="702" y="1327"/>
      <point x="851" y="1325"/>
      <point x="855" y="1278" type="curve" smooth="yes"/>
      <point x="855" y="1264"/>
      <point x="827" y="1245"/>
      <point x="817" y="1239" type="curve"/>
      <point x="768" y="1255"/>
      <point x="700" y="1276"/>
      <point x="651" y="1278" type="curve"/>
      <point x="640" y="1266" type="line"/>
      <point x="642" y="1237"/>
      <point x="642" y="1207"/>
      <point x="642" y="1178" type="curve" smooth="yes"/>
      <point x="642" y="1072"/>
      <point x="634" y="966"/>
      <point x="634" y="860" type="curve" smooth="yes"/>
      <point x="634" y="831"/>
      <point x="638" y="803"/>
      <point x="663" y="803" type="curve" smooth="yes"/>
      <point x="686" y="803"/>
      <point x="708" y="807"/>
      <point x="733" y="807" type="curve" smooth="yes"/>
      <point x="756" y="807"/>
      <point x="810" y="805"/>
      <point x="812" y="770" type="curve" smooth="yes"/>
      <point x="812" y="745"/>
      <point x="800" y="717"/>
      <point x="771" y="717" type="curve" smooth="yes"/>
      <point x="757" y="717"/>
      <point x="732" y="723"/>
      <point x="724" y="733" type="curve"/>
      <point x="657" y="743" type="line"/>
      <point x="649" y="743" type="line"/>
      <point x="638" y="727" type="line"/>
      <point x="642" y="674"/>
      <point x="642" y="618"/>
      <point x="642" y="565" type="curve" smooth="yes"/>
      <point x="642" y="469"/>
      <point x="638" y="370"/>
      <point x="638" y="274" type="curve" smooth="yes"/>
      <point x="638" y="219"/>
      <point x="640" y="166"/>
      <point x="644" y="111" type="curve" smooth="yes"/>
      <point x="648" y="45"/>
      <point x="672" y="33"/>
      <point x="733" y="33" type="curve" smooth="yes"/>
      <point x="758" y="33"/>
      <point x="781" y="37"/>
      <point x="808" y="37" type="curve" smooth="yes"/>
      <point x="826" y="37"/>
      <point x="868" y="37"/>
      <point x="868" y="10" type="curve" smooth="yes"/>
      <point x="868" y="-27"/>
      <point x="807" y="-27"/>
      <point x="780" y="-27" type="curve" smooth="yes"/>
      <point x="610" y="-27" type="line" smooth="yes"/>
      <point x="581" y="-27"/>
      <point x="571" y="-9"/>
      <point x="569" y="16" type="curve" smooth="yes"/>
      <point x="569" y="32"/>
      <point x="571" y="52"/>
      <point x="571" y="68" type="curve"/>
      <point x="565" y="76" type="line"/>
      <point x="569" y="88"/>
      <point x="573" y="103"/>
      <point x="575" y="117" type="curve"/>
      <point x="542" y="27"/>
      <point x="489" y="-39"/>
    </contour>
  </outline>
</glyph>
<glyph name="uni0237" format="1">
  <advance width="720"/>
  <unicode hex="0237"/>
  <outline>
    <contour>
      <point x="370" y="1356" type="move" name="top"/>
    </contour>
    <contour>
      <point x="131" y="-197" type="curve" smooth="yes"/>
      <point x="131" y="-181"/>
      <point x="266" y="-107"/>
      <point x="286" y="-84" type="curve" smooth="yes"/>
      <point x="335" y="-29"/>
      <point x="352" y="100"/>
      <point x="352" y="172" type="curve" smooth="yes"/>
      <point x="352" y="534"/>
      <point x="333" y="898"/>
      <point x="333" y="1260" type="curve"/>
      <point x="321" y="1282" type="line"/>
      <point x="292" y="1294"/>
      <point x="172" y="1296"/>
      <point x="172" y="1335" type="curve" smooth="yes"/>
      <point x="172" y="1347"/>
      <point x="205" y="1360"/>
      <point x="215" y="1360" type="curve" smooth="yes"/>
      <point x="264" y="1360"/>
      <point x="557" y="1317"/>
      <point x="557" y="1274" type="curve" smooth="yes"/>
      <point x="557" y="1256"/>
      <point x="540" y="1247"/>
      <point x="524" y="1247" type="curve" smooth="yes"/>
      <point x="485" y="1247"/>
      <point x="452" y="1268"/>
      <point x="413" y="1268" type="curve" smooth="yes"/>
      <point x="395" y="1268"/>
      <point x="395" y="1237"/>
      <point x="395" y="1227" type="curve" smooth="yes"/>
      <point x="395" y="942"/>
      <point x="415" y="660"/>
      <point x="415" y="377" type="curve" smooth="yes"/>
      <point x="415" y="152" type="line"/>
      <point x="403" y="125"/>
      <point x="403" y="95"/>
      <point x="403" y="66" type="curve" smooth="yes"/>
      <point x="403" y="-34"/>
      <point x="339" y="-252"/>
      <point x="194" y="-252" type="curve" smooth="yes"/>
      <point x="180" y="-252" type="line"/>
      <point x="133" y="-205" type="line"/>
      <point x="133" y="-203"/>
      <point x="131" y="-199"/>
    </contour>
  </outline>
</glyph>
<glyph name="circumflex" format="1">
  <advance width="640"/>
  <unicode hex="02C6"/>
  <outline>
    <contour>
      <point x="312" y="805" type="move" name="_top"/>
    </contour>
    <contour>
      <point x="415" y="950" type="curve"/>
      <point x="388" y="967" type="line"/>
      <point x="380" y="1071"/>
      <point x="356" y="1174"/>
      <point x="329" y="1274" type="curve"/>
      <point x="311" y="1221"/>
      <point x="247" y="1053"/>
      <point x="243" y="1008" type="curve"/>
      <point x="208" y="961" type="line"/>
      <point x="171" y="987" type="line"/>
      <point x="173" y="1038"/>
      <point x="298" y="1333"/>
      <point x="343" y="1333" type="curve" smooth="yes"/>
      <point x="370" y="1333"/>
      <point x="372" y="1310"/>
      <point x="372" y="1290" type="curve" smooth="yes"/>
      <point x="372" y="1200"/>
      <point x="410" y="1135"/>
      <point x="433" y="1051" type="curve"/>
      <point x="431" y="1038" type="line"/>
      <point x="446" y="1008" type="line"/>
      <point x="444" y="997" type="line"/>
      <point x="446" y="993"/>
      <point x="452" y="979"/>
      <point x="452" y="975" type="curve" smooth="yes"/>
      <point x="452" y="959"/>
      <point x="427" y="952"/>
    </contour>
  </outline>
</glyph>
<glyph name="caron" format="1">
  <advance width="640"/>
  <unicode hex="02C7"/>
  <outline>
    <contour>
      <point x="322" y="805" type="move" name="_top"/>
    </contour>
    <contour>
      <point x="388" y="1317" type="curve"/>
      <point x="415" y="1333" type="line"/>
      <point x="427" y="1331"/>
      <point x="452" y="1325"/>
      <point x="452" y="1309" type="curve" smooth="yes"/>
      <point x="452" y="1305"/>
      <point x="446" y="1290"/>
      <point x="444" y="1286" type="curve"/>
      <point x="446" y="1276" type="line"/>
      <point x="431" y="1245" type="line"/>
      <point x="433" y="1233" type="line"/>
      <point x="410" y="1149"/>
      <point x="372" y="1083"/>
      <point x="372" y="993" type="curve" smooth="yes"/>
      <point x="372" y="973"/>
      <point x="370" y="950"/>
      <point x="343" y="950" type="curve" smooth="yes"/>
      <point x="298" y="950"/>
      <point x="173" y="1245"/>
      <point x="171" y="1296" type="curve"/>
      <point x="208" y="1323" type="line"/>
      <point x="243" y="1276" type="line"/>
      <point x="247" y="1231"/>
      <point x="311" y="1063"/>
      <point x="329" y="1010" type="curve"/>
      <point x="356" y="1110"/>
      <point x="380" y="1213"/>
    </contour>
  </outline>
</glyph>
<glyph name="uni02C9" format="1">
  <advance width="600"/>
  <unicode hex="02C9"/>
  <outline>
    <contour>
      <point x="312" y="805" type="move" name="_top"/>
    </contour>
    <contour>
      <point x="550" y="1120" type="curve" smooth="yes"/>
      <point x="548" y="1106"/>
      <point x="491" y="1103"/>
      <point x="419" y="1103" type="curve" smooth="yes"/>
      <point x="304" y="1103" type="line" smooth="yes"/>
      <point x="222" y="1103"/>
      <point x="155" y="1103"/>
      <point x="155" y="1136" type="curve" smooth="yes"/>
      <point x="157" y="1150"/>
      <point x="214" y="1153"/>
      <point x="286" y="1153" type="curve" smooth="yes"/>
      <point x="402" y="1153" type="line" smooth="yes"/>
      <point x="486" y="1153"/>
      <point x="550" y="1153"/>
    </contour>
  </outline>
</glyph>
<glyph name="ring" format="1">
  <advance width="600"/>
  <unicode hex="02DA"/>
  <outline>
    <contour>
      <point x="302" y="805" type="move" name="_top"/>
    </contour>
    <contour>
      <point x="234" y="1176" type="curve" smooth="yes"/>
      <point x="234" y="1151"/>
      <point x="240" y="1096"/>
      <point x="279" y="1096" type="curve" smooth="yes"/>
      <point x="308" y="1096"/>
      <point x="365" y="1120"/>
      <point x="365" y="1153" type="curve" smooth="yes"/>
      <point x="365" y="1192"/>
      <point x="351" y="1253"/>
      <point x="306" y="1253" type="curve" smooth="yes"/>
      <point x="273" y="1253"/>
      <point x="234" y="1213"/>
    </contour>
    <contour>
      <point x="187" y="1165" type="curve" smooth="yes"/>
      <point x="187" y="1226"/>
      <point x="245" y="1292"/>
      <point x="306" y="1292" type="curve" smooth="yes"/>
      <point x="359" y="1292"/>
      <point x="418" y="1225"/>
      <point x="418" y="1174" type="curve" smooth="yes"/>
      <point x="418" y="1094"/>
      <point x="361" y="1057"/>
      <point x="287" y="1057" type="curve" smooth="yes"/>
      <point x="232" y="1057"/>
      <point x="187" y="1112"/>
    </contour>
  </outline>
</glyph>
<glyph name="hungarumlaut" format="1">
  <advance width="940"/>
  <unicode hex="02DD"/>
  <outline>
    <contour>
      <point x="412" y="805" type="move" name="_top"/>
    </contour>
    <contour>
      <point x="407" y="1060" type="curve" smooth="yes"/>
      <point x="407" y="1085"/>
      <point x="630" y="1238"/>
      <point x="660" y="1257" type="curve" smooth="yes"/>
      <point x="674" y="1265"/>
      <point x="760" y="1317"/>
      <point x="774" y="1317" type="curve" smooth="yes"/>
      <point x="789" y="1317"/>
      <point x="812" y="1288"/>
      <point x="816" y="1267" type="curve"/>
      <point x="710" y="1207" type="line"/>
      <point x="685" y="1197"/>
      <point x="635" y="1171"/>
      <point x="599" y="1152" type="curve" smooth="yes"/>
      <point x="569" y="1136"/>
      <point x="436" y="1045"/>
      <point x="418" y="1045" type="curve" smooth="yes"/>
      <point x="408" y="1045"/>
      <point x="407" y="1052"/>
    </contour>
    <contour>
      <point x="99" y="1050" type="line"/>
      <point x="106" y="1081"/>
      <point x="433" y="1332"/>
      <point x="457" y="1332" type="curve" smooth="yes"/>
      <point x="460" y="1332"/>
      <point x="480" y="1317"/>
      <point x="480" y="1301" type="curve" smooth="yes"/>
      <point x="480" y="1294"/>
      <point x="476" y="1287"/>
      <point x="466" y="1281" type="curve" smooth="yes"/>
      <point x="449" y="1268"/>
      <point x="292" y="1148"/>
      <point x="264" y="1130" type="curve"/>
      <point x="209" y="1104"/>
      <point x="169" y="1053"/>
      <point x="109" y="1039" type="curve"/>
    </contour>
  </outline>
</glyph>
<glyph name="uni030F" format="1">
  <advance width="920"/>
  <unicode hex="030F"/>
  <outline>
    <contour>
      <point x="660" y="805" type="move" name="_top"/>
    </contour>
    <contour>
      <point x="509" y="1169" type="curve" smooth="yes"/>
      <point x="509" y="1161"/>
      <point x="508" y="1154"/>
      <point x="498" y="1154" type="curve" smooth="yes"/>
      <point x="481" y="1154"/>
      <point x="360" y="1240"/>
      <point x="332" y="1255" type="curve" smooth="yes"/>
      <point x="296" y="1274"/>
      <point x="247" y="1300"/>
      <point x="222" y="1310" type="curve"/>
      <point x="115" y="1370" type="line"/>
      <point x="119" y="1391"/>
      <point x="142" y="1420"/>
      <point x="157" y="1420" type="curve" smooth="yes"/>
      <point x="171" y="1420"/>
      <point x="258" y="1368"/>
      <point x="272" y="1360" type="curve" smooth="yes"/>
      <point x="300" y="1342"/>
      <point x="509" y="1193"/>
    </contour>
    <contour>
      <point x="766" y="1159" type="curve"/>
      <point x="757" y="1148" type="line"/>
      <point x="697" y="1162"/>
      <point x="656" y="1213"/>
      <point x="601" y="1239" type="curve"/>
      <point x="575" y="1257"/>
      <point x="430" y="1372"/>
      <point x="415" y="1384" type="curve" smooth="yes"/>
      <point x="405" y="1390"/>
      <point x="402" y="1397"/>
      <point x="402" y="1404" type="curve" smooth="yes"/>
      <point x="402" y="1420"/>
      <point x="421" y="1435"/>
      <point x="424" y="1435" type="curve" smooth="yes"/>
      <point x="446" y="1435"/>
      <point x="759" y="1189"/>
    </contour>
  </outline>
</glyph>
<glyph name="Sigma" format="1">
  <advance width="807"/>
  <unicode hex="03A3"/>
  <outline>
    <contour>
      <point x="711" y="1475" type="curve" smooth="yes"/>
      <point x="711" y="1460"/>
      <point x="671" y="1457"/>
      <point x="657" y="1457" type="curve" smooth="yes"/>
      <point x="605" y="1457" type="line" smooth="yes"/>
      <point x="574" y="1457"/>
      <point x="544" y="1459"/>
      <point x="514" y="1459" type="curve" smooth="yes"/>
      <point x="484" y="1459"/>
      <point x="454" y="1457"/>
      <point x="424" y="1450" type="curve" smooth="yes"/>
      <point x="404" y="1445"/>
      <point x="382" y="1441"/>
      <point x="359" y="1441" type="curve" smooth="yes"/>
      <point x="327" y="1441"/>
      <point x="293" y="1432"/>
      <point x="259" y="1432" type="curve" smooth="yes"/>
      <point x="249" y="1432"/>
      <point x="234" y="1432"/>
      <point x="224" y="1422" type="curve"/>
      <point x="225" y="1422" type="line"/>
      <point x="238" y="1369"/>
      <point x="529" y="894"/>
      <point x="562" y="851" type="curve" smooth="yes"/>
      <point x="578" y="831"/>
      <point x="625" y="803"/>
      <point x="625" y="773" type="curve" smooth="yes"/>
      <point x="625" y="748"/>
      <point x="582" y="641"/>
      <point x="568" y="630" type="curve" smooth="yes"/>
      <point x="529" y="598"/>
      <point x="165" y="110"/>
      <point x="137" y="45" type="curve"/>
      <point x="278" y="25"/>
      <point x="450" y="-3"/>
      <point x="589" y="-3" type="curve" smooth="yes"/>
      <point x="600" y="-3"/>
      <point x="610" y="-3"/>
      <point x="620" y="-1" type="curve"/>
      <point x="623" y="-1" type="line"/>
      <point x="632" y="-10"/>
      <point x="635" y="-16"/>
      <point x="635" y="-39" type="curve" smooth="yes"/>
      <point x="635" y="-49"/>
      <point x="629" y="-66"/>
      <point x="621" y="-66" type="curve" smooth="yes"/>
      <point x="620" y="-66" type="line"/>
      <point x="451" y="-41"/>
      <point x="330" y="-43"/>
      <point x="160" y="-18" type="curve" smooth="yes"/>
      <point x="153" y="-17"/>
      <point x="121" y="7"/>
      <point x="119" y="7" type="curve" smooth="yes"/>
      <point x="105" y="7"/>
      <point x="93" y="30"/>
      <point x="93" y="52" type="curve" smooth="yes"/>
      <point x="93" y="79"/>
      <point x="120" y="104"/>
      <point x="130" y="117" type="curve" smooth="yes"/>
      <point x="182" y="174"/>
      <point x="228" y="268"/>
      <point x="271" y="314" type="curve" smooth="yes"/>
      <point x="300" y="345"/>
      <point x="320" y="386"/>
      <point x="406" y="496" type="curve"/>
      <point x="404" y="496" type="line"/>
      <point x="426" y="531" type="line"/>
      <point x="427" y="531" type="line"/>
      <point x="523" y="666"/>
      <point x="563" y="706"/>
      <point x="563" y="739" type="curve" smooth="yes"/>
      <point x="563" y="749"/>
      <point x="559" y="759"/>
      <point x="552" y="771" type="curve" smooth="yes"/>
      <point x="530" y="816"/>
      <point x="289" y="1209"/>
      <point x="246" y="1275" type="curve" smooth="yes"/>
      <point x="235" y="1291"/>
      <point x="193" y="1361"/>
      <point x="161" y="1425" type="curve" smooth="yes"/>
      <point x="156" y="1435"/>
      <point x="152" y="1448"/>
      <point x="152" y="1461" type="curve" smooth="yes"/>
      <point x="152" y="1476"/>
      <point x="158" y="1489"/>
      <point x="178" y="1489" type="curve" smooth="yes"/>
      <point x="224" y="1489"/>
      <point x="415" y="1489"/>
      <point x="506" y="1507" type="curve"/>
      <point x="507" y="1507" type="line" smooth="yes"/>
      <point x="536" y="1507"/>
      <point x="564" y="1502"/>
      <point x="591" y="1502" type="curve" smooth="yes"/>
      <point x="617" y="1502"/>
      <point x="642" y="1505"/>
      <point x="667" y="1522" type="curve" smooth="yes"/>
      <point x="669" y="1523"/>
      <point x="675" y="1532"/>
      <point x="682" y="1532" type="curve" smooth="yes"/>
      <point x="695" y="1532"/>
      <point x="711" y="1513"/>
    </contour>
    <contour>
      <point x="219" y="1422" type="line"/>
      <point x="217" y="1435" type="line"/>
      <point x="215" y="1422" type="line"/>
    </contour>
  </outline>
</glyph>
<glyph name="Sigma" format="1">
  <advance width="807"/>
  <unicode hex="03A3"/>
  <outline>
    <contour>
      <point x="695" y="1532"/>
      <point x="711" y="1513"/>
      <point x="711" y="1475" type="curve"/>
      <point x="711" y="1460"/>
      <point x="671" y="1457"/>
      <point x="657" y="1457" type="curve"/>
      <point x="605" y="1457" type="line"/>
      <point x="543" y="1457"/>
      <point x="484" y="1464"/>
      <point x="424" y="1450" type="curve"/>
      <point x="404" y="1445"/>
      <point x="382" y="1441"/>
      <point x="359" y="1441" type="curve"/>
      <point x="327" y="1441"/>
      <point x="293" y="1432"/>
      <point x="259" y="1432" type="curve"/>
      <point x="249" y="1432"/>
      <point x="234" y="1432"/>
      <point x="224" y="1422" type="curve"/>
      <point x="225" y="1422" type="line"/>
      <point x="238" y="1369"/>
      <point x="529" y="894"/>
      <point x="562" y="851" type="curve"/>
      <point x="578" y="831"/>
      <point x="625" y="803"/>
      <point x="625" y="773" type="curve"/>
      <point x="625" y="748"/>
      <point x="582" y="641"/>
      <point x="568" y="630" type="curve"/>
      <point x="529" y="598"/>
      <point x="165" y="110"/>
      <point x="137" y="45" type="curve"/>
      <point x="134" y="45" type="line"/>
      <point x="276" y="25"/>
      <point x="449" y="-3"/>
      <point x="589" y="-3" type="curve"/>
      <point x="600" y="-3"/>
      <point x="610" y="-3"/>
      <point x="620" y="-1" type="curve"/>
      <point x="623" y="-1" type="line"/>
      <point x="632" y="-10"/>
      <point x="635" y="-16"/>
      <point x="635" y="-39" type="curve"/>
      <point x="635" y="-50"/>
      <point x="629" y="-68"/>
      <point x="620" y="-66" type="curve"/>
      <point x="451" y="-41"/>
      <point x="330" y="-43"/>
      <point x="160" y="-18" type="curve"/>
      <point x="153" y="-17"/>
      <point x="121" y="7"/>
      <point x="119" y="7" type="curve"/>
      <point x="105" y="7"/>
      <point x="93" y="30"/>
      <point x="93" y="52" type="curve"/>
      <point x="93" y="79"/>
      <point x="120" y="104"/>
      <point x="130" y="117" type="curve"/>
      <point x="182" y="174"/>
      <point x="228" y="268"/>
      <point x="271" y="314" type="curve"/>
      <point x="300" y="345"/>
      <point x="320" y="386"/>
      <point x="406" y="496" type="curve"/>
      <point x="404" y="496" type="line"/>
      <point x="426" y="531" type="line"/>
      <point x="427" y="531" type="line"/>
      <point x="553" y="708"/>
      <point x="582" y="721"/>
      <point x="552" y="771" type="curve"/>
      <point x="530" y="816"/>
      <point x="289" y="1209"/>
      <point x="246" y="1275" type="curve"/>
      <point x="235" y="1291"/>
      <point x="193" y="1361"/>
      <point x="161" y="1425" type="curve"/>
      <point x="151" y="1446"/>
      <point x="142" y="1489"/>
      <point x="178" y="1489" type="curve"/>
      <point x="224" y="1489"/>
      <point x="415" y="1489"/>
      <point x="506" y="1507" type="curve"/>
      <point x="507" y="1507" type="line"/>
      <point x="536" y="1507"/>
      <point x="564" y="1502"/>
      <point x="591" y="1502" type="curve"/>
      <point x="617" y="1502"/>
      <point x="642" y="1505"/>
      <point x="667" y="1522" type="curve"/>
      <point x="669" y="1523"/>
      <point x="675" y="1532"/>
      <point x="682" y="1532" type="curve"/>
    </contour>
    <contour>
      <point x="220" y="1422" type="line"/>
      <point x="220" y="1419" type="line"/>
      <point x="217" y="1435" type="line"/>
      <point x="215" y="1422" type="line"/>
    </contour>
  </outline>
</glyph>
<glyph name="endash" format="1">
  <advance width="880"/>
  <unicode hex="2013"/>
  <outline>
    <contour>
      <point x="744" y="727" type="curve"/>
      <point x="682" y="727" type="line"/>
      <point x="682" y="721"/>
      <point x="580" y="721"/>
      <point x="467" y="721" type="curve" smooth="yes"/>
      <point x="166" y="721" type="line" smooth="yes"/>
      <point x="146" y="721"/>
      <point x="123" y="733"/>
      <point x="123" y="756" type="curve" smooth="yes"/>
      <point x="123" y="762"/>
      <point x="263" y="762"/>
      <point x="406" y="762" type="curve" smooth="yes"/>
      <point x="699" y="762" type="line" smooth="yes"/>
      <point x="717" y="762"/>
      <point x="744" y="747"/>
    </contour>
  </outline>
</glyph>
<glyph name="perthousand" format="1">
  <advance width="1700"/>
  <unicode hex="2030"/>
  <outline>
    <component base="percent" xOffset="-41"/>
    <contour>
      <point x="1233" y="380" type="curve" smooth="yes"/>
      <point x="1233" y="362"/>
      <point x="1242" y="343"/>
      <point x="1242" y="327" type="curve" smooth="yes"/>
      <point x="1250" y="286"/>
      <point x="1258" y="81"/>
      <point x="1334" y="81" type="curve" smooth="yes"/>
      <point x="1410" y="81"/>
      <point x="1465" y="152"/>
      <point x="1465" y="232" type="curve"/>
      <point x="1469" y="251" type="line"/>
      <point x="1469" y="341"/>
      <point x="1485" y="397"/>
      <point x="1485" y="487" type="curve" smooth="yes"/>
      <point x="1485" y="559"/>
      <point x="1477" y="766"/>
      <point x="1350" y="766" type="curve" smooth="yes"/>
      <point x="1250" y="766"/>
      <point x="1237" y="536"/>
      <point x="1237" y="493" type="curve" smooth="yes"/>
      <point x="1237" y="454"/>
      <point x="1233" y="417"/>
    </contour>
    <contour>
      <point x="1532" y="499" type="curve" smooth="yes"/>
      <point x="1532" y="466"/>
      <point x="1528" y="438"/>
      <point x="1528" y="405" type="curve"/>
      <point x="1532" y="399" type="line"/>
      <point x="1532" y="305"/>
      <point x="1518" y="185"/>
      <point x="1469" y="101" type="curve"/>
      <point x="1433" y="29"/>
      <point x="1354" y="26"/>
      <point x="1332" y="26" type="curve" smooth="yes"/>
      <point x="1328" y="26" type="line" smooth="yes"/>
      <point x="1219" y="26"/>
      <point x="1182" y="307"/>
      <point x="1182" y="370" type="curve" smooth="yes"/>
      <point x="1182" y="378" type="line" smooth="yes"/>
      <point x="1182" y="493"/>
      <point x="1184" y="819"/>
      <point x="1354" y="819" type="curve" smooth="yes"/>
      <point x="1522" y="819"/>
      <point x="1532" y="591"/>
    </contour>
  </outline>
</glyph>
<glyph name="Euro" format="1">
  <advance width="820"/>
  <unicode hex="20AC"/>
  <outline>
    <contour>
      <point x="203" y="805" type="curve"/>
      <point x="152" y="804"/>
      <point x="118" y="804"/>
      <point x="92" y="804" type="curve" smooth="yes"/>
      <point x="57" y="804"/>
      <point x="43" y="823"/>
      <point x="43" y="839" type="curve" smooth="yes"/>
      <point x="43" y="848"/>
      <point x="47" y="856"/>
      <point x="55" y="859" type="curve" smooth="yes"/>
      <point x="59" y="860"/>
      <point x="119" y="866"/>
      <point x="202" y="869" type="curve"/>
      <point x="202" y="877" type="line" smooth="yes"/>
      <point x="202" y="950"/>
      <point x="200" y="1022"/>
      <point x="200" y="1090" type="curve" smooth="yes"/>
      <point x="200" y="1355"/>
      <point x="229" y="1565"/>
      <point x="512" y="1565" type="curve" smooth="yes"/>
      <point x="551" y="1565"/>
      <point x="630" y="1536"/>
      <point x="630" y="1489" type="curve" smooth="yes"/>
      <point x="630" y="1471"/>
      <point x="612" y="1466"/>
      <point x="598" y="1466" type="curve" smooth="yes"/>
      <point x="352" y="1466"/>
      <point x="270" y="1449"/>
      <point x="270" y="1153" type="curve" smooth="yes"/>
      <point x="270" y="1051"/>
      <point x="263" y="962"/>
      <point x="258" y="871" type="curve"/>
      <point x="385" y="875"/>
      <point x="534" y="877"/>
      <point x="579" y="877" type="curve" smooth="yes"/>
      <point x="597" y="877"/>
      <point x="624" y="842"/>
      <point x="624" y="822" type="curve" smooth="yes"/>
      <point x="624" y="815"/>
      <point x="417" y="809"/>
      <point x="259" y="806" type="curve"/>
      <point x="260" y="773"/>
      <point x="270" y="660"/>
      <point x="273" y="607" type="curve"/>
      <point x="404" y="611"/>
      <point x="563" y="613"/>
      <point x="610" y="613" type="curve" smooth="yes"/>
      <point x="628" y="613"/>
      <point x="655" y="575"/>
      <point x="655" y="555" type="curve" smooth="yes"/>
      <point x="655" y="548"/>
      <point x="436" y="542"/>
      <point x="276" y="539" type="curve"/>
      <point x="291" y="336"/>
      <point x="311" y="175"/>
      <point x="342" y="127" type="curve" smooth="yes"/>
      <point x="379" y="70"/>
      <point x="453" y="47"/>
      <point x="516" y="47" type="curve" smooth="yes"/>
      <point x="569" y="47"/>
      <point x="624" y="65"/>
      <point x="659" y="106" type="curve"/>
      <point x="675" y="106"/>
      <point x="690" y="109"/>
      <point x="706" y="113" type="curve"/>
      <point x="716" y="102" type="line"/>
      <point x="716" y="-2"/>
      <point x="571" y="-33"/>
      <point x="489" y="-33" type="curve" smooth="yes"/>
      <point x="407" y="-33"/>
      <point x="311" y="43"/>
      <point x="278" y="115" type="curve" smooth="yes"/>
      <point x="252" y="171"/>
      <point x="234" y="330"/>
      <point x="220" y="538" type="curve"/>
      <point x="180" y="537"/>
      <point x="147" y="537"/>
      <point x="129" y="537" type="curve" smooth="yes"/>
      <point x="111" y="537"/>
      <point x="86" y="572"/>
      <point x="86" y="595" type="curve" smooth="yes"/>
      <point x="86" y="599"/>
      <point x="142" y="602"/>
      <point x="217" y="605" type="curve"/>
      <point x="214" y="657"/>
      <point x="204" y="769"/>
    </contour>
  </outline>
</glyph>
